G75*
G70*
%OFA0B0*%
%FSLAX24Y24*%
%IPPOS*%
%LPD*%
%AMOC8*
5,1,8,0,0,1.08239X$1,22.5*
%
%ADD10C,0.0000*%
%ADD11C,0.0560*%
%ADD12C,0.0600*%
%ADD13C,0.0600*%
%ADD14OC8,0.0640*%
%ADD15OC8,0.0560*%
%ADD16OC8,0.0670*%
%ADD17C,0.0670*%
%ADD18R,0.0840X0.0840*%
%ADD19C,0.0840*%
%ADD20C,0.0640*%
%ADD21C,0.0690*%
%ADD22C,0.0560*%
%ADD23C,0.0780*%
%ADD24C,0.2340*%
%ADD25C,0.0820*%
%ADD26C,0.0640*%
D10*
X000189Y000550D02*
X000189Y032046D01*
X039559Y032046D01*
X039559Y000550D01*
X000189Y000550D01*
D11*
X010689Y010290D02*
X010689Y010810D01*
X011689Y010810D02*
X011689Y010290D01*
X012689Y010290D02*
X012689Y010810D01*
X013689Y010810D02*
X013689Y010290D01*
X014689Y010290D02*
X014689Y010810D01*
X015689Y010810D02*
X015689Y010290D01*
X016689Y010290D02*
X016689Y010810D01*
X017689Y010810D02*
X017689Y010290D01*
X018689Y010290D02*
X018689Y010810D01*
X019689Y010810D02*
X019689Y010290D01*
X020689Y010290D02*
X020689Y010810D01*
X021689Y010810D02*
X021689Y010290D01*
X022689Y010290D02*
X022689Y010810D01*
X023689Y010810D02*
X023689Y010290D01*
X023689Y013290D02*
X023689Y013810D01*
X022689Y013810D02*
X022689Y013290D01*
X021689Y013290D02*
X021689Y013810D01*
X020689Y013810D02*
X020689Y013290D01*
X019689Y013290D02*
X019689Y013810D01*
X018689Y013810D02*
X018689Y013290D01*
X017689Y013290D02*
X017689Y013810D01*
X016689Y013810D02*
X016689Y013290D01*
X015689Y013290D02*
X015689Y013810D01*
X014689Y013810D02*
X014689Y013290D01*
X013689Y013290D02*
X013689Y013810D01*
X012689Y013810D02*
X012689Y013290D01*
X011689Y013290D02*
X011689Y013810D01*
X010689Y013810D02*
X010689Y013290D01*
X027669Y013050D02*
X028189Y013050D01*
X028189Y014050D02*
X027669Y014050D01*
X027669Y015050D02*
X028189Y015050D01*
X028189Y016050D02*
X027669Y016050D01*
X031189Y016050D02*
X031709Y016050D01*
X031709Y015050D02*
X031189Y015050D01*
X031189Y014050D02*
X031709Y014050D01*
X031709Y013050D02*
X031189Y013050D01*
X031689Y010175D02*
X032209Y010175D01*
X032209Y009175D02*
X031689Y009175D01*
X031689Y008175D02*
X032209Y008175D01*
X032209Y007175D02*
X031689Y007175D01*
X028689Y007175D02*
X028169Y007175D01*
X028169Y008175D02*
X028689Y008175D01*
X028689Y009175D02*
X028169Y009175D01*
X028169Y010175D02*
X028689Y010175D01*
X037929Y010550D02*
X038449Y010550D01*
X038449Y011550D02*
X037929Y011550D01*
X037929Y012550D02*
X038449Y012550D01*
X038449Y013550D02*
X037929Y013550D01*
X037929Y014550D02*
X038449Y014550D01*
X038449Y015550D02*
X037929Y015550D01*
D12*
X035189Y021050D03*
X034189Y021050D03*
X033189Y021050D03*
X032189Y021050D03*
X031189Y021050D03*
X030189Y021050D03*
X029189Y021050D03*
X028189Y021050D03*
X027189Y021050D03*
X026189Y021050D03*
X025189Y021050D03*
X024189Y021050D03*
X023189Y021050D03*
X022189Y021050D03*
X021189Y021050D03*
X020189Y021050D03*
X019189Y021050D03*
X018189Y021050D03*
X017189Y021050D03*
X016189Y021050D03*
X015189Y021050D03*
X014189Y021050D03*
X013189Y021050D03*
X012189Y021050D03*
X011189Y021050D03*
X010189Y021050D03*
X009189Y021050D03*
X008189Y021050D03*
X007189Y021050D03*
X006189Y021050D03*
X005189Y021050D03*
X004189Y021050D03*
D13*
X004189Y025770D02*
X004189Y026330D01*
X005189Y026330D02*
X005189Y025770D01*
X006189Y025770D02*
X006189Y026330D01*
X007189Y026330D02*
X007189Y025770D01*
X008189Y025770D02*
X008189Y026330D01*
X009189Y026330D02*
X009189Y025770D01*
X010189Y025770D02*
X010189Y026330D01*
X011189Y026330D02*
X011189Y025770D01*
X012189Y025770D02*
X012189Y026330D01*
X013189Y026330D02*
X013189Y025770D01*
X014189Y025770D02*
X014189Y026330D01*
X015189Y026330D02*
X015189Y025770D01*
X016189Y025770D02*
X016189Y026330D01*
X017189Y026330D02*
X017189Y025770D01*
X018189Y025770D02*
X018189Y026330D01*
X019189Y026330D02*
X019189Y025770D01*
X020189Y025770D02*
X020189Y026330D01*
X021189Y026330D02*
X021189Y025770D01*
X022189Y025770D02*
X022189Y026330D01*
X023189Y026330D02*
X023189Y025770D01*
X024189Y025770D02*
X024189Y026330D01*
X025189Y026330D02*
X025189Y025770D01*
X026189Y025770D02*
X026189Y026330D01*
X027189Y026330D02*
X027189Y025770D01*
X028189Y025770D02*
X028189Y026330D01*
X029189Y026330D02*
X029189Y025770D01*
X030189Y025770D02*
X030189Y026330D01*
X031189Y026330D02*
X031189Y025770D01*
X032189Y025770D02*
X032189Y026330D01*
X033189Y026330D02*
X033189Y025770D01*
X034189Y025770D02*
X034189Y026330D01*
X035189Y026330D02*
X035189Y025770D01*
D14*
X030189Y018675D03*
X029189Y018675D03*
X028189Y018675D03*
X028189Y017675D03*
X029189Y017675D03*
X030189Y017675D03*
X022064Y017675D03*
X021064Y017675D03*
X020064Y017675D03*
X020064Y018675D03*
X021064Y018675D03*
X022064Y018675D03*
X014189Y018550D03*
X013189Y018550D03*
X012189Y018550D03*
X012189Y017550D03*
X013189Y017550D03*
X014189Y017550D03*
X014189Y016175D03*
X013189Y016175D03*
X012189Y016175D03*
X012189Y015175D03*
X013189Y015175D03*
X014189Y015175D03*
X006189Y017550D03*
X005189Y017550D03*
X004189Y017550D03*
X004189Y018550D03*
X005189Y018550D03*
X006189Y018550D03*
X012689Y003800D03*
X012689Y002800D03*
X013689Y002800D03*
X014689Y002800D03*
X014689Y003800D03*
X013689Y003800D03*
X015689Y003800D03*
X016689Y003800D03*
X016689Y002800D03*
X015689Y002800D03*
X017689Y002800D03*
X018689Y002800D03*
X018689Y003800D03*
X017689Y003800D03*
X019689Y003800D03*
X019689Y002800D03*
X026814Y002800D03*
X027814Y002800D03*
X027814Y003800D03*
X026814Y003800D03*
X028814Y003800D03*
X028814Y002800D03*
D15*
X024689Y003050D03*
X023689Y002550D03*
X023689Y004550D03*
X024689Y005050D03*
X015189Y008050D03*
X013189Y008050D03*
X010189Y008550D03*
X010189Y006550D03*
X004689Y006550D03*
X004689Y007550D03*
X004189Y008550D03*
X004189Y009550D03*
X017064Y017925D03*
X017064Y018925D03*
X018189Y023550D03*
X019189Y023550D03*
X018689Y026925D03*
X018689Y027925D03*
X019939Y027550D03*
X020939Y027550D03*
X025189Y023550D03*
X026189Y023550D03*
X026939Y027050D03*
X026939Y028050D03*
X028314Y027550D03*
X029314Y027550D03*
X033564Y015050D03*
X033564Y013050D03*
X034939Y008050D03*
X034939Y006050D03*
X011064Y027050D03*
X011064Y028050D03*
X012189Y027550D03*
X013189Y027550D03*
X008189Y024050D03*
X007189Y024050D03*
X004689Y027550D03*
X003689Y027550D03*
X005939Y028300D03*
X006939Y028300D03*
D16*
X005189Y024050D03*
X014189Y023550D03*
X021189Y024550D03*
X034689Y024550D03*
X007189Y006050D03*
X006189Y004050D03*
D17*
X005189Y004050D03*
X008189Y006050D03*
X013189Y023550D03*
X021189Y023550D03*
X034689Y023550D03*
X004189Y024050D03*
D18*
X001439Y012800D03*
X001439Y008300D03*
D19*
X001439Y006331D03*
X001439Y010831D03*
D20*
X006189Y002050D03*
X007189Y002050D03*
X008189Y002050D03*
D21*
X011064Y003050D03*
X011064Y004050D03*
X018189Y008050D03*
X018189Y009050D03*
X019689Y009050D03*
X019689Y008050D03*
X026689Y009050D03*
X026689Y010050D03*
X036564Y013800D03*
X036564Y014800D03*
D22*
X021689Y008500D03*
X021689Y006600D03*
D23*
X007969Y011160D03*
X007969Y012940D03*
X005409Y012940D03*
X005409Y011160D03*
D24*
X002189Y002550D03*
X002189Y030050D03*
X037689Y030050D03*
X037689Y002550D03*
D25*
X034649Y029660D02*
X034649Y030440D01*
X032669Y030440D02*
X032669Y029660D01*
X030709Y029660D02*
X030709Y030440D01*
X028729Y030440D02*
X028729Y029660D01*
X026649Y029660D02*
X026649Y030440D01*
X024669Y030440D02*
X024669Y029660D01*
X022709Y029660D02*
X022709Y030440D01*
X020729Y030440D02*
X020729Y029660D01*
X018649Y029660D02*
X018649Y030440D01*
X016669Y030440D02*
X016669Y029660D01*
X014709Y029660D02*
X014709Y030440D01*
X012729Y030440D02*
X012729Y029660D01*
X010649Y029660D02*
X010649Y030440D01*
X008669Y030440D02*
X008669Y029660D01*
X006709Y029660D02*
X006709Y030440D01*
X004729Y030440D02*
X004729Y029660D01*
D26*
X030889Y003550D02*
X031489Y003550D01*
X032389Y003550D02*
X032989Y003550D01*
X033889Y003550D02*
X034489Y003550D01*
X034489Y002550D02*
X033889Y002550D01*
X032989Y002550D02*
X032389Y002550D01*
X031489Y002550D02*
X030889Y002550D01*
X030889Y001550D02*
X031489Y001550D01*
X032389Y001550D02*
X032989Y001550D01*
X033889Y001550D02*
X034489Y001550D01*
M02*
