%
M48
M72
T01C0.0130
T02C0.0315
T03C0.0320
T04C0.0354
T05C0.0360
T06C0.0394
T07C0.0400
T08C0.0520
T09C0.1417
%
T01
X15968Y14313
X25530Y4250
X17280Y15250
X14530Y15500
X12530Y15500
X3280Y22250
X16719Y4335
X33123Y13068
T02
X4054Y19797
X8054Y19797
X9054Y19797
X8054Y24797
X9054Y24797
X7054Y24797
X6054Y24797
X11054Y19797
X5054Y24797
X11054Y24797
X5054Y19797
X6054Y19797
X7054Y19797
X10054Y19797
X10054Y24797
X4054Y24797
X12322Y19797
X16322Y19797
X17322Y19797
X16322Y24797
X17322Y24797
X15322Y24797
X14322Y24797
X19322Y19797
X13322Y24797
X19322Y24797
X13322Y19797
X14322Y19797
X15322Y19797
X18322Y19797
X18322Y24797
X12322Y24797
X20590Y19797
X24590Y19797
X25590Y19797
X24590Y24797
X25590Y24797
X23590Y24797
X22590Y24797
X27590Y19797
X21590Y24797
X27590Y24797
X21590Y19797
X22590Y19797
X23590Y19797
X26590Y19797
X26590Y24797
X20590Y24797
X28857Y19797
X32857Y19797
X33857Y19797
X32857Y24797
X33857Y24797
X31857Y24797
X30857Y24797
X35857Y19797
X29857Y24797
X35857Y24797
X29857Y19797
X30857Y19797
X31857Y19797
X34857Y19797
X34857Y24797
X28857Y24797
T03
X23030Y12000
X22030Y12000
X21030Y12000
X20030Y12000
X19030Y12000
X18030Y12000
X17030Y12000
X16030Y12000
X15030Y12000
X14030Y12000
X13030Y12000
X12030Y12000
X11030Y12000
X10030Y12000
X10030Y9000
X11030Y9000
X12030Y9000
X13030Y9000
X14030Y9000
X15030Y9000
X16030Y9000
X17030Y9000
X18030Y9000
X19030Y9000
X20030Y9000
X21030Y9000
X22030Y9000
X23030Y9000
X11194Y26038
X10194Y26038
X12475Y27719
X12475Y26719
X20743Y27719
X20743Y26719
X29011Y27719
X29011Y26719
X7530Y7750
X7530Y8750
X7530Y11750
X7530Y10750
X19030Y13188
X18030Y13188
X15480Y14750
X13580Y14750
X15030Y13250
X16030Y13250
X14030Y13250
X13030Y13250
X33032Y12530
X34032Y12530
X34032Y15530
X33032Y15530
X35032Y12530
X36032Y12530
X35032Y15530
X36032Y15530
X33032Y7018
X34032Y7018
X34032Y10018
X33032Y10018
X35032Y7018
X36032Y7018
X35032Y10018
X36032Y10018
X34032Y11274
X35032Y11274
X7751Y17573
X7751Y16573
X24286Y17573
X24286Y16573
X16019Y17573
X16019Y16573
X32554Y17573
X32554Y16573
X19030Y14563
X18030Y14563
X5155Y2000
X4155Y2000
X31020Y5475
X31020Y4475
X32989Y5475
X32989Y4475
X34957Y5475
X34957Y4475
X19462Y26038
X18462Y26038
X27730Y26038
X26730Y26038
X35998Y26038
X34998Y26038
X4208Y27719
X4208Y26719
T04
X4780Y6750
X4780Y3750
X31973Y12530
X31973Y15530
X30841Y12530
X30841Y15530
X30841Y10018
X30841Y7018
X31973Y7018
X31973Y10018
X24530Y12000
X24530Y9000
X25530Y12000
X25530Y9000
X7780Y18625
X10780Y18625
X16030Y18625
X19030Y18625
X24280Y18625
X27280Y18625
X32593Y18625
X35593Y18625
X29530Y2500
X29530Y5500
X28405Y2500
X28405Y5500
X27280Y2500
X27280Y5500
T05
X8280Y3125
X8280Y4125
X9280Y3125
X9280Y4125
X10280Y3125
X10280Y4125
X11280Y3125
X11280Y4125
X12280Y3125
X12280Y4125
X13280Y3125
X13280Y4125
X14280Y3125
X14280Y4125
X15280Y3125
X15280Y4125
X37218Y10625
X38218Y10625
T06
X5280Y8750
X5280Y9750
X5280Y10750
X18030Y5563
X18030Y1563
T07
X4192Y17073
X4192Y18073
X5192Y17073
X5192Y18073
X6192Y17073
X6192Y18073
X12460Y17073
X12460Y18073
X13460Y17073
X13460Y18073
X14460Y17073
X14460Y18073
X20727Y17073
X20727Y18073
X21727Y17073
X21727Y18073
X22727Y17073
X22727Y18073
X28995Y17073
X28995Y18073
X29995Y17073
X29995Y18073
X30995Y17073
X30995Y18073
X22030Y5625
X23030Y5625
X22030Y4625
X23030Y4625
X22030Y3625
X23030Y3625
X20812Y14765
X23372Y14765
X20812Y12985
X23372Y12985
X31020Y1219
X31020Y2219
X31020Y3219
X32989Y1219
X32989Y2219
X32989Y3219
X34957Y1219
X34957Y2219
X34957Y3219
X38280Y9250
X38280Y8250
X38280Y7250
X38280Y6250
X38280Y5250
X38280Y4250
X38280Y12000
X38280Y13000
X38280Y14000
X38280Y15000
X27468Y15125
X27468Y14125
X26468Y15125
X26468Y14125
X25468Y15125
X25468Y14125
X27530Y10625
X27530Y11625
X28530Y10625
X28530Y11625
X29530Y10625
X29530Y11625
T08
X10514Y30171
X8534Y30171
X6574Y30171
X4594Y30171
X27050Y30171
X25070Y30171
X23110Y30171
X21130Y30171
X18782Y30171
X16802Y30171
X14842Y30171
X12862Y30171
X35317Y30171
X33337Y30171
X31377Y30171
X29397Y30171
X1530Y6740
X1530Y4760
X1530Y10740
X1530Y8760
X1530Y14740
X1530Y12760
X38405Y17323
X38405Y19303
T09
X38075Y30171
X1855Y1825
X1855Y30171
X38075Y1825
M30
