G75*
G70*
%OFA0B0*%
%FSLAX24Y24*%
%IPPOS*%
%LPD*%
%AMOC8*
5,1,8,0,0,1.08239X$1,22.5*
%
%ADD10C,0.0000*%
%ADD11C,0.0030*%
%ADD12C,0.0060*%
%ADD13C,0.0070*%
%ADD14C,0.0050*%
%ADD15C,0.0020*%
%ADD16C,0.0100*%
%ADD17C,0.0080*%
%ADD18C,0.0010*%
%ADD19R,0.4200X0.0300*%
%ADD20R,0.0750X0.0200*%
%ADD21R,0.0300X0.0200*%
%ADD22C,0.0160*%
%ADD23C,0.0040*%
%ADD24C,0.0200*%
%ADD25R,0.0300X0.1500*%
D10*
X000189Y000550D02*
X000189Y032046D01*
X039559Y032046D01*
X039559Y000550D01*
X000189Y000550D01*
D11*
X012554Y001002D02*
X012616Y000940D01*
X012862Y000940D01*
X012924Y001002D01*
X012924Y001125D01*
X012862Y001187D01*
X012739Y001187D01*
X012739Y001063D01*
X012616Y001187D02*
X012554Y001125D01*
X012554Y001002D01*
X012554Y001308D02*
X012924Y001555D01*
X012554Y001555D01*
X012554Y001676D02*
X012554Y001862D01*
X012616Y001923D01*
X012862Y001923D01*
X012924Y001862D01*
X012924Y001676D01*
X012554Y001676D01*
X012554Y001308D02*
X012924Y001308D01*
X013554Y001308D02*
X013554Y001493D01*
X013616Y001555D01*
X013862Y001555D01*
X013924Y001493D01*
X013924Y001308D01*
X013554Y001308D01*
X013554Y001187D02*
X013924Y001187D01*
X013924Y000940D02*
X013554Y000940D01*
X013677Y001063D01*
X013554Y001187D01*
X013677Y001676D02*
X013677Y001738D01*
X013924Y001738D01*
X013924Y001676D02*
X013924Y001800D01*
X013924Y001922D02*
X013924Y002107D01*
X013862Y002169D01*
X013801Y002107D01*
X013801Y001984D01*
X013739Y001922D01*
X013677Y001984D01*
X013677Y002169D01*
X013554Y001738D02*
X013492Y001738D01*
X014492Y001738D02*
X014554Y001738D01*
X014677Y001738D02*
X014924Y001738D01*
X014924Y001676D02*
X014924Y001800D01*
X014924Y001922D02*
X014677Y001922D01*
X014677Y001984D01*
X014739Y002045D01*
X014677Y002107D01*
X014739Y002169D01*
X014924Y002169D01*
X014924Y002290D02*
X014924Y002414D01*
X014924Y002352D02*
X014677Y002352D01*
X014677Y002290D01*
X014554Y002352D02*
X014492Y002352D01*
X014677Y002536D02*
X014677Y002659D01*
X014616Y002598D02*
X014862Y002598D01*
X014924Y002659D01*
X015492Y002352D02*
X015554Y002352D01*
X015677Y002352D02*
X015924Y002352D01*
X015924Y002290D02*
X015924Y002414D01*
X015862Y002598D02*
X015924Y002659D01*
X015862Y002598D02*
X015616Y002598D01*
X015677Y002536D02*
X015677Y002659D01*
X015677Y002352D02*
X015677Y002290D01*
X015739Y002169D02*
X015924Y002169D01*
X015924Y002045D02*
X015739Y002045D01*
X015677Y002107D01*
X015739Y002169D01*
X015739Y002045D02*
X015677Y001984D01*
X015677Y001922D01*
X015924Y001922D01*
X015924Y001800D02*
X015924Y001676D01*
X015924Y001738D02*
X015677Y001738D01*
X015677Y001676D01*
X015554Y001738D02*
X015492Y001738D01*
X015554Y001308D02*
X015924Y001308D01*
X015924Y001555D01*
X015616Y001187D02*
X015554Y001187D01*
X015616Y001187D02*
X015739Y001063D01*
X015924Y001063D01*
X015739Y001063D02*
X015616Y000940D01*
X015554Y000940D01*
X014924Y000940D02*
X014924Y001187D01*
X014924Y001308D02*
X014554Y001308D01*
X014554Y001187D02*
X014616Y001187D01*
X014862Y000940D01*
X014924Y000940D01*
X014554Y000940D02*
X014554Y001187D01*
X014924Y001308D02*
X014924Y001555D01*
X014677Y001676D02*
X014677Y001738D01*
X014739Y002045D02*
X014924Y002045D01*
X016492Y001738D02*
X016554Y001738D01*
X016677Y001738D02*
X016924Y001738D01*
X016924Y001676D02*
X016924Y001800D01*
X016924Y001922D02*
X016677Y001922D01*
X016677Y001984D01*
X016739Y002045D01*
X016677Y002107D01*
X016739Y002169D01*
X016924Y002169D01*
X016924Y002290D02*
X016924Y002414D01*
X016924Y002352D02*
X016677Y002352D01*
X016677Y002290D01*
X016554Y002352D02*
X016492Y002352D01*
X016677Y002536D02*
X016677Y002659D01*
X016616Y002598D02*
X016862Y002598D01*
X016924Y002659D01*
X016924Y002045D02*
X016739Y002045D01*
X016677Y001738D02*
X016677Y001676D01*
X016924Y001555D02*
X016924Y001308D01*
X016554Y001308D01*
X016554Y001187D02*
X016924Y000940D01*
X016924Y001187D02*
X016554Y000940D01*
X017554Y001002D02*
X017616Y000940D01*
X017862Y000940D01*
X017924Y001002D01*
X017924Y001125D01*
X017862Y001187D01*
X017739Y001187D01*
X017739Y001063D01*
X017616Y001187D02*
X017554Y001125D01*
X017554Y001002D01*
X017554Y001308D02*
X017924Y001555D01*
X017554Y001555D01*
X017554Y001676D02*
X017554Y001862D01*
X017616Y001923D01*
X017862Y001923D01*
X017924Y001862D01*
X017924Y001676D01*
X017554Y001676D01*
X017554Y001308D02*
X017924Y001308D01*
X018554Y001308D02*
X018924Y001555D01*
X018554Y001555D01*
X018554Y001676D02*
X018554Y001862D01*
X018616Y001923D01*
X018862Y001923D01*
X018924Y001862D01*
X018924Y001676D01*
X018554Y001676D01*
X018554Y001308D02*
X018924Y001308D01*
X018862Y001187D02*
X018739Y001187D01*
X018739Y001063D01*
X018616Y000940D02*
X018862Y000940D01*
X018924Y001002D01*
X018924Y001125D01*
X018862Y001187D01*
X018616Y001187D02*
X018554Y001125D01*
X018554Y001002D01*
X018616Y000940D01*
X019554Y001002D02*
X019616Y000940D01*
X019677Y000940D01*
X019739Y001002D01*
X019739Y001125D01*
X019801Y001187D01*
X019862Y001187D01*
X019924Y001125D01*
X019924Y001002D01*
X019862Y000940D01*
X019554Y001002D02*
X019554Y001125D01*
X019616Y001187D01*
X019677Y001308D02*
X019677Y001432D01*
X019616Y001370D02*
X019862Y001370D01*
X019924Y001432D01*
X019862Y001554D02*
X019801Y001615D01*
X019801Y001801D01*
X019739Y001801D02*
X019924Y001801D01*
X019924Y001615D01*
X019862Y001554D01*
X019677Y001615D02*
X019677Y001739D01*
X019739Y001801D01*
X019677Y001922D02*
X019924Y001922D01*
X019801Y001922D02*
X019677Y002045D01*
X019677Y002107D01*
X019677Y002229D02*
X019677Y002352D01*
X019616Y002291D02*
X019862Y002291D01*
X019924Y002352D01*
X019801Y004440D02*
X019924Y004563D01*
X019801Y004687D01*
X019554Y004687D01*
X019616Y004808D02*
X019862Y004808D01*
X019924Y004870D01*
X019924Y004993D01*
X019862Y005055D01*
X019862Y005176D02*
X019924Y005238D01*
X019924Y005362D01*
X019862Y005423D01*
X019616Y005423D02*
X019554Y005362D01*
X019554Y005238D01*
X019616Y005176D01*
X019862Y005176D01*
X019616Y005055D02*
X019554Y004993D01*
X019554Y004870D01*
X019616Y004808D01*
X019554Y004440D02*
X019801Y004440D01*
X018924Y004502D02*
X018924Y004625D01*
X018862Y004687D01*
X018739Y004687D01*
X018739Y004563D01*
X018616Y004440D02*
X018862Y004440D01*
X018924Y004502D01*
X018616Y004440D02*
X018554Y004502D01*
X018554Y004625D01*
X018616Y004687D01*
X018739Y004808D02*
X018739Y005055D01*
X018801Y005176D02*
X018801Y005362D01*
X018739Y005423D01*
X018616Y005423D01*
X018554Y005362D01*
X018554Y005176D01*
X018924Y005176D01*
X018801Y005300D02*
X018924Y005423D01*
X018862Y005545D02*
X018739Y005545D01*
X018677Y005607D01*
X018677Y005730D01*
X018739Y005792D01*
X018801Y005792D01*
X018801Y005545D01*
X018862Y005545D02*
X018924Y005607D01*
X018924Y005730D01*
X018924Y005913D02*
X018924Y006098D01*
X018862Y006160D01*
X018801Y006098D01*
X018801Y005975D01*
X018739Y005913D01*
X018677Y005975D01*
X018677Y006160D01*
X018739Y006281D02*
X018677Y006343D01*
X018677Y006467D01*
X018739Y006528D01*
X018801Y006528D01*
X018801Y006281D01*
X018862Y006281D02*
X018739Y006281D01*
X018862Y006281D02*
X018924Y006343D01*
X018924Y006467D01*
X018862Y006711D02*
X018616Y006711D01*
X018677Y006650D02*
X018677Y006773D01*
X018862Y006711D02*
X018924Y006773D01*
X017924Y006711D02*
X017862Y006650D01*
X017739Y006650D01*
X017677Y006711D01*
X017677Y006835D01*
X017739Y006897D01*
X017862Y006897D01*
X017924Y006835D01*
X017924Y006711D01*
X017924Y006528D02*
X017554Y006528D01*
X017739Y006528D02*
X017739Y006281D01*
X017739Y006160D02*
X017739Y005913D01*
X017677Y005792D02*
X017677Y005607D01*
X017739Y005545D01*
X017862Y005545D01*
X017924Y005607D01*
X017924Y005792D01*
X017554Y005792D01*
X017739Y005423D02*
X017801Y005423D01*
X017801Y005176D01*
X017862Y005176D02*
X017739Y005176D01*
X017677Y005238D01*
X017677Y005362D01*
X017739Y005423D01*
X017924Y005362D02*
X017924Y005238D01*
X017862Y005176D01*
X017801Y005055D02*
X017801Y004808D01*
X017862Y004808D02*
X017739Y004808D01*
X017677Y004870D01*
X017677Y004993D01*
X017739Y005055D01*
X017801Y005055D01*
X017924Y004993D02*
X017924Y004870D01*
X017862Y004808D01*
X017739Y004563D02*
X017739Y004440D01*
X017554Y004440D02*
X017554Y004687D01*
X017554Y004440D02*
X017924Y004440D01*
X016924Y004502D02*
X016862Y004440D01*
X016924Y004502D02*
X016924Y004625D01*
X016862Y004687D01*
X016801Y004687D01*
X016739Y004625D01*
X016739Y004502D01*
X016677Y004440D01*
X016616Y004440D01*
X016554Y004502D01*
X016554Y004625D01*
X016616Y004687D01*
X016554Y004808D02*
X016554Y004993D01*
X016616Y005055D01*
X016739Y005055D01*
X016801Y004993D01*
X016801Y004808D01*
X016924Y004808D02*
X016554Y004808D01*
X016739Y005176D02*
X016739Y005423D01*
X016739Y005545D02*
X016739Y005668D01*
X016554Y005792D02*
X016554Y005545D01*
X016924Y005545D01*
X016924Y005792D01*
X016924Y005913D02*
X016677Y005913D01*
X016677Y006098D01*
X016739Y006160D01*
X016924Y006160D01*
X016862Y006281D02*
X016801Y006343D01*
X016801Y006528D01*
X016739Y006528D02*
X016924Y006528D01*
X016924Y006343D01*
X016862Y006281D01*
X016677Y006343D02*
X016677Y006467D01*
X016739Y006528D01*
X016677Y006650D02*
X016677Y006835D01*
X016739Y006897D01*
X016862Y006897D01*
X016924Y006835D01*
X016924Y006650D01*
X016554Y006650D01*
X016554Y007018D02*
X016554Y007080D01*
X016924Y007080D01*
X016924Y007141D02*
X016924Y007018D01*
X016862Y007264D02*
X016739Y007264D01*
X016677Y007325D01*
X016677Y007449D01*
X016739Y007510D01*
X016801Y007510D01*
X016801Y007264D01*
X016862Y007264D02*
X016924Y007325D01*
X016924Y007449D01*
X017554Y007510D02*
X017924Y007510D01*
X017924Y007325D01*
X017862Y007264D01*
X017739Y007264D01*
X017677Y007325D01*
X017677Y007510D01*
X017924Y007141D02*
X017924Y007018D01*
X017924Y007080D02*
X017554Y007080D01*
X017554Y007018D01*
X017554Y006281D02*
X017924Y006281D01*
X015924Y006159D02*
X015677Y006159D01*
X015677Y006282D02*
X015801Y006159D01*
X015924Y006037D02*
X015924Y005913D01*
X015924Y005975D02*
X015677Y005975D01*
X015677Y005913D01*
X015616Y005792D02*
X015554Y005730D01*
X015554Y005545D01*
X015924Y005545D01*
X015924Y005730D01*
X015862Y005792D01*
X015616Y005792D01*
X015554Y005975D02*
X015492Y005975D01*
X015677Y006282D02*
X015677Y006344D01*
X014924Y006343D02*
X014677Y006467D01*
X014739Y006588D02*
X014677Y006650D01*
X014677Y006774D01*
X014739Y006835D01*
X014801Y006835D01*
X014801Y006588D01*
X014862Y006588D02*
X014739Y006588D01*
X014862Y006588D02*
X014924Y006650D01*
X014924Y006774D01*
X014862Y006957D02*
X014739Y006957D01*
X014677Y007018D01*
X014677Y007204D01*
X014554Y007204D02*
X014924Y007204D01*
X014924Y007018D01*
X014862Y006957D01*
X014924Y006343D02*
X014677Y006220D01*
X014677Y006098D02*
X014677Y006037D01*
X014801Y005913D01*
X014801Y005792D02*
X014739Y005792D01*
X014677Y005730D01*
X014677Y005607D01*
X014739Y005545D01*
X014862Y005545D01*
X014924Y005607D01*
X014924Y005730D01*
X014801Y005792D02*
X014801Y005545D01*
X014862Y005423D02*
X014801Y005362D01*
X014801Y005238D01*
X014739Y005176D01*
X014677Y005238D01*
X014677Y005423D01*
X014862Y005423D02*
X014924Y005362D01*
X014924Y005176D01*
X014801Y005055D02*
X014801Y004808D01*
X014862Y004808D02*
X014739Y004808D01*
X014677Y004870D01*
X014677Y004993D01*
X014739Y005055D01*
X014801Y005055D01*
X014924Y004993D02*
X014924Y004870D01*
X014862Y004808D01*
X014924Y004687D02*
X014801Y004563D01*
X014801Y004625D02*
X014801Y004440D01*
X014924Y004440D02*
X014554Y004440D01*
X014554Y004625D01*
X014616Y004687D01*
X014739Y004687D01*
X014801Y004625D01*
X015554Y004625D02*
X015554Y004502D01*
X015616Y004440D01*
X015677Y004440D01*
X015739Y004502D01*
X015739Y004625D01*
X015801Y004687D01*
X015862Y004687D01*
X015924Y004625D01*
X015924Y004502D01*
X015862Y004440D01*
X015616Y004687D02*
X015554Y004625D01*
X015554Y004808D02*
X015554Y004993D01*
X015616Y005055D01*
X015739Y005055D01*
X015801Y004993D01*
X015801Y004808D01*
X015924Y004808D02*
X015554Y004808D01*
X015739Y005176D02*
X015739Y005423D01*
X014924Y005913D02*
X014677Y005913D01*
X013924Y005913D02*
X013924Y006037D01*
X013924Y005975D02*
X013677Y005975D01*
X013677Y005913D01*
X013554Y005975D02*
X013492Y005975D01*
X013554Y005792D02*
X013924Y005792D01*
X013924Y005545D02*
X013554Y005545D01*
X013677Y005668D01*
X013554Y005792D01*
X013739Y006159D02*
X013677Y006220D01*
X013677Y006406D01*
X013677Y006527D02*
X013677Y006650D01*
X013616Y006589D02*
X013862Y006589D01*
X013924Y006650D01*
X013862Y006406D02*
X013801Y006344D01*
X013801Y006220D01*
X013739Y006159D01*
X013924Y006159D02*
X013924Y006344D01*
X013862Y006406D01*
X012924Y006344D02*
X012862Y006406D01*
X012739Y006406D01*
X012677Y006344D01*
X012677Y006220D01*
X012739Y006159D01*
X012862Y006159D01*
X012924Y006220D01*
X012924Y006344D01*
X012862Y006527D02*
X012739Y006527D01*
X012677Y006589D01*
X012677Y006712D01*
X012739Y006774D01*
X012862Y006774D01*
X012924Y006712D01*
X012924Y006589D01*
X012862Y006527D01*
X012862Y006895D02*
X012739Y006895D01*
X012677Y006957D01*
X012677Y007142D01*
X012554Y007142D02*
X012924Y007142D01*
X012924Y006957D01*
X012862Y006895D01*
X012924Y006037D02*
X012924Y005913D01*
X012924Y005975D02*
X012554Y005975D01*
X012554Y005913D01*
X012554Y005792D02*
X012554Y005545D01*
X012924Y005545D01*
X012739Y005545D02*
X012739Y005668D01*
X012739Y005423D02*
X012739Y005176D01*
X012739Y005055D02*
X012677Y004993D01*
X012677Y004870D01*
X012739Y004808D01*
X012862Y004808D01*
X012924Y004870D01*
X012924Y004993D01*
X012862Y005055D01*
X012739Y005055D01*
X012616Y004687D02*
X012554Y004625D01*
X012554Y004502D01*
X012616Y004440D01*
X012862Y004440D01*
X012924Y004502D01*
X012924Y004625D01*
X012862Y004687D01*
X013554Y004625D02*
X013554Y004502D01*
X013616Y004440D01*
X013862Y004440D01*
X013924Y004502D01*
X013924Y004625D01*
X013862Y004687D01*
X013862Y004808D02*
X013924Y004870D01*
X013924Y004993D01*
X013862Y005055D01*
X013616Y005055D01*
X013554Y004993D01*
X013554Y004870D01*
X013616Y004808D01*
X013862Y004808D01*
X013616Y004687D02*
X013554Y004625D01*
X013739Y005176D02*
X013739Y005423D01*
X026429Y005423D02*
X026429Y005176D01*
X026429Y005300D02*
X026799Y005300D01*
X026737Y005055D02*
X026676Y005055D01*
X026614Y004993D01*
X026614Y004870D01*
X026552Y004808D01*
X026491Y004808D01*
X026429Y004870D01*
X026429Y004993D01*
X026491Y005055D01*
X026737Y005055D02*
X026799Y004993D01*
X026799Y004870D01*
X026737Y004808D01*
X026799Y004687D02*
X026676Y004563D01*
X026676Y004625D02*
X026676Y004440D01*
X026799Y004440D02*
X026429Y004440D01*
X026429Y004625D01*
X026491Y004687D01*
X026614Y004687D01*
X026676Y004625D01*
X027554Y004625D02*
X027554Y004502D01*
X027616Y004440D01*
X027677Y004440D01*
X027739Y004502D01*
X027739Y004625D01*
X027801Y004687D01*
X027862Y004687D01*
X027924Y004625D01*
X027924Y004502D01*
X027862Y004440D01*
X027616Y004687D02*
X027554Y004625D01*
X027616Y004808D02*
X027862Y004808D01*
X027924Y004870D01*
X027924Y004993D01*
X027862Y005055D01*
X027801Y005176D02*
X027554Y005423D01*
X027554Y005176D02*
X027924Y005176D01*
X027739Y005238D02*
X027924Y005423D01*
X027616Y005055D02*
X027554Y004993D01*
X027554Y004870D01*
X027616Y004808D01*
X028554Y004808D02*
X028554Y004932D01*
X028554Y004870D02*
X028924Y004870D01*
X028924Y004808D02*
X028924Y004932D01*
X028862Y005054D02*
X028924Y005115D01*
X028924Y005239D01*
X028862Y005301D01*
X028801Y005301D01*
X028739Y005239D01*
X028739Y005115D01*
X028677Y005054D01*
X028616Y005054D01*
X028554Y005115D01*
X028554Y005239D01*
X028616Y005301D01*
X028616Y005422D02*
X028862Y005422D01*
X028924Y005484D01*
X028924Y005607D01*
X028862Y005669D01*
X028616Y005669D01*
X028554Y005607D01*
X028554Y005484D01*
X028616Y005422D01*
X028554Y004687D02*
X028924Y004687D01*
X028924Y004440D02*
X028554Y004440D01*
X028677Y004563D01*
X028554Y004687D01*
X030992Y004988D02*
X031054Y004988D01*
X031177Y004988D02*
X031424Y004988D01*
X031424Y004926D02*
X031424Y005050D01*
X031424Y005172D02*
X031177Y005172D01*
X031177Y005234D01*
X031239Y005295D01*
X031177Y005357D01*
X031239Y005419D01*
X031424Y005419D01*
X031424Y005540D02*
X031424Y005664D01*
X031424Y005602D02*
X031177Y005602D01*
X031177Y005540D01*
X031054Y005602D02*
X030992Y005602D01*
X031177Y005786D02*
X031177Y005909D01*
X031116Y005848D02*
X031362Y005848D01*
X031424Y005909D01*
X031424Y005295D02*
X031239Y005295D01*
X031177Y004988D02*
X031177Y004926D01*
X031424Y004805D02*
X031424Y004558D01*
X031054Y004558D01*
X031054Y004437D02*
X031424Y004190D01*
X031424Y004437D02*
X031054Y004190D01*
X032554Y004190D02*
X032616Y004190D01*
X032739Y004313D01*
X032924Y004313D01*
X032739Y004313D02*
X032616Y004437D01*
X032554Y004437D01*
X032554Y004558D02*
X032924Y004558D01*
X032924Y004805D01*
X032924Y004926D02*
X032924Y005050D01*
X032924Y004988D02*
X032677Y004988D01*
X032677Y004926D01*
X032554Y004988D02*
X032492Y004988D01*
X032677Y005172D02*
X032677Y005234D01*
X032739Y005295D01*
X032677Y005357D01*
X032739Y005419D01*
X032924Y005419D01*
X032924Y005540D02*
X032924Y005664D01*
X032924Y005602D02*
X032677Y005602D01*
X032677Y005540D01*
X032554Y005602D02*
X032492Y005602D01*
X032677Y005786D02*
X032677Y005909D01*
X032616Y005848D02*
X032862Y005848D01*
X032924Y005909D01*
X032924Y005295D02*
X032739Y005295D01*
X032677Y005172D02*
X032924Y005172D01*
X033867Y004988D02*
X033929Y004988D01*
X034052Y004988D02*
X034299Y004988D01*
X034299Y004926D02*
X034299Y005050D01*
X034299Y005172D02*
X034052Y005172D01*
X034052Y005234D01*
X034114Y005295D01*
X034052Y005357D01*
X034114Y005419D01*
X034299Y005419D01*
X034299Y005540D02*
X034299Y005664D01*
X034299Y005602D02*
X034052Y005602D01*
X034052Y005540D01*
X033929Y005602D02*
X033867Y005602D01*
X034052Y005786D02*
X034052Y005909D01*
X033991Y005848D02*
X034237Y005848D01*
X034299Y005909D01*
X034299Y005295D02*
X034114Y005295D01*
X034052Y004988D02*
X034052Y004926D01*
X034299Y004805D02*
X034299Y004558D01*
X033929Y004558D01*
X033929Y004437D02*
X033991Y004437D01*
X034237Y004190D01*
X034299Y004190D01*
X034299Y004437D01*
X033929Y004437D02*
X033929Y004190D01*
X035079Y003748D02*
X035079Y003502D01*
X035141Y003440D01*
X035264Y003440D01*
X035326Y003502D01*
X035326Y003625D01*
X035203Y003625D01*
X035326Y003748D02*
X035264Y003810D01*
X035141Y003810D01*
X035079Y003748D01*
X035448Y003810D02*
X035448Y003440D01*
X035694Y003440D02*
X035448Y003810D01*
X035694Y003810D02*
X035694Y003440D01*
X035816Y003440D02*
X036001Y003440D01*
X036063Y003502D01*
X036063Y003748D01*
X036001Y003810D01*
X035816Y003810D01*
X035816Y003440D01*
X035755Y002810D02*
X035693Y002748D01*
X035693Y002502D01*
X035755Y002440D01*
X035878Y002440D01*
X035940Y002502D01*
X035940Y002625D01*
X035817Y002625D01*
X035940Y002748D02*
X035878Y002810D01*
X035755Y002810D01*
X035571Y002810D02*
X035448Y002810D01*
X035509Y002810D02*
X035509Y002440D01*
X035448Y002440D02*
X035571Y002440D01*
X035326Y002502D02*
X035264Y002440D01*
X035141Y002440D01*
X035079Y002502D01*
X035141Y002625D02*
X035079Y002687D01*
X035079Y002748D01*
X035141Y002810D01*
X035264Y002810D01*
X035326Y002748D01*
X035264Y002625D02*
X035326Y002563D01*
X035326Y002502D01*
X035264Y002625D02*
X035141Y002625D01*
X035079Y001685D02*
X035079Y001438D01*
X035203Y001315D01*
X035326Y001438D01*
X035326Y001685D01*
X035448Y001623D02*
X035448Y001377D01*
X035509Y001315D01*
X035633Y001315D01*
X035694Y001377D01*
X035816Y001377D02*
X035878Y001315D01*
X036001Y001315D01*
X036063Y001377D01*
X036063Y001623D02*
X036001Y001685D01*
X035878Y001685D01*
X035816Y001623D01*
X035816Y001377D01*
X035694Y001623D02*
X035633Y001685D01*
X035509Y001685D01*
X035448Y001623D01*
X029174Y001738D02*
X029174Y001862D01*
X029112Y001923D01*
X029174Y001738D02*
X029112Y001676D01*
X028866Y001676D01*
X028804Y001738D01*
X028804Y001862D01*
X028866Y001923D01*
X028866Y001555D02*
X028804Y001493D01*
X028804Y001370D01*
X028866Y001308D01*
X029112Y001308D01*
X029174Y001370D01*
X029174Y001493D01*
X029112Y001555D01*
X029051Y001187D02*
X028804Y001187D01*
X029051Y001187D02*
X029174Y001063D01*
X029051Y000940D01*
X028804Y000940D01*
X028049Y001062D02*
X027679Y001062D01*
X027802Y000938D01*
X027679Y000815D01*
X028049Y000815D01*
X027987Y001183D02*
X027741Y001183D01*
X027679Y001245D01*
X027679Y001368D01*
X027741Y001430D01*
X027987Y001430D01*
X028049Y001368D01*
X028049Y001245D01*
X027987Y001183D01*
X027987Y001551D02*
X028049Y001613D01*
X028049Y001737D01*
X027987Y001798D01*
X027926Y001798D01*
X027864Y001737D01*
X027864Y001613D01*
X027802Y001551D01*
X027741Y001551D01*
X027679Y001613D01*
X027679Y001737D01*
X027741Y001798D01*
X027679Y001920D02*
X027679Y002043D01*
X027679Y001982D02*
X028049Y001982D01*
X028049Y002043D02*
X028049Y001920D01*
X026924Y001862D02*
X026862Y001923D01*
X026616Y001923D01*
X026554Y001862D01*
X026554Y001676D01*
X026924Y001676D01*
X026924Y001862D01*
X026924Y001555D02*
X026554Y001555D01*
X026554Y001308D02*
X026924Y001555D01*
X026924Y001308D02*
X026554Y001308D01*
X026616Y001187D02*
X026554Y001125D01*
X026554Y001002D01*
X026616Y000940D01*
X026862Y000940D01*
X026924Y001002D01*
X026924Y001125D01*
X026862Y001187D01*
X026739Y001187D01*
X026739Y001063D01*
D12*
X026564Y002300D02*
X026314Y002550D01*
X026314Y004050D01*
X026564Y004300D01*
X027064Y004300D01*
X027314Y004050D01*
X027314Y002550D01*
X027064Y002300D01*
X026564Y002300D01*
X027314Y002550D02*
X027564Y002300D01*
X028064Y002300D01*
X028314Y002550D01*
X028314Y004050D01*
X028064Y004300D01*
X027564Y004300D01*
X027314Y004050D01*
X028314Y004050D02*
X028564Y004300D01*
X029064Y004300D01*
X029314Y004050D01*
X029314Y002550D01*
X029064Y002300D01*
X028564Y002300D01*
X028314Y002550D01*
X030689Y002300D02*
X030689Y002800D01*
X030939Y003050D01*
X030689Y003300D01*
X030689Y003800D01*
X030939Y004050D01*
X031439Y004050D01*
X031689Y003800D01*
X031689Y003300D01*
X031439Y003050D01*
X031689Y002800D01*
X031689Y002300D01*
X031439Y002050D01*
X031689Y001800D01*
X031689Y001300D01*
X031439Y001050D01*
X030939Y001050D01*
X030689Y001300D01*
X030689Y001800D01*
X030939Y002050D01*
X030689Y002300D01*
X030939Y002050D02*
X031439Y002050D01*
X032189Y002300D02*
X032189Y002800D01*
X032439Y003050D01*
X032189Y003300D01*
X032189Y003800D01*
X032439Y004050D01*
X032939Y004050D01*
X033189Y003800D01*
X033189Y003300D01*
X032939Y003050D01*
X033189Y002800D01*
X033189Y002300D01*
X032939Y002050D01*
X033189Y001800D01*
X033189Y001300D01*
X032939Y001050D01*
X032439Y001050D01*
X032189Y001300D01*
X032189Y001800D01*
X032439Y002050D01*
X032189Y002300D01*
X032439Y002050D02*
X032939Y002050D01*
X033689Y002300D02*
X033689Y002800D01*
X033939Y003050D01*
X033689Y003300D01*
X033689Y003800D01*
X033939Y004050D01*
X034439Y004050D01*
X034689Y003800D01*
X034689Y003300D01*
X034439Y003050D01*
X034689Y002800D01*
X034689Y002300D01*
X034439Y002050D01*
X034689Y001800D01*
X034689Y001300D01*
X034439Y001050D01*
X033939Y001050D01*
X033689Y001300D01*
X033689Y001800D01*
X033939Y002050D01*
X033689Y002300D01*
X033939Y002050D02*
X034439Y002050D01*
X034439Y003050D02*
X033939Y003050D01*
X032939Y003050D02*
X032439Y003050D01*
X031439Y003050D02*
X030939Y003050D01*
X034589Y006450D02*
X034589Y006550D01*
X034639Y006600D01*
X034639Y007500D01*
X034589Y007550D01*
X034589Y007650D01*
X034591Y007667D01*
X034595Y007684D01*
X034602Y007700D01*
X034612Y007714D01*
X034625Y007727D01*
X034639Y007737D01*
X034655Y007744D01*
X034672Y007748D01*
X034689Y007750D01*
X035189Y007750D02*
X035206Y007748D01*
X035223Y007744D01*
X035239Y007737D01*
X035253Y007727D01*
X035266Y007714D01*
X035276Y007700D01*
X035283Y007684D01*
X035287Y007667D01*
X035289Y007650D01*
X035289Y007550D01*
X035239Y007500D01*
X035239Y006600D01*
X035289Y006550D01*
X035289Y006450D01*
X035287Y006433D01*
X035283Y006416D01*
X035276Y006400D01*
X035266Y006386D01*
X035253Y006373D01*
X035239Y006363D01*
X035223Y006356D01*
X035206Y006352D01*
X035189Y006350D01*
X034689Y006350D02*
X034672Y006352D01*
X034655Y006356D01*
X034639Y006363D01*
X034625Y006373D01*
X034612Y006386D01*
X034602Y006400D01*
X034595Y006416D01*
X034591Y006433D01*
X034589Y006450D01*
X031339Y006675D02*
X029039Y006675D01*
X029039Y010675D01*
X029789Y010675D01*
X029791Y010636D01*
X029797Y010597D01*
X029806Y010559D01*
X029819Y010522D01*
X029836Y010486D01*
X029856Y010453D01*
X029880Y010421D01*
X029906Y010392D01*
X029935Y010366D01*
X029967Y010342D01*
X030000Y010322D01*
X030036Y010305D01*
X030073Y010292D01*
X030111Y010283D01*
X030150Y010277D01*
X030189Y010275D01*
X030228Y010277D01*
X030267Y010283D01*
X030305Y010292D01*
X030342Y010305D01*
X030378Y010322D01*
X030411Y010342D01*
X030443Y010366D01*
X030472Y010392D01*
X030498Y010421D01*
X030522Y010453D01*
X030542Y010486D01*
X030559Y010522D01*
X030572Y010559D01*
X030581Y010597D01*
X030587Y010636D01*
X030589Y010675D01*
X031339Y010675D01*
X031339Y006675D01*
X025039Y004650D02*
X025039Y004550D01*
X024989Y004500D01*
X024989Y003600D01*
X025039Y003550D01*
X025039Y003450D01*
X025037Y003433D01*
X025033Y003416D01*
X025026Y003400D01*
X025016Y003386D01*
X025003Y003373D01*
X024989Y003363D01*
X024973Y003356D01*
X024956Y003352D01*
X024939Y003350D01*
X024439Y003350D02*
X024422Y003352D01*
X024405Y003356D01*
X024389Y003363D01*
X024375Y003373D01*
X024362Y003386D01*
X024352Y003400D01*
X024345Y003416D01*
X024341Y003433D01*
X024339Y003450D01*
X024339Y003550D01*
X024389Y003600D01*
X024389Y004500D01*
X024339Y004550D01*
X024339Y004650D01*
X024341Y004667D01*
X024345Y004684D01*
X024352Y004700D01*
X024362Y004714D01*
X024375Y004727D01*
X024389Y004737D01*
X024405Y004744D01*
X024422Y004748D01*
X024439Y004750D01*
X024939Y004750D02*
X024956Y004748D01*
X024973Y004744D01*
X024989Y004737D01*
X025003Y004727D01*
X025016Y004714D01*
X025026Y004700D01*
X025033Y004684D01*
X025037Y004667D01*
X025039Y004650D01*
X024039Y004150D02*
X024039Y004050D01*
X023989Y004000D01*
X023989Y003100D01*
X024039Y003050D01*
X024039Y002950D01*
X024037Y002933D01*
X024033Y002916D01*
X024026Y002900D01*
X024016Y002886D01*
X024003Y002873D01*
X023989Y002863D01*
X023973Y002856D01*
X023956Y002852D01*
X023939Y002850D01*
X023439Y002850D02*
X023422Y002852D01*
X023405Y002856D01*
X023389Y002863D01*
X023375Y002873D01*
X023362Y002886D01*
X023352Y002900D01*
X023345Y002916D01*
X023341Y002933D01*
X023339Y002950D01*
X023339Y003050D01*
X023389Y003100D01*
X023389Y004000D01*
X023339Y004050D01*
X023339Y004150D01*
X023341Y004167D01*
X023345Y004184D01*
X023352Y004200D01*
X023362Y004214D01*
X023375Y004227D01*
X023389Y004237D01*
X023405Y004244D01*
X023422Y004248D01*
X023439Y004250D01*
X023939Y004250D02*
X023956Y004248D01*
X023973Y004244D01*
X023989Y004237D01*
X024003Y004227D01*
X024016Y004214D01*
X024026Y004200D01*
X024033Y004184D01*
X024037Y004167D01*
X024039Y004150D01*
X022339Y006350D02*
X022339Y008750D01*
X022337Y008800D01*
X022331Y008849D01*
X022322Y008898D01*
X022309Y008946D01*
X022292Y008993D01*
X022272Y009038D01*
X022248Y009082D01*
X022221Y009124D01*
X022190Y009164D01*
X022157Y009201D01*
X022121Y009235D01*
X022083Y009267D01*
X022042Y009296D01*
X022000Y009321D01*
X021955Y009343D01*
X021909Y009362D01*
X021861Y009377D01*
X021813Y009388D01*
X021764Y009396D01*
X021714Y009400D01*
X021664Y009400D01*
X021614Y009396D01*
X021565Y009388D01*
X021517Y009377D01*
X021469Y009362D01*
X021423Y009343D01*
X021378Y009321D01*
X021336Y009296D01*
X021295Y009267D01*
X021257Y009235D01*
X021221Y009201D01*
X021188Y009164D01*
X021157Y009124D01*
X021130Y009082D01*
X021106Y009038D01*
X021086Y008993D01*
X021069Y008946D01*
X021056Y008898D01*
X021047Y008849D01*
X021041Y008800D01*
X021039Y008750D01*
X021039Y006350D01*
X021041Y006300D01*
X021047Y006251D01*
X021056Y006202D01*
X021069Y006154D01*
X021086Y006107D01*
X021106Y006062D01*
X021130Y006018D01*
X021157Y005976D01*
X021188Y005936D01*
X021221Y005899D01*
X021257Y005865D01*
X021295Y005833D01*
X021336Y005804D01*
X021378Y005779D01*
X021423Y005757D01*
X021469Y005738D01*
X021517Y005723D01*
X021565Y005712D01*
X021614Y005704D01*
X021664Y005700D01*
X021714Y005700D01*
X021764Y005704D01*
X021813Y005712D01*
X021861Y005723D01*
X021909Y005738D01*
X021955Y005757D01*
X022000Y005779D01*
X022042Y005804D01*
X022083Y005833D01*
X022121Y005865D01*
X022157Y005899D01*
X022190Y005936D01*
X022221Y005976D01*
X022248Y006018D01*
X022272Y006062D01*
X022292Y006107D01*
X022309Y006154D01*
X022322Y006202D01*
X022331Y006251D01*
X022337Y006300D01*
X022339Y006350D01*
X021689Y007050D02*
X021689Y007300D01*
X021989Y007300D01*
X021989Y007450D02*
X021389Y007450D01*
X021389Y007650D01*
X021989Y007650D01*
X021989Y007450D01*
X021689Y007300D02*
X021389Y007300D01*
X021389Y007800D02*
X021689Y007800D01*
X021689Y008050D01*
X021689Y007800D02*
X021989Y007800D01*
X024489Y010950D02*
X024489Y013150D01*
X009889Y013150D01*
X009889Y012300D01*
X009919Y012298D01*
X009949Y012293D01*
X009978Y012284D01*
X010005Y012271D01*
X010031Y012256D01*
X010055Y012237D01*
X010076Y012216D01*
X010095Y012192D01*
X010110Y012166D01*
X010123Y012139D01*
X010132Y012110D01*
X010137Y012080D01*
X010139Y012050D01*
X010137Y012020D01*
X010132Y011990D01*
X010123Y011961D01*
X010110Y011934D01*
X010095Y011908D01*
X010076Y011884D01*
X010055Y011863D01*
X010031Y011844D01*
X010005Y011829D01*
X009978Y011816D01*
X009949Y011807D01*
X009919Y011802D01*
X009889Y011800D01*
X009889Y010950D01*
X024489Y010950D01*
X028539Y012550D02*
X029289Y012550D01*
X029291Y012589D01*
X029297Y012628D01*
X029306Y012666D01*
X029319Y012703D01*
X029336Y012739D01*
X029356Y012772D01*
X029380Y012804D01*
X029406Y012833D01*
X029435Y012859D01*
X029467Y012883D01*
X029500Y012903D01*
X029536Y012920D01*
X029573Y012933D01*
X029611Y012942D01*
X029650Y012948D01*
X029689Y012950D01*
X029728Y012948D01*
X029767Y012942D01*
X029805Y012933D01*
X029842Y012920D01*
X029878Y012903D01*
X029911Y012883D01*
X029943Y012859D01*
X029972Y012833D01*
X029998Y012804D01*
X030022Y012772D01*
X030042Y012739D01*
X030059Y012703D01*
X030072Y012666D01*
X030081Y012628D01*
X030087Y012589D01*
X030089Y012550D01*
X030839Y012550D01*
X030839Y016550D01*
X028539Y016550D01*
X028539Y012550D01*
X033214Y013450D02*
X033214Y013550D01*
X033264Y013600D01*
X033264Y014500D01*
X033214Y014550D01*
X033214Y014650D01*
X033216Y014667D01*
X033220Y014684D01*
X033227Y014700D01*
X033237Y014714D01*
X033250Y014727D01*
X033264Y014737D01*
X033280Y014744D01*
X033297Y014748D01*
X033314Y014750D01*
X033814Y014750D02*
X033831Y014748D01*
X033848Y014744D01*
X033864Y014737D01*
X033878Y014727D01*
X033891Y014714D01*
X033901Y014700D01*
X033908Y014684D01*
X033912Y014667D01*
X033914Y014650D01*
X033914Y014550D01*
X033864Y014500D01*
X033864Y013600D01*
X033914Y013550D01*
X033914Y013450D01*
X033912Y013433D01*
X033908Y013416D01*
X033901Y013400D01*
X033891Y013386D01*
X033878Y013373D01*
X033864Y013363D01*
X033848Y013356D01*
X033831Y013352D01*
X033814Y013350D01*
X033314Y013350D02*
X033297Y013352D01*
X033280Y013356D01*
X033264Y013363D01*
X033250Y013373D01*
X033237Y013386D01*
X033227Y013400D01*
X033220Y013416D01*
X033216Y013433D01*
X033214Y013450D01*
X037689Y013150D02*
X037789Y013050D01*
X037689Y012950D01*
X037689Y012150D01*
X037789Y012050D01*
X037689Y011950D01*
X037689Y011150D01*
X037789Y011050D01*
X037689Y010950D01*
X037689Y010050D01*
X038689Y010050D01*
X038689Y010950D01*
X038589Y011050D01*
X038689Y011150D01*
X038689Y011950D01*
X038589Y012050D01*
X038689Y012150D01*
X038689Y012950D01*
X038589Y013050D01*
X038689Y013150D01*
X038689Y013950D01*
X038589Y014050D01*
X038689Y014150D01*
X038689Y014950D01*
X038589Y015050D01*
X038689Y015150D01*
X038689Y016050D01*
X037689Y016050D01*
X037689Y015150D01*
X037789Y015050D01*
X037689Y014950D01*
X037689Y014150D01*
X037789Y014050D01*
X037689Y013950D01*
X037689Y013150D01*
X030689Y017425D02*
X030439Y017175D01*
X029939Y017175D01*
X029689Y017425D01*
X029689Y018925D01*
X029939Y019175D01*
X030439Y019175D01*
X030689Y018925D01*
X030689Y017425D01*
X029689Y017425D02*
X029439Y017175D01*
X028939Y017175D01*
X028689Y017425D01*
X028689Y018925D01*
X028939Y019175D01*
X029439Y019175D01*
X029689Y018925D01*
X028689Y018925D02*
X028439Y019175D01*
X027939Y019175D01*
X027689Y018925D01*
X027689Y017425D01*
X027939Y017175D01*
X028439Y017175D01*
X028689Y017425D01*
X022564Y017425D02*
X022564Y018925D01*
X022314Y019175D01*
X021814Y019175D01*
X021564Y018925D01*
X021564Y017425D01*
X021814Y017175D01*
X022314Y017175D01*
X022564Y017425D01*
X021564Y017425D02*
X021314Y017175D01*
X020814Y017175D01*
X020564Y017425D01*
X020564Y018925D01*
X020814Y019175D01*
X021314Y019175D01*
X021564Y018925D01*
X020564Y018925D02*
X020314Y019175D01*
X019814Y019175D01*
X019564Y018925D01*
X019564Y017425D01*
X019814Y017175D01*
X020314Y017175D01*
X020564Y017425D01*
X017564Y017575D02*
X017564Y019275D01*
X017562Y019292D01*
X017558Y019309D01*
X017551Y019325D01*
X017541Y019339D01*
X017528Y019352D01*
X017514Y019362D01*
X017498Y019369D01*
X017481Y019373D01*
X017464Y019375D01*
X016664Y019375D01*
X016647Y019373D01*
X016630Y019369D01*
X016614Y019362D01*
X016600Y019352D01*
X016587Y019339D01*
X016577Y019325D01*
X016570Y019309D01*
X016566Y019292D01*
X016564Y019275D01*
X016564Y017575D01*
X016566Y017558D01*
X016570Y017541D01*
X016577Y017525D01*
X016587Y017511D01*
X016600Y017498D01*
X016614Y017488D01*
X016630Y017481D01*
X016647Y017477D01*
X016664Y017475D01*
X017464Y017475D01*
X017481Y017477D01*
X017498Y017481D01*
X017514Y017488D01*
X017528Y017498D01*
X017541Y017511D01*
X017551Y017525D01*
X017558Y017541D01*
X017562Y017558D01*
X017564Y017575D01*
X017064Y018275D02*
X017064Y018325D01*
X017064Y018525D02*
X017064Y018575D01*
X014689Y018800D02*
X014689Y017300D01*
X014439Y017050D01*
X013939Y017050D01*
X013689Y017300D01*
X013689Y018800D01*
X013939Y019050D01*
X014439Y019050D01*
X014689Y018800D01*
X013689Y018800D02*
X013439Y019050D01*
X012939Y019050D01*
X012689Y018800D01*
X012689Y017300D01*
X012939Y017050D01*
X013439Y017050D01*
X013689Y017300D01*
X013439Y016675D02*
X012939Y016675D01*
X012689Y016425D01*
X012439Y016675D01*
X011939Y016675D01*
X011689Y016425D01*
X011689Y014925D01*
X011939Y014675D01*
X012439Y014675D01*
X012689Y014925D01*
X012689Y016425D01*
X012439Y017050D02*
X011939Y017050D01*
X011689Y017300D01*
X011689Y018800D01*
X011939Y019050D01*
X012439Y019050D01*
X012689Y018800D01*
X012689Y017300D02*
X012439Y017050D01*
X013439Y016675D02*
X013689Y016425D01*
X013689Y014925D01*
X013439Y014675D01*
X012939Y014675D01*
X012689Y014925D01*
X013689Y014925D02*
X013939Y014675D01*
X014439Y014675D01*
X014689Y014925D01*
X014689Y016425D01*
X014439Y016675D01*
X013939Y016675D01*
X013689Y016425D01*
X006689Y017300D02*
X006439Y017050D01*
X005939Y017050D01*
X005689Y017300D01*
X005689Y018800D01*
X005939Y019050D01*
X006439Y019050D01*
X006689Y018800D01*
X006689Y017300D01*
X005689Y017300D02*
X005439Y017050D01*
X004939Y017050D01*
X004689Y017300D01*
X004689Y018800D01*
X004939Y019050D01*
X005439Y019050D01*
X005689Y018800D01*
X004689Y018800D02*
X004439Y019050D01*
X003939Y019050D01*
X003689Y018800D01*
X003689Y017300D01*
X003939Y017050D01*
X004439Y017050D01*
X004689Y017300D01*
X006839Y023550D02*
X008539Y023550D01*
X008556Y023552D01*
X008573Y023556D01*
X008589Y023563D01*
X008603Y023573D01*
X008616Y023586D01*
X008626Y023600D01*
X008633Y023616D01*
X008637Y023633D01*
X008639Y023650D01*
X008639Y024450D01*
X008637Y024467D01*
X008633Y024484D01*
X008626Y024500D01*
X008616Y024514D01*
X008603Y024527D01*
X008589Y024537D01*
X008573Y024544D01*
X008556Y024548D01*
X008539Y024550D01*
X006839Y024550D01*
X006822Y024548D01*
X006805Y024544D01*
X006789Y024537D01*
X006775Y024527D01*
X006762Y024514D01*
X006752Y024500D01*
X006745Y024484D01*
X006741Y024467D01*
X006739Y024450D01*
X006739Y023650D01*
X006741Y023633D01*
X006745Y023616D01*
X006752Y023600D01*
X006762Y023586D01*
X006775Y023573D01*
X006789Y023563D01*
X006805Y023556D01*
X006822Y023552D01*
X006839Y023550D01*
X007539Y024050D02*
X007589Y024050D01*
X007789Y024050D02*
X007839Y024050D01*
X003589Y024050D02*
X003591Y024116D01*
X003597Y024181D01*
X003607Y024246D01*
X003620Y024311D01*
X003638Y024374D01*
X003659Y024437D01*
X003684Y024497D01*
X003713Y024557D01*
X003745Y024614D01*
X003780Y024670D01*
X003819Y024723D01*
X003861Y024774D01*
X003905Y024822D01*
X003953Y024867D01*
X004003Y024910D01*
X004056Y024949D01*
X004111Y024986D01*
X004168Y025019D01*
X004227Y025048D01*
X004287Y025074D01*
X004349Y025096D01*
X004412Y025115D01*
X004476Y025129D01*
X004541Y025140D01*
X004607Y025147D01*
X004673Y025150D01*
X004738Y025149D01*
X004804Y025144D01*
X004869Y025135D01*
X004934Y025122D01*
X004997Y025106D01*
X005060Y025086D01*
X005121Y025061D01*
X005181Y025034D01*
X005239Y025003D01*
X005295Y024968D01*
X005349Y024930D01*
X005400Y024889D01*
X005449Y024845D01*
X005495Y024798D01*
X005539Y024749D01*
X005579Y024697D01*
X005616Y024642D01*
X005650Y024586D01*
X005680Y024527D01*
X005707Y024467D01*
X005730Y024406D01*
X005749Y024343D01*
X005765Y024279D01*
X005777Y024214D01*
X005785Y024149D01*
X005789Y024083D01*
X005789Y024017D01*
X005785Y023951D01*
X005777Y023886D01*
X005765Y023821D01*
X005749Y023757D01*
X005730Y023694D01*
X005707Y023633D01*
X005680Y023573D01*
X005650Y023514D01*
X005616Y023458D01*
X005579Y023403D01*
X005539Y023351D01*
X005495Y023302D01*
X005449Y023255D01*
X005400Y023211D01*
X005349Y023170D01*
X005295Y023132D01*
X005239Y023097D01*
X005181Y023066D01*
X005121Y023039D01*
X005060Y023014D01*
X004997Y022994D01*
X004934Y022978D01*
X004869Y022965D01*
X004804Y022956D01*
X004738Y022951D01*
X004673Y022950D01*
X004607Y022953D01*
X004541Y022960D01*
X004476Y022971D01*
X004412Y022985D01*
X004349Y023004D01*
X004287Y023026D01*
X004227Y023052D01*
X004168Y023081D01*
X004111Y023114D01*
X004056Y023151D01*
X004003Y023190D01*
X003953Y023233D01*
X003905Y023278D01*
X003861Y023326D01*
X003819Y023377D01*
X003780Y023430D01*
X003745Y023486D01*
X003713Y023543D01*
X003684Y023603D01*
X003659Y023663D01*
X003638Y023726D01*
X003620Y023789D01*
X003607Y023854D01*
X003597Y023919D01*
X003591Y023984D01*
X003589Y024050D01*
X004039Y024400D02*
X004039Y024550D01*
X004039Y024700D01*
X004039Y024550D02*
X004189Y024550D01*
X004039Y024550D02*
X003889Y024550D01*
X004663Y027918D02*
X004633Y027953D01*
X004602Y027986D01*
X004567Y028016D01*
X004531Y028043D01*
X004493Y028067D01*
X004453Y028089D01*
X004411Y028107D01*
X004368Y028123D01*
X004324Y028135D01*
X004280Y028143D01*
X004234Y028148D01*
X004189Y028150D01*
X003719Y028500D02*
X003719Y029200D01*
X003719Y030900D01*
X003719Y031450D01*
X007689Y031450D01*
X007689Y030900D01*
X007689Y029200D01*
X003719Y029200D01*
X003719Y028500D02*
X007689Y028500D01*
X011659Y028500D01*
X011659Y028850D01*
X011659Y029200D01*
X011659Y030900D01*
X007689Y030900D01*
X003719Y030900D01*
X000839Y030050D02*
X000841Y030123D01*
X000847Y030196D01*
X000857Y030268D01*
X000871Y030340D01*
X000888Y030411D01*
X000910Y030481D01*
X000935Y030550D01*
X000964Y030617D01*
X000996Y030682D01*
X001032Y030746D01*
X001072Y030808D01*
X001114Y030867D01*
X001160Y030924D01*
X001209Y030978D01*
X001261Y031030D01*
X001315Y031079D01*
X001372Y031125D01*
X001431Y031167D01*
X001493Y031207D01*
X001557Y031243D01*
X001622Y031275D01*
X001689Y031304D01*
X001758Y031329D01*
X001828Y031351D01*
X001899Y031368D01*
X001971Y031382D01*
X002043Y031392D01*
X002116Y031398D01*
X002189Y031400D01*
X002262Y031398D01*
X002335Y031392D01*
X002407Y031382D01*
X002479Y031368D01*
X002550Y031351D01*
X002620Y031329D01*
X002689Y031304D01*
X002756Y031275D01*
X002821Y031243D01*
X002885Y031207D01*
X002947Y031167D01*
X003006Y031125D01*
X003063Y031079D01*
X003117Y031030D01*
X003169Y030978D01*
X003218Y030924D01*
X003264Y030867D01*
X003306Y030808D01*
X003346Y030746D01*
X003382Y030682D01*
X003414Y030617D01*
X003443Y030550D01*
X003468Y030481D01*
X003490Y030411D01*
X003507Y030340D01*
X003521Y030268D01*
X003531Y030196D01*
X003537Y030123D01*
X003539Y030050D01*
X003537Y029977D01*
X003531Y029904D01*
X003521Y029832D01*
X003507Y029760D01*
X003490Y029689D01*
X003468Y029619D01*
X003443Y029550D01*
X003414Y029483D01*
X003382Y029418D01*
X003346Y029354D01*
X003306Y029292D01*
X003264Y029233D01*
X003218Y029176D01*
X003169Y029122D01*
X003117Y029070D01*
X003063Y029021D01*
X003006Y028975D01*
X002947Y028933D01*
X002885Y028893D01*
X002821Y028857D01*
X002756Y028825D01*
X002689Y028796D01*
X002620Y028771D01*
X002550Y028749D01*
X002479Y028732D01*
X002407Y028718D01*
X002335Y028708D01*
X002262Y028702D01*
X002189Y028700D01*
X002116Y028702D01*
X002043Y028708D01*
X001971Y028718D01*
X001899Y028732D01*
X001828Y028749D01*
X001758Y028771D01*
X001689Y028796D01*
X001622Y028825D01*
X001557Y028857D01*
X001493Y028893D01*
X001431Y028933D01*
X001372Y028975D01*
X001315Y029021D01*
X001261Y029070D01*
X001209Y029122D01*
X001160Y029176D01*
X001114Y029233D01*
X001072Y029292D01*
X001032Y029354D01*
X000996Y029418D01*
X000964Y029483D01*
X000935Y029550D01*
X000910Y029619D01*
X000888Y029689D01*
X000871Y029760D01*
X000857Y029832D01*
X000847Y029904D01*
X000841Y029977D01*
X000839Y030050D01*
X004189Y026950D02*
X004235Y026952D01*
X004281Y026957D01*
X004327Y026966D01*
X004372Y026978D01*
X004415Y026994D01*
X004457Y027013D01*
X004498Y027036D01*
X004537Y027061D01*
X004573Y027089D01*
X004608Y027120D01*
X004640Y027154D01*
X004669Y027190D01*
X004189Y026950D02*
X004142Y026952D01*
X004094Y026958D01*
X004048Y026967D01*
X004002Y026980D01*
X003958Y026996D01*
X003914Y027017D01*
X003873Y027040D01*
X003834Y027066D01*
X003797Y027096D01*
X003762Y027129D01*
X003730Y027164D01*
X003701Y027201D01*
X003715Y027918D02*
X003745Y027953D01*
X003776Y027986D01*
X003811Y028016D01*
X003847Y028043D01*
X003885Y028067D01*
X003925Y028089D01*
X003967Y028107D01*
X004010Y028123D01*
X004054Y028135D01*
X004098Y028143D01*
X004144Y028148D01*
X004189Y028150D01*
X004529Y028850D02*
X004531Y028878D01*
X004537Y028905D01*
X004546Y028931D01*
X004559Y028956D01*
X004576Y028979D01*
X004595Y028999D01*
X004617Y029016D01*
X004641Y029030D01*
X004667Y029040D01*
X004694Y029047D01*
X004722Y029050D01*
X004750Y029049D01*
X004777Y029044D01*
X004804Y029035D01*
X004829Y029023D01*
X004852Y029008D01*
X004873Y028989D01*
X004891Y028968D01*
X004906Y028944D01*
X004917Y028918D01*
X004925Y028892D01*
X004929Y028864D01*
X004929Y028836D01*
X004925Y028808D01*
X004917Y028782D01*
X004906Y028756D01*
X004891Y028732D01*
X004873Y028711D01*
X004852Y028692D01*
X004829Y028677D01*
X004804Y028665D01*
X004777Y028656D01*
X004750Y028651D01*
X004722Y028650D01*
X004694Y028653D01*
X004667Y028660D01*
X004641Y028670D01*
X004617Y028684D01*
X004595Y028701D01*
X004576Y028721D01*
X004559Y028744D01*
X004546Y028769D01*
X004537Y028795D01*
X004531Y028822D01*
X004529Y028850D01*
X006509Y028850D02*
X006511Y028878D01*
X006517Y028905D01*
X006526Y028931D01*
X006539Y028956D01*
X006556Y028979D01*
X006575Y028999D01*
X006597Y029016D01*
X006621Y029030D01*
X006647Y029040D01*
X006674Y029047D01*
X006702Y029050D01*
X006730Y029049D01*
X006757Y029044D01*
X006784Y029035D01*
X006809Y029023D01*
X006832Y029008D01*
X006853Y028989D01*
X006871Y028968D01*
X006886Y028944D01*
X006897Y028918D01*
X006905Y028892D01*
X006909Y028864D01*
X006909Y028836D01*
X006905Y028808D01*
X006897Y028782D01*
X006886Y028756D01*
X006871Y028732D01*
X006853Y028711D01*
X006832Y028692D01*
X006809Y028677D01*
X006784Y028665D01*
X006757Y028656D01*
X006730Y028651D01*
X006702Y028650D01*
X006674Y028653D01*
X006647Y028660D01*
X006621Y028670D01*
X006597Y028684D01*
X006575Y028701D01*
X006556Y028721D01*
X006539Y028744D01*
X006526Y028769D01*
X006517Y028795D01*
X006511Y028822D01*
X006509Y028850D01*
X007689Y029200D02*
X007689Y028500D01*
X007689Y029200D02*
X011659Y029200D01*
X011859Y029250D01*
X011859Y028800D01*
X011659Y028850D01*
X011719Y028500D02*
X011719Y029200D01*
X011719Y030900D01*
X011719Y031450D01*
X015689Y031450D01*
X015689Y030900D01*
X015689Y029200D01*
X011719Y029200D01*
X011719Y028500D02*
X015689Y028500D01*
X019659Y028500D01*
X019659Y028850D01*
X019659Y029200D01*
X019659Y030900D01*
X015689Y030900D01*
X011719Y030900D01*
X011659Y030900D02*
X011659Y031450D01*
X007689Y031450D01*
X008469Y028850D02*
X008471Y028878D01*
X008477Y028905D01*
X008486Y028931D01*
X008499Y028956D01*
X008516Y028979D01*
X008535Y028999D01*
X008557Y029016D01*
X008581Y029030D01*
X008607Y029040D01*
X008634Y029047D01*
X008662Y029050D01*
X008690Y029049D01*
X008717Y029044D01*
X008744Y029035D01*
X008769Y029023D01*
X008792Y029008D01*
X008813Y028989D01*
X008831Y028968D01*
X008846Y028944D01*
X008857Y028918D01*
X008865Y028892D01*
X008869Y028864D01*
X008869Y028836D01*
X008865Y028808D01*
X008857Y028782D01*
X008846Y028756D01*
X008831Y028732D01*
X008813Y028711D01*
X008792Y028692D01*
X008769Y028677D01*
X008744Y028665D01*
X008717Y028656D01*
X008690Y028651D01*
X008662Y028650D01*
X008634Y028653D01*
X008607Y028660D01*
X008581Y028670D01*
X008557Y028684D01*
X008535Y028701D01*
X008516Y028721D01*
X008499Y028744D01*
X008486Y028769D01*
X008477Y028795D01*
X008471Y028822D01*
X008469Y028850D01*
X010449Y028850D02*
X010451Y028878D01*
X010457Y028905D01*
X010466Y028931D01*
X010479Y028956D01*
X010496Y028979D01*
X010515Y028999D01*
X010537Y029016D01*
X010561Y029030D01*
X010587Y029040D01*
X010614Y029047D01*
X010642Y029050D01*
X010670Y029049D01*
X010697Y029044D01*
X010724Y029035D01*
X010749Y029023D01*
X010772Y029008D01*
X010793Y028989D01*
X010811Y028968D01*
X010826Y028944D01*
X010837Y028918D01*
X010845Y028892D01*
X010849Y028864D01*
X010849Y028836D01*
X010845Y028808D01*
X010837Y028782D01*
X010826Y028756D01*
X010811Y028732D01*
X010793Y028711D01*
X010772Y028692D01*
X010749Y028677D01*
X010724Y028665D01*
X010697Y028656D01*
X010670Y028651D01*
X010642Y028650D01*
X010614Y028653D01*
X010587Y028660D01*
X010561Y028670D01*
X010537Y028684D01*
X010515Y028701D01*
X010496Y028721D01*
X010479Y028744D01*
X010466Y028769D01*
X010457Y028795D01*
X010451Y028822D01*
X010449Y028850D01*
X012529Y028850D02*
X012531Y028878D01*
X012537Y028905D01*
X012546Y028931D01*
X012559Y028956D01*
X012576Y028979D01*
X012595Y028999D01*
X012617Y029016D01*
X012641Y029030D01*
X012667Y029040D01*
X012694Y029047D01*
X012722Y029050D01*
X012750Y029049D01*
X012777Y029044D01*
X012804Y029035D01*
X012829Y029023D01*
X012852Y029008D01*
X012873Y028989D01*
X012891Y028968D01*
X012906Y028944D01*
X012917Y028918D01*
X012925Y028892D01*
X012929Y028864D01*
X012929Y028836D01*
X012925Y028808D01*
X012917Y028782D01*
X012906Y028756D01*
X012891Y028732D01*
X012873Y028711D01*
X012852Y028692D01*
X012829Y028677D01*
X012804Y028665D01*
X012777Y028656D01*
X012750Y028651D01*
X012722Y028650D01*
X012694Y028653D01*
X012667Y028660D01*
X012641Y028670D01*
X012617Y028684D01*
X012595Y028701D01*
X012576Y028721D01*
X012559Y028744D01*
X012546Y028769D01*
X012537Y028795D01*
X012531Y028822D01*
X012529Y028850D01*
X013169Y027190D02*
X013140Y027154D01*
X013108Y027120D01*
X013073Y027089D01*
X013037Y027061D01*
X012998Y027036D01*
X012957Y027013D01*
X012915Y026994D01*
X012872Y026978D01*
X012827Y026966D01*
X012781Y026957D01*
X012735Y026952D01*
X012689Y026950D01*
X013163Y027918D02*
X013133Y027953D01*
X013102Y027986D01*
X013067Y028016D01*
X013031Y028043D01*
X012993Y028067D01*
X012953Y028089D01*
X012911Y028107D01*
X012868Y028123D01*
X012824Y028135D01*
X012780Y028143D01*
X012734Y028148D01*
X012689Y028150D01*
X012201Y027201D02*
X012230Y027164D01*
X012262Y027129D01*
X012297Y027096D01*
X012334Y027066D01*
X012373Y027040D01*
X012414Y027017D01*
X012458Y026996D01*
X012502Y026980D01*
X012548Y026967D01*
X012594Y026958D01*
X012642Y026952D01*
X012689Y026950D01*
X012215Y027918D02*
X012245Y027953D01*
X012276Y027986D01*
X012311Y028016D01*
X012347Y028043D01*
X012385Y028067D01*
X012425Y028089D01*
X012467Y028107D01*
X012510Y028123D01*
X012554Y028135D01*
X012598Y028143D01*
X012644Y028148D01*
X012689Y028150D01*
X014509Y028850D02*
X014511Y028878D01*
X014517Y028905D01*
X014526Y028931D01*
X014539Y028956D01*
X014556Y028979D01*
X014575Y028999D01*
X014597Y029016D01*
X014621Y029030D01*
X014647Y029040D01*
X014674Y029047D01*
X014702Y029050D01*
X014730Y029049D01*
X014757Y029044D01*
X014784Y029035D01*
X014809Y029023D01*
X014832Y029008D01*
X014853Y028989D01*
X014871Y028968D01*
X014886Y028944D01*
X014897Y028918D01*
X014905Y028892D01*
X014909Y028864D01*
X014909Y028836D01*
X014905Y028808D01*
X014897Y028782D01*
X014886Y028756D01*
X014871Y028732D01*
X014853Y028711D01*
X014832Y028692D01*
X014809Y028677D01*
X014784Y028665D01*
X014757Y028656D01*
X014730Y028651D01*
X014702Y028650D01*
X014674Y028653D01*
X014647Y028660D01*
X014621Y028670D01*
X014597Y028684D01*
X014575Y028701D01*
X014556Y028721D01*
X014539Y028744D01*
X014526Y028769D01*
X014517Y028795D01*
X014511Y028822D01*
X014509Y028850D01*
X015689Y029200D02*
X015689Y028500D01*
X015689Y029200D02*
X019659Y029200D01*
X019859Y029250D01*
X019859Y028800D01*
X019659Y028850D01*
X019719Y028500D02*
X019719Y029200D01*
X019719Y030900D01*
X019719Y031450D01*
X023689Y031450D01*
X023689Y030900D01*
X023689Y029200D01*
X019719Y029200D01*
X019719Y028500D02*
X023689Y028500D01*
X027659Y028500D01*
X027659Y028850D01*
X027659Y029200D01*
X027659Y030900D01*
X023689Y030900D01*
X019719Y030900D01*
X019659Y030900D02*
X019659Y031450D01*
X015689Y031450D01*
X016469Y028850D02*
X016471Y028878D01*
X016477Y028905D01*
X016486Y028931D01*
X016499Y028956D01*
X016516Y028979D01*
X016535Y028999D01*
X016557Y029016D01*
X016581Y029030D01*
X016607Y029040D01*
X016634Y029047D01*
X016662Y029050D01*
X016690Y029049D01*
X016717Y029044D01*
X016744Y029035D01*
X016769Y029023D01*
X016792Y029008D01*
X016813Y028989D01*
X016831Y028968D01*
X016846Y028944D01*
X016857Y028918D01*
X016865Y028892D01*
X016869Y028864D01*
X016869Y028836D01*
X016865Y028808D01*
X016857Y028782D01*
X016846Y028756D01*
X016831Y028732D01*
X016813Y028711D01*
X016792Y028692D01*
X016769Y028677D01*
X016744Y028665D01*
X016717Y028656D01*
X016690Y028651D01*
X016662Y028650D01*
X016634Y028653D01*
X016607Y028660D01*
X016581Y028670D01*
X016557Y028684D01*
X016535Y028701D01*
X016516Y028721D01*
X016499Y028744D01*
X016486Y028769D01*
X016477Y028795D01*
X016471Y028822D01*
X016469Y028850D01*
X018449Y028850D02*
X018451Y028878D01*
X018457Y028905D01*
X018466Y028931D01*
X018479Y028956D01*
X018496Y028979D01*
X018515Y028999D01*
X018537Y029016D01*
X018561Y029030D01*
X018587Y029040D01*
X018614Y029047D01*
X018642Y029050D01*
X018670Y029049D01*
X018697Y029044D01*
X018724Y029035D01*
X018749Y029023D01*
X018772Y029008D01*
X018793Y028989D01*
X018811Y028968D01*
X018826Y028944D01*
X018837Y028918D01*
X018845Y028892D01*
X018849Y028864D01*
X018849Y028836D01*
X018845Y028808D01*
X018837Y028782D01*
X018826Y028756D01*
X018811Y028732D01*
X018793Y028711D01*
X018772Y028692D01*
X018749Y028677D01*
X018724Y028665D01*
X018697Y028656D01*
X018670Y028651D01*
X018642Y028650D01*
X018614Y028653D01*
X018587Y028660D01*
X018561Y028670D01*
X018537Y028684D01*
X018515Y028701D01*
X018496Y028721D01*
X018479Y028744D01*
X018466Y028769D01*
X018457Y028795D01*
X018451Y028822D01*
X018449Y028850D01*
X020529Y028850D02*
X020531Y028878D01*
X020537Y028905D01*
X020546Y028931D01*
X020559Y028956D01*
X020576Y028979D01*
X020595Y028999D01*
X020617Y029016D01*
X020641Y029030D01*
X020667Y029040D01*
X020694Y029047D01*
X020722Y029050D01*
X020750Y029049D01*
X020777Y029044D01*
X020804Y029035D01*
X020829Y029023D01*
X020852Y029008D01*
X020873Y028989D01*
X020891Y028968D01*
X020906Y028944D01*
X020917Y028918D01*
X020925Y028892D01*
X020929Y028864D01*
X020929Y028836D01*
X020925Y028808D01*
X020917Y028782D01*
X020906Y028756D01*
X020891Y028732D01*
X020873Y028711D01*
X020852Y028692D01*
X020829Y028677D01*
X020804Y028665D01*
X020777Y028656D01*
X020750Y028651D01*
X020722Y028650D01*
X020694Y028653D01*
X020667Y028660D01*
X020641Y028670D01*
X020617Y028684D01*
X020595Y028701D01*
X020576Y028721D01*
X020559Y028744D01*
X020546Y028769D01*
X020537Y028795D01*
X020531Y028822D01*
X020529Y028850D01*
X019951Y027201D02*
X019980Y027164D01*
X020012Y027129D01*
X020047Y027096D01*
X020084Y027066D01*
X020123Y027040D01*
X020164Y027017D01*
X020208Y026996D01*
X020252Y026980D01*
X020298Y026967D01*
X020344Y026958D01*
X020392Y026952D01*
X020439Y026950D01*
X020913Y027918D02*
X020883Y027953D01*
X020852Y027986D01*
X020817Y028016D01*
X020781Y028043D01*
X020743Y028067D01*
X020703Y028089D01*
X020661Y028107D01*
X020618Y028123D01*
X020574Y028135D01*
X020530Y028143D01*
X020484Y028148D01*
X020439Y028150D01*
X020919Y027190D02*
X020890Y027154D01*
X020858Y027120D01*
X020823Y027089D01*
X020787Y027061D01*
X020748Y027036D01*
X020707Y027013D01*
X020665Y026994D01*
X020622Y026978D01*
X020577Y026966D01*
X020531Y026957D01*
X020485Y026952D01*
X020439Y026950D01*
X019965Y027918D02*
X019995Y027953D01*
X020026Y027986D01*
X020061Y028016D01*
X020097Y028043D01*
X020135Y028067D01*
X020175Y028089D01*
X020217Y028107D01*
X020260Y028123D01*
X020304Y028135D01*
X020348Y028143D01*
X020394Y028148D01*
X020439Y028150D01*
X022509Y028850D02*
X022511Y028878D01*
X022517Y028905D01*
X022526Y028931D01*
X022539Y028956D01*
X022556Y028979D01*
X022575Y028999D01*
X022597Y029016D01*
X022621Y029030D01*
X022647Y029040D01*
X022674Y029047D01*
X022702Y029050D01*
X022730Y029049D01*
X022757Y029044D01*
X022784Y029035D01*
X022809Y029023D01*
X022832Y029008D01*
X022853Y028989D01*
X022871Y028968D01*
X022886Y028944D01*
X022897Y028918D01*
X022905Y028892D01*
X022909Y028864D01*
X022909Y028836D01*
X022905Y028808D01*
X022897Y028782D01*
X022886Y028756D01*
X022871Y028732D01*
X022853Y028711D01*
X022832Y028692D01*
X022809Y028677D01*
X022784Y028665D01*
X022757Y028656D01*
X022730Y028651D01*
X022702Y028650D01*
X022674Y028653D01*
X022647Y028660D01*
X022621Y028670D01*
X022597Y028684D01*
X022575Y028701D01*
X022556Y028721D01*
X022539Y028744D01*
X022526Y028769D01*
X022517Y028795D01*
X022511Y028822D01*
X022509Y028850D01*
X023689Y029200D02*
X023689Y028500D01*
X023689Y029200D02*
X027659Y029200D01*
X027859Y029250D01*
X027859Y028800D01*
X027659Y028850D01*
X027719Y028500D02*
X027719Y029200D01*
X027719Y030900D01*
X027719Y031450D01*
X031689Y031450D01*
X031689Y030900D01*
X031689Y029200D01*
X027719Y029200D01*
X027719Y028500D02*
X031689Y028500D01*
X035659Y028500D01*
X035659Y028850D01*
X035659Y029200D01*
X035659Y030900D01*
X031689Y030900D01*
X027719Y030900D01*
X027659Y030900D02*
X027659Y031450D01*
X023689Y031450D01*
X024469Y028850D02*
X024471Y028878D01*
X024477Y028905D01*
X024486Y028931D01*
X024499Y028956D01*
X024516Y028979D01*
X024535Y028999D01*
X024557Y029016D01*
X024581Y029030D01*
X024607Y029040D01*
X024634Y029047D01*
X024662Y029050D01*
X024690Y029049D01*
X024717Y029044D01*
X024744Y029035D01*
X024769Y029023D01*
X024792Y029008D01*
X024813Y028989D01*
X024831Y028968D01*
X024846Y028944D01*
X024857Y028918D01*
X024865Y028892D01*
X024869Y028864D01*
X024869Y028836D01*
X024865Y028808D01*
X024857Y028782D01*
X024846Y028756D01*
X024831Y028732D01*
X024813Y028711D01*
X024792Y028692D01*
X024769Y028677D01*
X024744Y028665D01*
X024717Y028656D01*
X024690Y028651D01*
X024662Y028650D01*
X024634Y028653D01*
X024607Y028660D01*
X024581Y028670D01*
X024557Y028684D01*
X024535Y028701D01*
X024516Y028721D01*
X024499Y028744D01*
X024486Y028769D01*
X024477Y028795D01*
X024471Y028822D01*
X024469Y028850D01*
X026449Y028850D02*
X026451Y028878D01*
X026457Y028905D01*
X026466Y028931D01*
X026479Y028956D01*
X026496Y028979D01*
X026515Y028999D01*
X026537Y029016D01*
X026561Y029030D01*
X026587Y029040D01*
X026614Y029047D01*
X026642Y029050D01*
X026670Y029049D01*
X026697Y029044D01*
X026724Y029035D01*
X026749Y029023D01*
X026772Y029008D01*
X026793Y028989D01*
X026811Y028968D01*
X026826Y028944D01*
X026837Y028918D01*
X026845Y028892D01*
X026849Y028864D01*
X026849Y028836D01*
X026845Y028808D01*
X026837Y028782D01*
X026826Y028756D01*
X026811Y028732D01*
X026793Y028711D01*
X026772Y028692D01*
X026749Y028677D01*
X026724Y028665D01*
X026697Y028656D01*
X026670Y028651D01*
X026642Y028650D01*
X026614Y028653D01*
X026587Y028660D01*
X026561Y028670D01*
X026537Y028684D01*
X026515Y028701D01*
X026496Y028721D01*
X026479Y028744D01*
X026466Y028769D01*
X026457Y028795D01*
X026451Y028822D01*
X026449Y028850D01*
X028529Y028850D02*
X028531Y028878D01*
X028537Y028905D01*
X028546Y028931D01*
X028559Y028956D01*
X028576Y028979D01*
X028595Y028999D01*
X028617Y029016D01*
X028641Y029030D01*
X028667Y029040D01*
X028694Y029047D01*
X028722Y029050D01*
X028750Y029049D01*
X028777Y029044D01*
X028804Y029035D01*
X028829Y029023D01*
X028852Y029008D01*
X028873Y028989D01*
X028891Y028968D01*
X028906Y028944D01*
X028917Y028918D01*
X028925Y028892D01*
X028929Y028864D01*
X028929Y028836D01*
X028925Y028808D01*
X028917Y028782D01*
X028906Y028756D01*
X028891Y028732D01*
X028873Y028711D01*
X028852Y028692D01*
X028829Y028677D01*
X028804Y028665D01*
X028777Y028656D01*
X028750Y028651D01*
X028722Y028650D01*
X028694Y028653D01*
X028667Y028660D01*
X028641Y028670D01*
X028617Y028684D01*
X028595Y028701D01*
X028576Y028721D01*
X028559Y028744D01*
X028546Y028769D01*
X028537Y028795D01*
X028531Y028822D01*
X028529Y028850D01*
X028814Y028150D02*
X028859Y028148D01*
X028905Y028143D01*
X028949Y028135D01*
X028993Y028123D01*
X029036Y028107D01*
X029078Y028089D01*
X029118Y028067D01*
X029156Y028043D01*
X029192Y028016D01*
X029227Y027986D01*
X029258Y027953D01*
X029288Y027918D01*
X028814Y026950D02*
X028767Y026952D01*
X028719Y026958D01*
X028673Y026967D01*
X028627Y026980D01*
X028583Y026996D01*
X028539Y027017D01*
X028498Y027040D01*
X028459Y027066D01*
X028422Y027096D01*
X028387Y027129D01*
X028355Y027164D01*
X028326Y027201D01*
X028814Y026950D02*
X028860Y026952D01*
X028906Y026957D01*
X028952Y026966D01*
X028997Y026978D01*
X029040Y026994D01*
X029082Y027013D01*
X029123Y027036D01*
X029162Y027061D01*
X029198Y027089D01*
X029233Y027120D01*
X029265Y027154D01*
X029294Y027190D01*
X028814Y028150D02*
X028769Y028148D01*
X028723Y028143D01*
X028679Y028135D01*
X028635Y028123D01*
X028592Y028107D01*
X028550Y028089D01*
X028510Y028067D01*
X028472Y028043D01*
X028436Y028016D01*
X028401Y027986D01*
X028370Y027953D01*
X028340Y027918D01*
X030509Y028850D02*
X030511Y028878D01*
X030517Y028905D01*
X030526Y028931D01*
X030539Y028956D01*
X030556Y028979D01*
X030575Y028999D01*
X030597Y029016D01*
X030621Y029030D01*
X030647Y029040D01*
X030674Y029047D01*
X030702Y029050D01*
X030730Y029049D01*
X030757Y029044D01*
X030784Y029035D01*
X030809Y029023D01*
X030832Y029008D01*
X030853Y028989D01*
X030871Y028968D01*
X030886Y028944D01*
X030897Y028918D01*
X030905Y028892D01*
X030909Y028864D01*
X030909Y028836D01*
X030905Y028808D01*
X030897Y028782D01*
X030886Y028756D01*
X030871Y028732D01*
X030853Y028711D01*
X030832Y028692D01*
X030809Y028677D01*
X030784Y028665D01*
X030757Y028656D01*
X030730Y028651D01*
X030702Y028650D01*
X030674Y028653D01*
X030647Y028660D01*
X030621Y028670D01*
X030597Y028684D01*
X030575Y028701D01*
X030556Y028721D01*
X030539Y028744D01*
X030526Y028769D01*
X030517Y028795D01*
X030511Y028822D01*
X030509Y028850D01*
X031689Y029200D02*
X031689Y028500D01*
X031689Y029200D02*
X035659Y029200D01*
X035859Y029250D01*
X035859Y028800D01*
X035659Y028850D01*
X034449Y028850D02*
X034451Y028878D01*
X034457Y028905D01*
X034466Y028931D01*
X034479Y028956D01*
X034496Y028979D01*
X034515Y028999D01*
X034537Y029016D01*
X034561Y029030D01*
X034587Y029040D01*
X034614Y029047D01*
X034642Y029050D01*
X034670Y029049D01*
X034697Y029044D01*
X034724Y029035D01*
X034749Y029023D01*
X034772Y029008D01*
X034793Y028989D01*
X034811Y028968D01*
X034826Y028944D01*
X034837Y028918D01*
X034845Y028892D01*
X034849Y028864D01*
X034849Y028836D01*
X034845Y028808D01*
X034837Y028782D01*
X034826Y028756D01*
X034811Y028732D01*
X034793Y028711D01*
X034772Y028692D01*
X034749Y028677D01*
X034724Y028665D01*
X034697Y028656D01*
X034670Y028651D01*
X034642Y028650D01*
X034614Y028653D01*
X034587Y028660D01*
X034561Y028670D01*
X034537Y028684D01*
X034515Y028701D01*
X034496Y028721D01*
X034479Y028744D01*
X034466Y028769D01*
X034457Y028795D01*
X034451Y028822D01*
X034449Y028850D01*
X032469Y028850D02*
X032471Y028878D01*
X032477Y028905D01*
X032486Y028931D01*
X032499Y028956D01*
X032516Y028979D01*
X032535Y028999D01*
X032557Y029016D01*
X032581Y029030D01*
X032607Y029040D01*
X032634Y029047D01*
X032662Y029050D01*
X032690Y029049D01*
X032717Y029044D01*
X032744Y029035D01*
X032769Y029023D01*
X032792Y029008D01*
X032813Y028989D01*
X032831Y028968D01*
X032846Y028944D01*
X032857Y028918D01*
X032865Y028892D01*
X032869Y028864D01*
X032869Y028836D01*
X032865Y028808D01*
X032857Y028782D01*
X032846Y028756D01*
X032831Y028732D01*
X032813Y028711D01*
X032792Y028692D01*
X032769Y028677D01*
X032744Y028665D01*
X032717Y028656D01*
X032690Y028651D01*
X032662Y028650D01*
X032634Y028653D01*
X032607Y028660D01*
X032581Y028670D01*
X032557Y028684D01*
X032535Y028701D01*
X032516Y028721D01*
X032499Y028744D01*
X032486Y028769D01*
X032477Y028795D01*
X032471Y028822D01*
X032469Y028850D01*
X031689Y031450D02*
X035659Y031450D01*
X035659Y030900D01*
X036339Y030050D02*
X036341Y030123D01*
X036347Y030196D01*
X036357Y030268D01*
X036371Y030340D01*
X036388Y030411D01*
X036410Y030481D01*
X036435Y030550D01*
X036464Y030617D01*
X036496Y030682D01*
X036532Y030746D01*
X036572Y030808D01*
X036614Y030867D01*
X036660Y030924D01*
X036709Y030978D01*
X036761Y031030D01*
X036815Y031079D01*
X036872Y031125D01*
X036931Y031167D01*
X036993Y031207D01*
X037057Y031243D01*
X037122Y031275D01*
X037189Y031304D01*
X037258Y031329D01*
X037328Y031351D01*
X037399Y031368D01*
X037471Y031382D01*
X037543Y031392D01*
X037616Y031398D01*
X037689Y031400D01*
X037762Y031398D01*
X037835Y031392D01*
X037907Y031382D01*
X037979Y031368D01*
X038050Y031351D01*
X038120Y031329D01*
X038189Y031304D01*
X038256Y031275D01*
X038321Y031243D01*
X038385Y031207D01*
X038447Y031167D01*
X038506Y031125D01*
X038563Y031079D01*
X038617Y031030D01*
X038669Y030978D01*
X038718Y030924D01*
X038764Y030867D01*
X038806Y030808D01*
X038846Y030746D01*
X038882Y030682D01*
X038914Y030617D01*
X038943Y030550D01*
X038968Y030481D01*
X038990Y030411D01*
X039007Y030340D01*
X039021Y030268D01*
X039031Y030196D01*
X039037Y030123D01*
X039039Y030050D01*
X039037Y029977D01*
X039031Y029904D01*
X039021Y029832D01*
X039007Y029760D01*
X038990Y029689D01*
X038968Y029619D01*
X038943Y029550D01*
X038914Y029483D01*
X038882Y029418D01*
X038846Y029354D01*
X038806Y029292D01*
X038764Y029233D01*
X038718Y029176D01*
X038669Y029122D01*
X038617Y029070D01*
X038563Y029021D01*
X038506Y028975D01*
X038447Y028933D01*
X038385Y028893D01*
X038321Y028857D01*
X038256Y028825D01*
X038189Y028796D01*
X038120Y028771D01*
X038050Y028749D01*
X037979Y028732D01*
X037907Y028718D01*
X037835Y028708D01*
X037762Y028702D01*
X037689Y028700D01*
X037616Y028702D01*
X037543Y028708D01*
X037471Y028718D01*
X037399Y028732D01*
X037328Y028749D01*
X037258Y028771D01*
X037189Y028796D01*
X037122Y028825D01*
X037057Y028857D01*
X036993Y028893D01*
X036931Y028933D01*
X036872Y028975D01*
X036815Y029021D01*
X036761Y029070D01*
X036709Y029122D01*
X036660Y029176D01*
X036614Y029233D01*
X036572Y029292D01*
X036532Y029354D01*
X036496Y029418D01*
X036464Y029483D01*
X036435Y029550D01*
X036410Y029619D01*
X036388Y029689D01*
X036371Y029760D01*
X036357Y029832D01*
X036347Y029904D01*
X036341Y029977D01*
X036339Y030050D01*
X033589Y024050D02*
X033591Y024116D01*
X033597Y024181D01*
X033607Y024246D01*
X033620Y024311D01*
X033638Y024374D01*
X033659Y024437D01*
X033684Y024497D01*
X033713Y024557D01*
X033745Y024614D01*
X033780Y024670D01*
X033819Y024723D01*
X033861Y024774D01*
X033905Y024822D01*
X033953Y024867D01*
X034003Y024910D01*
X034056Y024949D01*
X034111Y024986D01*
X034168Y025019D01*
X034227Y025048D01*
X034287Y025074D01*
X034349Y025096D01*
X034412Y025115D01*
X034476Y025129D01*
X034541Y025140D01*
X034607Y025147D01*
X034673Y025150D01*
X034738Y025149D01*
X034804Y025144D01*
X034869Y025135D01*
X034934Y025122D01*
X034997Y025106D01*
X035060Y025086D01*
X035121Y025061D01*
X035181Y025034D01*
X035239Y025003D01*
X035295Y024968D01*
X035349Y024930D01*
X035400Y024889D01*
X035449Y024845D01*
X035495Y024798D01*
X035539Y024749D01*
X035579Y024697D01*
X035616Y024642D01*
X035650Y024586D01*
X035680Y024527D01*
X035707Y024467D01*
X035730Y024406D01*
X035749Y024343D01*
X035765Y024279D01*
X035777Y024214D01*
X035785Y024149D01*
X035789Y024083D01*
X035789Y024017D01*
X035785Y023951D01*
X035777Y023886D01*
X035765Y023821D01*
X035749Y023757D01*
X035730Y023694D01*
X035707Y023633D01*
X035680Y023573D01*
X035650Y023514D01*
X035616Y023458D01*
X035579Y023403D01*
X035539Y023351D01*
X035495Y023302D01*
X035449Y023255D01*
X035400Y023211D01*
X035349Y023170D01*
X035295Y023132D01*
X035239Y023097D01*
X035181Y023066D01*
X035121Y023039D01*
X035060Y023014D01*
X034997Y022994D01*
X034934Y022978D01*
X034869Y022965D01*
X034804Y022956D01*
X034738Y022951D01*
X034673Y022950D01*
X034607Y022953D01*
X034541Y022960D01*
X034476Y022971D01*
X034412Y022985D01*
X034349Y023004D01*
X034287Y023026D01*
X034227Y023052D01*
X034168Y023081D01*
X034111Y023114D01*
X034056Y023151D01*
X034003Y023190D01*
X033953Y023233D01*
X033905Y023278D01*
X033861Y023326D01*
X033819Y023377D01*
X033780Y023430D01*
X033745Y023486D01*
X033713Y023543D01*
X033684Y023603D01*
X033659Y023663D01*
X033638Y023726D01*
X033620Y023789D01*
X033607Y023854D01*
X033597Y023919D01*
X033591Y023984D01*
X033589Y024050D01*
X034189Y023550D02*
X034189Y023400D01*
X034039Y023400D01*
X034189Y023400D02*
X034339Y023400D01*
X034189Y023400D02*
X034189Y023250D01*
X026639Y023150D02*
X026639Y023950D01*
X026637Y023967D01*
X026633Y023984D01*
X026626Y024000D01*
X026616Y024014D01*
X026603Y024027D01*
X026589Y024037D01*
X026573Y024044D01*
X026556Y024048D01*
X026539Y024050D01*
X024839Y024050D01*
X024822Y024048D01*
X024805Y024044D01*
X024789Y024037D01*
X024775Y024027D01*
X024762Y024014D01*
X024752Y024000D01*
X024745Y023984D01*
X024741Y023967D01*
X024739Y023950D01*
X024739Y023150D01*
X024741Y023133D01*
X024745Y023116D01*
X024752Y023100D01*
X024762Y023086D01*
X024775Y023073D01*
X024789Y023063D01*
X024805Y023056D01*
X024822Y023052D01*
X024839Y023050D01*
X026539Y023050D01*
X026556Y023052D01*
X026573Y023056D01*
X026589Y023063D01*
X026603Y023073D01*
X026616Y023086D01*
X026626Y023100D01*
X026633Y023116D01*
X026637Y023133D01*
X026639Y023150D01*
X025839Y023550D02*
X025789Y023550D01*
X025589Y023550D02*
X025539Y023550D01*
X020089Y024050D02*
X020091Y024116D01*
X020097Y024181D01*
X020107Y024246D01*
X020120Y024311D01*
X020138Y024374D01*
X020159Y024437D01*
X020184Y024497D01*
X020213Y024557D01*
X020245Y024614D01*
X020280Y024670D01*
X020319Y024723D01*
X020361Y024774D01*
X020405Y024822D01*
X020453Y024867D01*
X020503Y024910D01*
X020556Y024949D01*
X020611Y024986D01*
X020668Y025019D01*
X020727Y025048D01*
X020787Y025074D01*
X020849Y025096D01*
X020912Y025115D01*
X020976Y025129D01*
X021041Y025140D01*
X021107Y025147D01*
X021173Y025150D01*
X021238Y025149D01*
X021304Y025144D01*
X021369Y025135D01*
X021434Y025122D01*
X021497Y025106D01*
X021560Y025086D01*
X021621Y025061D01*
X021681Y025034D01*
X021739Y025003D01*
X021795Y024968D01*
X021849Y024930D01*
X021900Y024889D01*
X021949Y024845D01*
X021995Y024798D01*
X022039Y024749D01*
X022079Y024697D01*
X022116Y024642D01*
X022150Y024586D01*
X022180Y024527D01*
X022207Y024467D01*
X022230Y024406D01*
X022249Y024343D01*
X022265Y024279D01*
X022277Y024214D01*
X022285Y024149D01*
X022289Y024083D01*
X022289Y024017D01*
X022285Y023951D01*
X022277Y023886D01*
X022265Y023821D01*
X022249Y023757D01*
X022230Y023694D01*
X022207Y023633D01*
X022180Y023573D01*
X022150Y023514D01*
X022116Y023458D01*
X022079Y023403D01*
X022039Y023351D01*
X021995Y023302D01*
X021949Y023255D01*
X021900Y023211D01*
X021849Y023170D01*
X021795Y023132D01*
X021739Y023097D01*
X021681Y023066D01*
X021621Y023039D01*
X021560Y023014D01*
X021497Y022994D01*
X021434Y022978D01*
X021369Y022965D01*
X021304Y022956D01*
X021238Y022951D01*
X021173Y022950D01*
X021107Y022953D01*
X021041Y022960D01*
X020976Y022971D01*
X020912Y022985D01*
X020849Y023004D01*
X020787Y023026D01*
X020727Y023052D01*
X020668Y023081D01*
X020611Y023114D01*
X020556Y023151D01*
X020503Y023190D01*
X020453Y023233D01*
X020405Y023278D01*
X020361Y023326D01*
X020319Y023377D01*
X020280Y023430D01*
X020245Y023486D01*
X020213Y023543D01*
X020184Y023603D01*
X020159Y023663D01*
X020138Y023726D01*
X020120Y023789D01*
X020107Y023854D01*
X020097Y023919D01*
X020091Y023984D01*
X020089Y024050D01*
X019639Y023950D02*
X019639Y023150D01*
X019637Y023133D01*
X019633Y023116D01*
X019626Y023100D01*
X019616Y023086D01*
X019603Y023073D01*
X019589Y023063D01*
X019573Y023056D01*
X019556Y023052D01*
X019539Y023050D01*
X017839Y023050D01*
X017822Y023052D01*
X017805Y023056D01*
X017789Y023063D01*
X017775Y023073D01*
X017762Y023086D01*
X017752Y023100D01*
X017745Y023116D01*
X017741Y023133D01*
X017739Y023150D01*
X017739Y023950D01*
X017741Y023967D01*
X017745Y023984D01*
X017752Y024000D01*
X017762Y024014D01*
X017775Y024027D01*
X017789Y024037D01*
X017805Y024044D01*
X017822Y024048D01*
X017839Y024050D01*
X019539Y024050D01*
X019556Y024048D01*
X019573Y024044D01*
X019589Y024037D01*
X019603Y024027D01*
X019616Y024014D01*
X019626Y024000D01*
X019633Y023984D01*
X019637Y023967D01*
X019639Y023950D01*
X018839Y023550D02*
X018789Y023550D01*
X018589Y023550D02*
X018539Y023550D01*
X020539Y023400D02*
X020689Y023400D01*
X020689Y023550D01*
X020689Y023400D02*
X020839Y023400D01*
X020689Y023400D02*
X020689Y023250D01*
X012589Y023550D02*
X012591Y023616D01*
X012597Y023681D01*
X012607Y023746D01*
X012620Y023811D01*
X012638Y023874D01*
X012659Y023937D01*
X012684Y023997D01*
X012713Y024057D01*
X012745Y024114D01*
X012780Y024170D01*
X012819Y024223D01*
X012861Y024274D01*
X012905Y024322D01*
X012953Y024367D01*
X013003Y024410D01*
X013056Y024449D01*
X013111Y024486D01*
X013168Y024519D01*
X013227Y024548D01*
X013287Y024574D01*
X013349Y024596D01*
X013412Y024615D01*
X013476Y024629D01*
X013541Y024640D01*
X013607Y024647D01*
X013673Y024650D01*
X013738Y024649D01*
X013804Y024644D01*
X013869Y024635D01*
X013934Y024622D01*
X013997Y024606D01*
X014060Y024586D01*
X014121Y024561D01*
X014181Y024534D01*
X014239Y024503D01*
X014295Y024468D01*
X014349Y024430D01*
X014400Y024389D01*
X014449Y024345D01*
X014495Y024298D01*
X014539Y024249D01*
X014579Y024197D01*
X014616Y024142D01*
X014650Y024086D01*
X014680Y024027D01*
X014707Y023967D01*
X014730Y023906D01*
X014749Y023843D01*
X014765Y023779D01*
X014777Y023714D01*
X014785Y023649D01*
X014789Y023583D01*
X014789Y023517D01*
X014785Y023451D01*
X014777Y023386D01*
X014765Y023321D01*
X014749Y023257D01*
X014730Y023194D01*
X014707Y023133D01*
X014680Y023073D01*
X014650Y023014D01*
X014616Y022958D01*
X014579Y022903D01*
X014539Y022851D01*
X014495Y022802D01*
X014449Y022755D01*
X014400Y022711D01*
X014349Y022670D01*
X014295Y022632D01*
X014239Y022597D01*
X014181Y022566D01*
X014121Y022539D01*
X014060Y022514D01*
X013997Y022494D01*
X013934Y022478D01*
X013869Y022465D01*
X013804Y022456D01*
X013738Y022451D01*
X013673Y022450D01*
X013607Y022453D01*
X013541Y022460D01*
X013476Y022471D01*
X013412Y022485D01*
X013349Y022504D01*
X013287Y022526D01*
X013227Y022552D01*
X013168Y022581D01*
X013111Y022614D01*
X013056Y022651D01*
X013003Y022690D01*
X012953Y022733D01*
X012905Y022778D01*
X012861Y022826D01*
X012819Y022877D01*
X012780Y022930D01*
X012745Y022986D01*
X012713Y023043D01*
X012684Y023103D01*
X012659Y023163D01*
X012638Y023226D01*
X012620Y023289D01*
X012607Y023354D01*
X012597Y023419D01*
X012591Y023484D01*
X012589Y023550D01*
X013039Y023900D02*
X013039Y024050D01*
X013039Y024200D01*
X013039Y024050D02*
X013189Y024050D01*
X013039Y024050D02*
X012889Y024050D01*
X004789Y009050D02*
X004787Y009003D01*
X004781Y008955D01*
X004772Y008909D01*
X004759Y008863D01*
X004743Y008819D01*
X004722Y008775D01*
X004699Y008734D01*
X004673Y008695D01*
X004643Y008658D01*
X004610Y008623D01*
X004575Y008591D01*
X004538Y008562D01*
X003589Y009050D02*
X003591Y009095D01*
X003596Y009141D01*
X003604Y009185D01*
X003616Y009229D01*
X003632Y009272D01*
X003650Y009314D01*
X003672Y009354D01*
X003696Y009392D01*
X003723Y009428D01*
X003753Y009463D01*
X003786Y009494D01*
X003821Y009524D01*
X003589Y009050D02*
X003591Y009005D01*
X003596Y008959D01*
X003604Y008915D01*
X003616Y008871D01*
X003632Y008828D01*
X003650Y008786D01*
X003672Y008746D01*
X003696Y008708D01*
X003723Y008672D01*
X003753Y008637D01*
X003786Y008606D01*
X003821Y008576D01*
X004789Y009050D02*
X004787Y009096D01*
X004782Y009142D01*
X004773Y009188D01*
X004761Y009233D01*
X004745Y009276D01*
X004726Y009318D01*
X004703Y009359D01*
X004678Y009398D01*
X004650Y009434D01*
X004619Y009469D01*
X004585Y009501D01*
X004549Y009530D01*
X006589Y006050D02*
X006591Y006116D01*
X006597Y006181D01*
X006607Y006246D01*
X006620Y006311D01*
X006638Y006374D01*
X006659Y006437D01*
X006684Y006497D01*
X006713Y006557D01*
X006745Y006614D01*
X006780Y006670D01*
X006819Y006723D01*
X006861Y006774D01*
X006905Y006822D01*
X006953Y006867D01*
X007003Y006910D01*
X007056Y006949D01*
X007111Y006986D01*
X007168Y007019D01*
X007227Y007048D01*
X007287Y007074D01*
X007349Y007096D01*
X007412Y007115D01*
X007476Y007129D01*
X007541Y007140D01*
X007607Y007147D01*
X007673Y007150D01*
X007738Y007149D01*
X007804Y007144D01*
X007869Y007135D01*
X007934Y007122D01*
X007997Y007106D01*
X008060Y007086D01*
X008121Y007061D01*
X008181Y007034D01*
X008239Y007003D01*
X008295Y006968D01*
X008349Y006930D01*
X008400Y006889D01*
X008449Y006845D01*
X008495Y006798D01*
X008539Y006749D01*
X008579Y006697D01*
X008616Y006642D01*
X008650Y006586D01*
X008680Y006527D01*
X008707Y006467D01*
X008730Y006406D01*
X008749Y006343D01*
X008765Y006279D01*
X008777Y006214D01*
X008785Y006149D01*
X008789Y006083D01*
X008789Y006017D01*
X008785Y005951D01*
X008777Y005886D01*
X008765Y005821D01*
X008749Y005757D01*
X008730Y005694D01*
X008707Y005633D01*
X008680Y005573D01*
X008650Y005514D01*
X008616Y005458D01*
X008579Y005403D01*
X008539Y005351D01*
X008495Y005302D01*
X008449Y005255D01*
X008400Y005211D01*
X008349Y005170D01*
X008295Y005132D01*
X008239Y005097D01*
X008181Y005066D01*
X008121Y005039D01*
X008060Y005014D01*
X007997Y004994D01*
X007934Y004978D01*
X007869Y004965D01*
X007804Y004956D01*
X007738Y004951D01*
X007673Y004950D01*
X007607Y004953D01*
X007541Y004960D01*
X007476Y004971D01*
X007412Y004985D01*
X007349Y005004D01*
X007287Y005026D01*
X007227Y005052D01*
X007168Y005081D01*
X007111Y005114D01*
X007056Y005151D01*
X007003Y005190D01*
X006953Y005233D01*
X006905Y005278D01*
X006861Y005326D01*
X006819Y005377D01*
X006780Y005430D01*
X006745Y005486D01*
X006713Y005543D01*
X006684Y005603D01*
X006659Y005663D01*
X006638Y005726D01*
X006620Y005789D01*
X006607Y005854D01*
X006597Y005919D01*
X006591Y005984D01*
X006589Y006050D01*
X008189Y005550D02*
X008339Y005550D01*
X008339Y005400D01*
X008339Y005550D02*
X008339Y005700D01*
X008339Y005550D02*
X008489Y005550D01*
X009839Y006950D02*
X009839Y007050D01*
X009889Y007100D01*
X009889Y008000D01*
X009839Y008050D01*
X009839Y008150D01*
X009841Y008167D01*
X009845Y008184D01*
X009852Y008200D01*
X009862Y008214D01*
X009875Y008227D01*
X009889Y008237D01*
X009905Y008244D01*
X009922Y008248D01*
X009939Y008250D01*
X010439Y008250D02*
X010456Y008248D01*
X010473Y008244D01*
X010489Y008237D01*
X010503Y008227D01*
X010516Y008214D01*
X010526Y008200D01*
X010533Y008184D01*
X010537Y008167D01*
X010539Y008150D01*
X010539Y008050D01*
X010489Y008000D01*
X010489Y007100D01*
X010539Y007050D01*
X010539Y006950D01*
X010537Y006933D01*
X010533Y006916D01*
X010526Y006900D01*
X010516Y006886D01*
X010503Y006873D01*
X010489Y006863D01*
X010473Y006856D01*
X010456Y006852D01*
X010439Y006850D01*
X009939Y006850D02*
X009922Y006852D01*
X009905Y006856D01*
X009889Y006863D01*
X009875Y006873D01*
X009862Y006886D01*
X009852Y006900D01*
X009845Y006916D01*
X009841Y006933D01*
X009839Y006950D01*
X012439Y004300D02*
X012939Y004300D01*
X013189Y004050D01*
X013189Y002550D01*
X013439Y002300D01*
X013939Y002300D01*
X014189Y002550D01*
X014189Y004050D01*
X014439Y004300D01*
X014939Y004300D01*
X015189Y004050D01*
X015189Y002550D01*
X015439Y002300D01*
X015939Y002300D01*
X016189Y002550D01*
X016189Y004050D01*
X016439Y004300D01*
X016939Y004300D01*
X017189Y004050D01*
X017189Y002550D01*
X017439Y002300D01*
X017939Y002300D01*
X018189Y002550D01*
X018189Y004050D01*
X018439Y004300D01*
X018939Y004300D01*
X019189Y004050D01*
X019439Y004300D01*
X019939Y004300D01*
X020189Y004050D01*
X020189Y002550D01*
X019939Y002300D01*
X019439Y002300D01*
X019189Y002550D01*
X019189Y004050D01*
X018189Y004050D02*
X017939Y004300D01*
X017439Y004300D01*
X017189Y004050D01*
X016189Y004050D02*
X015939Y004300D01*
X015439Y004300D01*
X015189Y004050D01*
X014189Y004050D02*
X013939Y004300D01*
X013439Y004300D01*
X013189Y004050D01*
X012439Y004300D02*
X012189Y004050D01*
X012189Y002550D01*
X012439Y002300D01*
X012939Y002300D01*
X013189Y002550D01*
X014189Y002550D02*
X014439Y002300D01*
X014939Y002300D01*
X015189Y002550D01*
X016189Y002550D02*
X016439Y002300D01*
X016939Y002300D01*
X017189Y002550D01*
X018189Y002550D02*
X018439Y002300D01*
X018939Y002300D01*
X019189Y002550D01*
X014789Y007700D02*
X014689Y007700D01*
X014639Y007750D01*
X013739Y007750D01*
X013689Y007700D01*
X013589Y007700D01*
X013572Y007702D01*
X013555Y007706D01*
X013539Y007713D01*
X013525Y007723D01*
X013512Y007736D01*
X013502Y007750D01*
X013495Y007766D01*
X013491Y007783D01*
X013489Y007800D01*
X013489Y008300D02*
X013491Y008317D01*
X013495Y008334D01*
X013502Y008350D01*
X013512Y008364D01*
X013525Y008377D01*
X013539Y008387D01*
X013555Y008394D01*
X013572Y008398D01*
X013589Y008400D01*
X013689Y008400D01*
X013739Y008350D01*
X014639Y008350D01*
X014689Y008400D01*
X014789Y008400D01*
X014806Y008398D01*
X014823Y008394D01*
X014839Y008387D01*
X014853Y008377D01*
X014866Y008364D01*
X014876Y008350D01*
X014883Y008334D01*
X014887Y008317D01*
X014889Y008300D01*
X014889Y007800D02*
X014887Y007783D01*
X014883Y007766D01*
X014876Y007750D01*
X014866Y007736D01*
X014853Y007723D01*
X014839Y007713D01*
X014823Y007706D01*
X014806Y007702D01*
X014789Y007700D01*
X004589Y004050D02*
X004591Y004116D01*
X004597Y004181D01*
X004607Y004246D01*
X004620Y004311D01*
X004638Y004374D01*
X004659Y004437D01*
X004684Y004497D01*
X004713Y004557D01*
X004745Y004614D01*
X004780Y004670D01*
X004819Y004723D01*
X004861Y004774D01*
X004905Y004822D01*
X004953Y004867D01*
X005003Y004910D01*
X005056Y004949D01*
X005111Y004986D01*
X005168Y005019D01*
X005227Y005048D01*
X005287Y005074D01*
X005349Y005096D01*
X005412Y005115D01*
X005476Y005129D01*
X005541Y005140D01*
X005607Y005147D01*
X005673Y005150D01*
X005738Y005149D01*
X005804Y005144D01*
X005869Y005135D01*
X005934Y005122D01*
X005997Y005106D01*
X006060Y005086D01*
X006121Y005061D01*
X006181Y005034D01*
X006239Y005003D01*
X006295Y004968D01*
X006349Y004930D01*
X006400Y004889D01*
X006449Y004845D01*
X006495Y004798D01*
X006539Y004749D01*
X006579Y004697D01*
X006616Y004642D01*
X006650Y004586D01*
X006680Y004527D01*
X006707Y004467D01*
X006730Y004406D01*
X006749Y004343D01*
X006765Y004279D01*
X006777Y004214D01*
X006785Y004149D01*
X006789Y004083D01*
X006789Y004017D01*
X006785Y003951D01*
X006777Y003886D01*
X006765Y003821D01*
X006749Y003757D01*
X006730Y003694D01*
X006707Y003633D01*
X006680Y003573D01*
X006650Y003514D01*
X006616Y003458D01*
X006579Y003403D01*
X006539Y003351D01*
X006495Y003302D01*
X006449Y003255D01*
X006400Y003211D01*
X006349Y003170D01*
X006295Y003132D01*
X006239Y003097D01*
X006181Y003066D01*
X006121Y003039D01*
X006060Y003014D01*
X005997Y002994D01*
X005934Y002978D01*
X005869Y002965D01*
X005804Y002956D01*
X005738Y002951D01*
X005673Y002950D01*
X005607Y002953D01*
X005541Y002960D01*
X005476Y002971D01*
X005412Y002985D01*
X005349Y003004D01*
X005287Y003026D01*
X005227Y003052D01*
X005168Y003081D01*
X005111Y003114D01*
X005056Y003151D01*
X005003Y003190D01*
X004953Y003233D01*
X004905Y003278D01*
X004861Y003326D01*
X004819Y003377D01*
X004780Y003430D01*
X004745Y003486D01*
X004713Y003543D01*
X004684Y003603D01*
X004659Y003663D01*
X004638Y003726D01*
X004620Y003789D01*
X004607Y003854D01*
X004597Y003919D01*
X004591Y003984D01*
X004589Y004050D01*
X005039Y004400D02*
X005039Y004550D01*
X005039Y004700D01*
X005039Y004550D02*
X005189Y004550D01*
X005039Y004550D02*
X004889Y004550D01*
X000839Y002550D02*
X000841Y002623D01*
X000847Y002696D01*
X000857Y002768D01*
X000871Y002840D01*
X000888Y002911D01*
X000910Y002981D01*
X000935Y003050D01*
X000964Y003117D01*
X000996Y003182D01*
X001032Y003246D01*
X001072Y003308D01*
X001114Y003367D01*
X001160Y003424D01*
X001209Y003478D01*
X001261Y003530D01*
X001315Y003579D01*
X001372Y003625D01*
X001431Y003667D01*
X001493Y003707D01*
X001557Y003743D01*
X001622Y003775D01*
X001689Y003804D01*
X001758Y003829D01*
X001828Y003851D01*
X001899Y003868D01*
X001971Y003882D01*
X002043Y003892D01*
X002116Y003898D01*
X002189Y003900D01*
X002262Y003898D01*
X002335Y003892D01*
X002407Y003882D01*
X002479Y003868D01*
X002550Y003851D01*
X002620Y003829D01*
X002689Y003804D01*
X002756Y003775D01*
X002821Y003743D01*
X002885Y003707D01*
X002947Y003667D01*
X003006Y003625D01*
X003063Y003579D01*
X003117Y003530D01*
X003169Y003478D01*
X003218Y003424D01*
X003264Y003367D01*
X003306Y003308D01*
X003346Y003246D01*
X003382Y003182D01*
X003414Y003117D01*
X003443Y003050D01*
X003468Y002981D01*
X003490Y002911D01*
X003507Y002840D01*
X003521Y002768D01*
X003531Y002696D01*
X003537Y002623D01*
X003539Y002550D01*
X003537Y002477D01*
X003531Y002404D01*
X003521Y002332D01*
X003507Y002260D01*
X003490Y002189D01*
X003468Y002119D01*
X003443Y002050D01*
X003414Y001983D01*
X003382Y001918D01*
X003346Y001854D01*
X003306Y001792D01*
X003264Y001733D01*
X003218Y001676D01*
X003169Y001622D01*
X003117Y001570D01*
X003063Y001521D01*
X003006Y001475D01*
X002947Y001433D01*
X002885Y001393D01*
X002821Y001357D01*
X002756Y001325D01*
X002689Y001296D01*
X002620Y001271D01*
X002550Y001249D01*
X002479Y001232D01*
X002407Y001218D01*
X002335Y001208D01*
X002262Y001202D01*
X002189Y001200D01*
X002116Y001202D01*
X002043Y001208D01*
X001971Y001218D01*
X001899Y001232D01*
X001828Y001249D01*
X001758Y001271D01*
X001689Y001296D01*
X001622Y001325D01*
X001557Y001357D01*
X001493Y001393D01*
X001431Y001433D01*
X001372Y001475D01*
X001315Y001521D01*
X001261Y001570D01*
X001209Y001622D01*
X001160Y001676D01*
X001114Y001733D01*
X001072Y001792D01*
X001032Y001854D01*
X000996Y001918D01*
X000964Y001983D01*
X000935Y002050D01*
X000910Y002119D01*
X000888Y002189D01*
X000871Y002260D01*
X000857Y002332D01*
X000847Y002404D01*
X000841Y002477D01*
X000839Y002550D01*
X036339Y002550D02*
X036341Y002623D01*
X036347Y002696D01*
X036357Y002768D01*
X036371Y002840D01*
X036388Y002911D01*
X036410Y002981D01*
X036435Y003050D01*
X036464Y003117D01*
X036496Y003182D01*
X036532Y003246D01*
X036572Y003308D01*
X036614Y003367D01*
X036660Y003424D01*
X036709Y003478D01*
X036761Y003530D01*
X036815Y003579D01*
X036872Y003625D01*
X036931Y003667D01*
X036993Y003707D01*
X037057Y003743D01*
X037122Y003775D01*
X037189Y003804D01*
X037258Y003829D01*
X037328Y003851D01*
X037399Y003868D01*
X037471Y003882D01*
X037543Y003892D01*
X037616Y003898D01*
X037689Y003900D01*
X037762Y003898D01*
X037835Y003892D01*
X037907Y003882D01*
X037979Y003868D01*
X038050Y003851D01*
X038120Y003829D01*
X038189Y003804D01*
X038256Y003775D01*
X038321Y003743D01*
X038385Y003707D01*
X038447Y003667D01*
X038506Y003625D01*
X038563Y003579D01*
X038617Y003530D01*
X038669Y003478D01*
X038718Y003424D01*
X038764Y003367D01*
X038806Y003308D01*
X038846Y003246D01*
X038882Y003182D01*
X038914Y003117D01*
X038943Y003050D01*
X038968Y002981D01*
X038990Y002911D01*
X039007Y002840D01*
X039021Y002768D01*
X039031Y002696D01*
X039037Y002623D01*
X039039Y002550D01*
X039037Y002477D01*
X039031Y002404D01*
X039021Y002332D01*
X039007Y002260D01*
X038990Y002189D01*
X038968Y002119D01*
X038943Y002050D01*
X038914Y001983D01*
X038882Y001918D01*
X038846Y001854D01*
X038806Y001792D01*
X038764Y001733D01*
X038718Y001676D01*
X038669Y001622D01*
X038617Y001570D01*
X038563Y001521D01*
X038506Y001475D01*
X038447Y001433D01*
X038385Y001393D01*
X038321Y001357D01*
X038256Y001325D01*
X038189Y001296D01*
X038120Y001271D01*
X038050Y001249D01*
X037979Y001232D01*
X037907Y001218D01*
X037835Y001208D01*
X037762Y001202D01*
X037689Y001200D01*
X037616Y001202D01*
X037543Y001208D01*
X037471Y001218D01*
X037399Y001232D01*
X037328Y001249D01*
X037258Y001271D01*
X037189Y001296D01*
X037122Y001325D01*
X037057Y001357D01*
X036993Y001393D01*
X036931Y001433D01*
X036872Y001475D01*
X036815Y001521D01*
X036761Y001570D01*
X036709Y001622D01*
X036660Y001676D01*
X036614Y001733D01*
X036572Y001792D01*
X036532Y001854D01*
X036496Y001918D01*
X036464Y001983D01*
X036435Y002050D01*
X036410Y002119D01*
X036388Y002189D01*
X036371Y002260D01*
X036357Y002332D01*
X036347Y002404D01*
X036341Y002477D01*
X036339Y002550D01*
D13*
X009594Y011190D02*
X009489Y011085D01*
X009594Y011190D02*
X009594Y011400D01*
X009489Y011505D01*
X009384Y011505D01*
X009279Y011400D01*
X009279Y011295D01*
X009279Y011400D02*
X009174Y011505D01*
X009069Y011505D01*
X008964Y011400D01*
X008964Y011190D01*
X009069Y011085D01*
X009069Y011729D02*
X008964Y011834D01*
X008964Y012045D01*
X009069Y012150D01*
X009174Y012150D01*
X009594Y011729D01*
X009594Y012150D01*
X009489Y012374D02*
X009594Y012479D01*
X009594Y012689D01*
X009489Y012794D01*
X009384Y012794D01*
X009279Y012689D01*
X009279Y012479D01*
X009174Y012374D01*
X009069Y012374D01*
X008964Y012479D01*
X008964Y012689D01*
X009069Y012794D01*
X009174Y012794D01*
X009279Y012689D01*
X009279Y012479D02*
X009384Y012374D01*
X009489Y012374D01*
X009384Y013019D02*
X009384Y013334D01*
X009279Y013439D01*
X009069Y013439D01*
X008964Y013334D01*
X008964Y013019D01*
X009594Y013019D01*
X008760Y027135D02*
X008760Y027765D01*
X008550Y027765D02*
X008970Y027765D01*
X008325Y027660D02*
X008325Y027240D01*
X008220Y027135D01*
X008010Y027135D01*
X007905Y027240D01*
X007905Y027660D01*
X008010Y027765D01*
X008220Y027765D01*
X008325Y027660D01*
X007681Y027765D02*
X007681Y027135D01*
X007261Y027135D02*
X007261Y027765D01*
X007471Y027555D01*
X007681Y027765D01*
X007036Y027765D02*
X006616Y027135D01*
X007036Y027135D02*
X006616Y027765D01*
X014616Y027765D02*
X014616Y027660D01*
X014826Y027450D01*
X014826Y027135D01*
X014826Y027450D02*
X015036Y027660D01*
X015036Y027765D01*
X015261Y027765D02*
X015471Y027555D01*
X015681Y027765D01*
X015681Y027135D01*
X015905Y027240D02*
X016010Y027135D01*
X016220Y027135D01*
X016325Y027240D01*
X016325Y027660D01*
X016220Y027765D01*
X016010Y027765D01*
X015905Y027660D01*
X015905Y027240D01*
X015261Y027135D02*
X015261Y027765D01*
X016550Y027765D02*
X016970Y027765D01*
X016760Y027765D02*
X016760Y027135D01*
X023116Y027135D02*
X023536Y027135D01*
X023761Y027135D02*
X023761Y027765D01*
X023971Y027555D01*
X024181Y027765D01*
X024181Y027135D01*
X024405Y027240D02*
X024405Y027660D01*
X024510Y027765D01*
X024720Y027765D01*
X024825Y027660D01*
X024825Y027240D01*
X024720Y027135D01*
X024510Y027135D01*
X024405Y027240D01*
X025050Y027765D02*
X025470Y027765D01*
X025260Y027765D02*
X025260Y027135D01*
X023536Y027660D02*
X023116Y027240D01*
X023116Y027135D01*
X023116Y027765D02*
X023536Y027765D01*
X023536Y027660D01*
X030616Y027555D02*
X030616Y027135D01*
X030616Y027450D02*
X031036Y027450D01*
X031036Y027555D02*
X031036Y027135D01*
X031261Y027135D02*
X031261Y027765D01*
X031471Y027555D01*
X031681Y027765D01*
X031681Y027135D01*
X031905Y027240D02*
X031905Y027660D01*
X032010Y027765D01*
X032220Y027765D01*
X032325Y027660D01*
X032325Y027240D01*
X032220Y027135D01*
X032010Y027135D01*
X031905Y027240D01*
X032550Y027765D02*
X032970Y027765D01*
X032760Y027765D02*
X032760Y027135D01*
X031036Y027555D02*
X030826Y027765D01*
X030616Y027555D01*
D14*
X031112Y028685D02*
X031055Y028742D01*
X031112Y028685D02*
X031225Y028685D01*
X031282Y028742D01*
X031282Y028798D01*
X031225Y028855D01*
X031169Y028855D01*
X031225Y028855D02*
X031282Y028912D01*
X031282Y028968D01*
X031225Y029025D01*
X031112Y029025D01*
X031055Y028968D01*
X029282Y028855D02*
X029055Y028855D01*
X029225Y029025D01*
X029225Y028685D01*
X027182Y028685D02*
X026955Y028685D01*
X027069Y028685D02*
X027069Y029025D01*
X026955Y028912D01*
X025232Y028912D02*
X025232Y028968D01*
X025175Y029025D01*
X025062Y029025D01*
X025005Y028968D01*
X025232Y028912D02*
X025005Y028685D01*
X025232Y028685D01*
X023282Y028742D02*
X023225Y028685D01*
X023112Y028685D01*
X023055Y028742D01*
X023169Y028855D02*
X023225Y028855D01*
X023282Y028798D01*
X023282Y028742D01*
X023225Y028855D02*
X023282Y028912D01*
X023282Y028968D01*
X023225Y029025D01*
X023112Y029025D01*
X023055Y028968D01*
X021282Y028855D02*
X021055Y028855D01*
X021225Y029025D01*
X021225Y028685D01*
X019182Y028685D02*
X018955Y028685D01*
X019069Y028685D02*
X019069Y029025D01*
X018955Y028912D01*
X017232Y028912D02*
X017232Y028968D01*
X017175Y029025D01*
X017062Y029025D01*
X017005Y028968D01*
X017232Y028912D02*
X017005Y028685D01*
X017232Y028685D01*
X015282Y028742D02*
X015225Y028685D01*
X015112Y028685D01*
X015055Y028742D01*
X015169Y028855D02*
X015225Y028855D01*
X015282Y028798D01*
X015282Y028742D01*
X015225Y028855D02*
X015282Y028912D01*
X015282Y028968D01*
X015225Y029025D01*
X015112Y029025D01*
X015055Y028968D01*
X013282Y028855D02*
X013055Y028855D01*
X013225Y029025D01*
X013225Y028685D01*
X011182Y028685D02*
X010955Y028685D01*
X011069Y028685D02*
X011069Y029025D01*
X010955Y028912D01*
X009232Y028912D02*
X009232Y028968D01*
X009175Y029025D01*
X009062Y029025D01*
X009005Y028968D01*
X009232Y028912D02*
X009005Y028685D01*
X009232Y028685D01*
X007282Y028742D02*
X007225Y028685D01*
X007112Y028685D01*
X007055Y028742D01*
X007169Y028855D02*
X007225Y028855D01*
X007282Y028798D01*
X007282Y028742D01*
X007225Y028855D02*
X007282Y028912D01*
X007282Y028968D01*
X007225Y029025D01*
X007112Y029025D01*
X007055Y028968D01*
X005282Y028855D02*
X005055Y028855D01*
X005225Y029025D01*
X005225Y028685D01*
X003689Y026550D02*
X003689Y025550D01*
X011689Y025550D01*
X011689Y026550D01*
X019689Y026550D01*
X019689Y025550D01*
X027689Y025550D01*
X027689Y026550D01*
X035689Y026550D01*
X035689Y025550D01*
X027689Y025550D01*
X027689Y026550D01*
X019689Y026550D01*
X019689Y025550D01*
X011689Y025550D01*
X011689Y026550D01*
X003689Y026550D01*
X007693Y023350D02*
X007693Y023050D01*
X007768Y022975D01*
X007919Y022975D01*
X007994Y023050D01*
X008154Y022975D02*
X008454Y022975D01*
X008304Y022975D02*
X008304Y023425D01*
X008154Y023275D01*
X007994Y023350D02*
X007919Y023425D01*
X007768Y023425D01*
X007693Y023350D01*
X011689Y021550D02*
X011689Y020550D01*
X019689Y020550D01*
X027689Y020550D01*
X035689Y020550D01*
X035689Y021550D01*
X027689Y021550D01*
X027689Y020550D01*
X027689Y021550D01*
X019689Y021550D01*
X019689Y020550D01*
X019689Y021550D01*
X011689Y021550D01*
X011689Y020550D01*
X003689Y020550D01*
X003689Y021550D01*
X011689Y021550D01*
X011714Y019775D02*
X011714Y019700D01*
X011864Y019550D01*
X011864Y019325D01*
X011864Y019550D02*
X012014Y019700D01*
X012014Y019775D01*
X012175Y019550D02*
X012475Y019550D01*
X012635Y019550D02*
X012935Y019550D01*
X012935Y019625D02*
X012935Y019325D01*
X013095Y019325D02*
X013396Y019775D01*
X013556Y019775D02*
X013706Y019775D01*
X013631Y019775D02*
X013631Y019325D01*
X013556Y019325D02*
X013706Y019325D01*
X013863Y019400D02*
X013938Y019325D01*
X014088Y019325D01*
X014163Y019400D01*
X014163Y019475D01*
X014088Y019550D01*
X013938Y019550D01*
X013863Y019625D01*
X013863Y019700D01*
X013938Y019775D01*
X014088Y019775D01*
X014163Y019700D01*
X013396Y019325D02*
X013095Y019775D01*
X012935Y019625D02*
X012785Y019775D01*
X012635Y019625D01*
X012635Y019325D01*
X011304Y015650D02*
X011304Y015575D01*
X011154Y015425D01*
X011154Y015200D01*
X011154Y015425D02*
X011004Y015575D01*
X011004Y015650D01*
X010543Y015650D02*
X010543Y015200D01*
X010844Y015200D01*
X010383Y015200D02*
X010383Y015500D01*
X010233Y015650D01*
X010083Y015500D01*
X010083Y015200D01*
X009923Y015275D02*
X009923Y015650D01*
X010083Y015425D02*
X010383Y015425D01*
X009923Y015275D02*
X009848Y015200D01*
X009698Y015200D01*
X009623Y015275D01*
X009623Y015650D01*
X009463Y015575D02*
X009463Y015275D01*
X009387Y015200D01*
X009162Y015200D01*
X009162Y015650D01*
X009387Y015650D01*
X009463Y015575D01*
X007856Y014025D02*
X007556Y014025D01*
X007706Y014025D02*
X007706Y013575D01*
X007396Y013575D02*
X007095Y013575D01*
X007095Y014025D01*
X007396Y014025D01*
X007246Y013800D02*
X007095Y013800D01*
X006935Y013725D02*
X006935Y013650D01*
X006860Y013575D01*
X006710Y013575D01*
X006635Y013650D01*
X006710Y013800D02*
X006860Y013800D01*
X006935Y013725D01*
X006935Y013950D02*
X006860Y014025D01*
X006710Y014025D01*
X006635Y013950D01*
X006635Y013875D01*
X006710Y013800D01*
X006475Y013575D02*
X006175Y013575D01*
X006175Y014025D01*
X006475Y014025D01*
X006325Y013800D02*
X006175Y013800D01*
X006014Y013800D02*
X005939Y013725D01*
X005714Y013725D01*
X005714Y013575D02*
X005714Y014025D01*
X005939Y014025D01*
X006014Y013950D01*
X006014Y013800D01*
X005864Y013725D02*
X006014Y013575D01*
X003814Y013165D02*
X003814Y012864D01*
X003814Y013015D02*
X003364Y013015D01*
X003514Y012864D01*
X003439Y012704D02*
X003364Y012629D01*
X003364Y012404D01*
X003814Y012404D01*
X003814Y012629D01*
X003739Y012704D01*
X003439Y012704D01*
X003364Y012244D02*
X003364Y011944D01*
X003814Y011944D01*
X003814Y012244D01*
X003589Y012094D02*
X003589Y011944D01*
X003814Y011784D02*
X003814Y011483D01*
X003364Y011483D01*
X003439Y011323D02*
X003589Y011323D01*
X003664Y011248D01*
X003664Y011023D01*
X003664Y011173D02*
X003814Y011323D01*
X003814Y011023D02*
X003364Y011023D01*
X003364Y011248D01*
X003439Y011323D01*
X003364Y010863D02*
X003814Y010863D01*
X003664Y010713D01*
X003814Y010562D01*
X003364Y010562D01*
X003439Y010402D02*
X003589Y010402D01*
X003664Y010327D01*
X003664Y010102D01*
X003814Y010102D02*
X003364Y010102D01*
X003364Y010327D01*
X003439Y010402D01*
X003829Y007456D02*
X003904Y007456D01*
X003979Y007381D01*
X004054Y007456D01*
X004129Y007456D01*
X004204Y007381D01*
X004204Y007231D01*
X004129Y007156D01*
X004204Y006995D02*
X004204Y006695D01*
X004204Y006845D02*
X003754Y006845D01*
X003904Y006695D01*
X003979Y006535D02*
X004054Y006460D01*
X004054Y006235D01*
X004054Y006385D02*
X004204Y006535D01*
X003979Y006535D02*
X003829Y006535D01*
X003754Y006460D01*
X003754Y006235D01*
X004204Y006235D01*
X003829Y007156D02*
X003754Y007231D01*
X003754Y007381D01*
X003829Y007456D01*
X003979Y007381D02*
X003979Y007306D01*
X006318Y004925D02*
X006243Y004850D01*
X006243Y004550D01*
X006318Y004475D01*
X006469Y004475D01*
X006544Y004550D01*
X006704Y004550D02*
X006704Y004625D01*
X006779Y004700D01*
X006929Y004700D01*
X007004Y004625D01*
X007004Y004550D01*
X006929Y004475D01*
X006779Y004475D01*
X006704Y004550D01*
X006779Y004700D02*
X006704Y004775D01*
X006704Y004850D01*
X006779Y004925D01*
X006929Y004925D01*
X007004Y004850D01*
X007004Y004775D01*
X006929Y004700D01*
X006989Y004675D02*
X007064Y004750D01*
X006989Y004675D02*
X006839Y004675D01*
X006764Y004750D01*
X006764Y005050D01*
X006839Y005125D01*
X006989Y005125D01*
X007064Y005050D01*
X007225Y005050D02*
X007225Y004975D01*
X007300Y004900D01*
X007525Y004900D01*
X007525Y004750D02*
X007525Y005050D01*
X007450Y005125D01*
X007300Y005125D01*
X007225Y005050D01*
X007225Y004750D02*
X007300Y004675D01*
X007450Y004675D01*
X007525Y004750D01*
X006544Y004850D02*
X006469Y004925D01*
X006318Y004925D01*
X005339Y002750D02*
X009039Y002750D01*
X009139Y002650D01*
X009189Y001500D01*
X008859Y002510D02*
X008861Y002530D01*
X008867Y002548D01*
X008876Y002566D01*
X008888Y002581D01*
X008903Y002593D01*
X008921Y002602D01*
X008939Y002608D01*
X008959Y002610D01*
X008979Y002608D01*
X008997Y002602D01*
X009015Y002593D01*
X009030Y002581D01*
X009042Y002566D01*
X009051Y002548D01*
X009057Y002530D01*
X009059Y002510D01*
X009057Y002490D01*
X009051Y002472D01*
X009042Y002454D01*
X009030Y002439D01*
X009015Y002427D01*
X008997Y002418D01*
X008979Y002412D01*
X008959Y002410D01*
X008939Y002412D01*
X008921Y002418D01*
X008903Y002427D01*
X008888Y002439D01*
X008876Y002454D01*
X008867Y002472D01*
X008861Y002490D01*
X008859Y002510D01*
X005339Y002750D02*
X005239Y002650D01*
X005189Y001500D01*
X020164Y005650D02*
X020164Y005800D01*
X020239Y005875D01*
X020539Y005875D01*
X020614Y005800D01*
X020614Y005650D01*
X020539Y005575D01*
X020239Y005575D01*
X020164Y005650D01*
X020464Y005725D02*
X020614Y005875D01*
X020614Y006035D02*
X020314Y006335D01*
X020239Y006335D01*
X020164Y006260D01*
X020164Y006110D01*
X020239Y006035D01*
X020614Y006035D02*
X020614Y006335D01*
X020914Y004342D02*
X020914Y004041D01*
X020914Y004192D02*
X020464Y004192D01*
X020614Y004041D01*
X020464Y003881D02*
X020914Y003881D01*
X020464Y003581D01*
X020914Y003581D01*
X020914Y003421D02*
X020464Y003421D01*
X020464Y003121D02*
X020914Y003421D01*
X020914Y003121D02*
X020464Y003121D01*
X020539Y002960D02*
X020464Y002885D01*
X020464Y002735D01*
X020539Y002660D01*
X020839Y002660D01*
X020914Y002735D01*
X020914Y002885D01*
X020839Y002960D01*
X020539Y002960D01*
X020539Y002500D02*
X020464Y002425D01*
X020464Y002275D01*
X020539Y002200D01*
X020839Y002200D01*
X020914Y002275D01*
X020914Y002425D01*
X020839Y002500D01*
X029589Y002512D02*
X029589Y002662D01*
X029589Y002587D02*
X030039Y002587D01*
X030039Y002512D02*
X030039Y002662D01*
X029964Y002819D02*
X030039Y002894D01*
X030039Y003044D01*
X029964Y003119D01*
X029964Y003279D02*
X030039Y003354D01*
X030039Y003504D01*
X029964Y003579D01*
X029889Y003579D01*
X029814Y003504D01*
X029814Y003354D01*
X029739Y003279D01*
X029664Y003279D01*
X029589Y003354D01*
X029589Y003504D01*
X029664Y003579D01*
X029589Y003739D02*
X029589Y003965D01*
X029664Y004040D01*
X029814Y004040D01*
X029889Y003965D01*
X029889Y003739D01*
X030039Y003739D02*
X029589Y003739D01*
X029664Y003119D02*
X029589Y003044D01*
X029589Y002894D01*
X029664Y002819D01*
X029964Y002819D01*
X029994Y002116D02*
X030444Y002116D01*
X030444Y001966D02*
X030444Y002266D01*
X030144Y001966D02*
X029994Y002116D01*
X030069Y001805D02*
X030219Y001805D01*
X030294Y001730D01*
X030294Y001505D01*
X030444Y001505D02*
X029994Y001505D01*
X029994Y001730D01*
X030069Y001805D01*
X029994Y001345D02*
X029994Y001195D01*
X029994Y001270D02*
X030369Y001270D01*
X030444Y001195D01*
X030444Y001120D01*
X030369Y001045D01*
X031494Y001195D02*
X031494Y001345D01*
X031494Y001270D02*
X031869Y001270D01*
X031944Y001195D01*
X031944Y001120D01*
X031869Y001045D01*
X031794Y001505D02*
X031794Y001730D01*
X031719Y001805D01*
X031569Y001805D01*
X031494Y001730D01*
X031494Y001505D01*
X031944Y001505D01*
X031944Y001966D02*
X031644Y002266D01*
X031569Y002266D01*
X031494Y002191D01*
X031494Y002041D01*
X031569Y001966D01*
X031944Y001966D02*
X031944Y002266D01*
X032994Y002191D02*
X033069Y002266D01*
X033144Y002266D01*
X033219Y002191D01*
X033294Y002266D01*
X033369Y002266D01*
X033444Y002191D01*
X033444Y002041D01*
X033369Y001966D01*
X033219Y002116D02*
X033219Y002191D01*
X032994Y002191D02*
X032994Y002041D01*
X033069Y001966D01*
X033069Y001805D02*
X033219Y001805D01*
X033294Y001730D01*
X033294Y001505D01*
X033444Y001505D02*
X032994Y001505D01*
X032994Y001730D01*
X033069Y001805D01*
X032994Y001345D02*
X032994Y001195D01*
X032994Y001270D02*
X033369Y001270D01*
X033444Y001195D01*
X033444Y001120D01*
X033369Y001045D01*
X039039Y010314D02*
X039039Y010540D01*
X039114Y010615D01*
X039189Y010615D01*
X039264Y010540D01*
X039264Y010390D01*
X039189Y010314D01*
X039039Y010314D01*
X038889Y010465D01*
X038814Y010615D01*
X038864Y011352D02*
X039239Y011352D01*
X039314Y011427D01*
X039314Y011577D01*
X039239Y011652D01*
X038864Y011652D01*
X038939Y011812D02*
X039014Y011812D01*
X039089Y011888D01*
X039089Y012038D01*
X039164Y012113D01*
X039239Y012113D01*
X039314Y012038D01*
X039314Y011888D01*
X039239Y011812D01*
X038939Y011812D02*
X038864Y011888D01*
X038864Y012038D01*
X038939Y012113D01*
X038864Y012273D02*
X038864Y012498D01*
X038939Y012573D01*
X039014Y012573D01*
X039089Y012498D01*
X039089Y012273D01*
X039089Y012498D02*
X039164Y012573D01*
X039239Y012573D01*
X039314Y012498D01*
X039314Y012273D01*
X038864Y012273D01*
X039389Y012733D02*
X039389Y013034D01*
X039314Y013344D02*
X038864Y013344D01*
X038864Y013194D02*
X038864Y013494D01*
X038864Y013654D02*
X038864Y013954D01*
X038864Y013804D02*
X039314Y013804D01*
X039314Y014114D02*
X038864Y014114D01*
X039314Y014114D02*
X039314Y014415D01*
X039264Y015314D02*
X039264Y015615D01*
X039264Y015465D02*
X038814Y015465D01*
X038964Y015314D01*
X030704Y012350D02*
X030629Y012425D01*
X030479Y012425D01*
X030404Y012350D01*
X030244Y012425D02*
X029943Y012125D01*
X030018Y012200D02*
X030244Y011975D01*
X030404Y011975D02*
X030704Y012275D01*
X030704Y012350D01*
X030704Y011975D02*
X030404Y011975D01*
X029943Y011975D02*
X029943Y012425D01*
X029783Y012350D02*
X029708Y012425D01*
X029558Y012425D01*
X029483Y012350D01*
X029483Y012050D01*
X029558Y011975D01*
X029708Y011975D01*
X029783Y012050D01*
X029783Y012350D01*
X029825Y011250D02*
X029525Y010950D01*
X029600Y011025D02*
X029825Y010800D01*
X029985Y010800D02*
X030285Y010800D01*
X030135Y010800D02*
X030135Y011250D01*
X029985Y011100D01*
X029525Y011250D02*
X029525Y010800D01*
X029364Y010875D02*
X029364Y011175D01*
X029289Y011250D01*
X029139Y011250D01*
X029064Y011175D01*
X029064Y010875D01*
X029139Y010800D01*
X029289Y010800D01*
X029364Y010875D01*
X029396Y019450D02*
X029095Y019900D01*
X028935Y019750D02*
X028935Y019450D01*
X029095Y019450D02*
X029396Y019900D01*
X029556Y019900D02*
X029706Y019900D01*
X029631Y019900D02*
X029631Y019450D01*
X029556Y019450D02*
X029706Y019450D01*
X029863Y019525D02*
X029938Y019450D01*
X030088Y019450D01*
X030163Y019525D01*
X030163Y019600D01*
X030088Y019675D01*
X029938Y019675D01*
X029863Y019750D01*
X029863Y019825D01*
X029938Y019900D01*
X030088Y019900D01*
X030163Y019825D01*
X028935Y019750D02*
X028785Y019900D01*
X028635Y019750D01*
X028635Y019450D01*
X028635Y019675D02*
X028935Y019675D01*
X028475Y019675D02*
X028175Y019675D01*
X028014Y019675D02*
X027714Y019675D01*
X027714Y019750D02*
X027864Y019900D01*
X028014Y019750D01*
X028014Y019450D01*
X027714Y019450D02*
X027714Y019750D01*
X022038Y019825D02*
X021963Y019900D01*
X021813Y019900D01*
X021738Y019825D01*
X021738Y019750D01*
X021813Y019675D01*
X021963Y019675D01*
X022038Y019600D01*
X022038Y019525D01*
X021963Y019450D01*
X021813Y019450D01*
X021738Y019525D01*
X021581Y019450D02*
X021431Y019450D01*
X021506Y019450D02*
X021506Y019900D01*
X021431Y019900D02*
X021581Y019900D01*
X021271Y019900D02*
X020970Y019450D01*
X020810Y019450D02*
X020810Y019750D01*
X020660Y019900D01*
X020510Y019750D01*
X020510Y019450D01*
X020510Y019675D02*
X020810Y019675D01*
X020970Y019900D02*
X021271Y019450D01*
X020350Y019675D02*
X020050Y019675D01*
X019889Y019825D02*
X019589Y019525D01*
X019589Y019450D01*
X019889Y019450D01*
X019889Y019825D02*
X019889Y019900D01*
X019589Y019900D01*
X018139Y019115D02*
X018139Y018965D01*
X018064Y018889D01*
X018064Y018729D02*
X018139Y018654D01*
X018139Y018504D01*
X018064Y018429D01*
X017764Y018429D01*
X017689Y018504D01*
X017689Y018654D01*
X017764Y018729D01*
X017764Y018889D02*
X017689Y018965D01*
X017689Y019115D01*
X017764Y019190D01*
X017839Y019190D01*
X017914Y019115D01*
X017989Y019190D01*
X018064Y019190D01*
X018139Y019115D01*
X017914Y019115D02*
X017914Y019040D01*
X015450Y024175D02*
X015300Y024175D01*
X015225Y024250D01*
X015225Y024400D02*
X015375Y024475D01*
X015450Y024475D01*
X015525Y024400D01*
X015525Y024250D01*
X015450Y024175D01*
X015225Y024400D02*
X015225Y024625D01*
X015525Y024625D01*
X015064Y024550D02*
X014989Y024625D01*
X014839Y024625D01*
X014764Y024550D01*
X014764Y024250D01*
X014839Y024175D01*
X014989Y024175D01*
X015064Y024250D01*
X006163Y019700D02*
X006088Y019775D01*
X005938Y019775D01*
X005863Y019700D01*
X005863Y019625D01*
X005938Y019550D01*
X006088Y019550D01*
X006163Y019475D01*
X006163Y019400D01*
X006088Y019325D01*
X005938Y019325D01*
X005863Y019400D01*
X005706Y019325D02*
X005556Y019325D01*
X005631Y019325D02*
X005631Y019775D01*
X005556Y019775D02*
X005706Y019775D01*
X005396Y019775D02*
X005095Y019325D01*
X004935Y019325D02*
X004935Y019625D01*
X004785Y019775D01*
X004635Y019625D01*
X004635Y019325D01*
X004635Y019550D02*
X004935Y019550D01*
X005095Y019775D02*
X005396Y019325D01*
X004475Y019550D02*
X004175Y019550D01*
X004014Y019325D02*
X003714Y019775D01*
X004014Y019775D02*
X003714Y019325D01*
X033005Y028685D02*
X033232Y028912D01*
X033232Y028968D01*
X033175Y029025D01*
X033062Y029025D01*
X033005Y028968D01*
X033005Y028685D02*
X033232Y028685D01*
X034955Y028685D02*
X035182Y028685D01*
X035069Y028685D02*
X035069Y029025D01*
X034955Y028912D01*
D15*
X035236Y025236D02*
X035199Y025199D01*
X035199Y025089D01*
X035419Y025089D01*
X035419Y025199D01*
X035383Y025236D01*
X035236Y025236D01*
X035199Y025015D02*
X035419Y025015D01*
X035199Y024868D01*
X035419Y024868D01*
X035383Y024794D02*
X035309Y024794D01*
X035309Y024720D01*
X035236Y024647D02*
X035383Y024647D01*
X035419Y024684D01*
X035419Y024757D01*
X035383Y024794D01*
X035236Y024794D02*
X035199Y024757D01*
X035199Y024684D01*
X035236Y024647D01*
X034419Y024720D02*
X034346Y024794D01*
X034199Y024794D01*
X034199Y024868D02*
X034199Y024978D01*
X034236Y025015D01*
X034383Y025015D01*
X034419Y024978D01*
X034419Y024868D01*
X034199Y024868D01*
X034199Y025089D02*
X034199Y025199D01*
X034236Y025236D01*
X034383Y025236D01*
X034419Y025199D01*
X034419Y025089D01*
X034199Y025089D01*
X034419Y024720D02*
X034346Y024647D01*
X034199Y024647D01*
X033419Y024868D02*
X033419Y025015D01*
X033419Y024941D02*
X033199Y024941D01*
X033272Y024868D01*
X033309Y025089D02*
X033309Y025199D01*
X033346Y025236D01*
X033383Y025236D01*
X033419Y025199D01*
X033419Y025089D01*
X033199Y025089D01*
X033199Y025199D01*
X033236Y025236D01*
X033272Y025236D01*
X033309Y025199D01*
X032419Y025236D02*
X032272Y025236D01*
X032199Y025162D01*
X032272Y025089D01*
X032419Y025089D01*
X032419Y025015D02*
X032419Y024868D01*
X032419Y024941D02*
X032199Y024941D01*
X032272Y024868D01*
X032309Y025089D02*
X032309Y025236D01*
X031419Y025236D02*
X031272Y025236D01*
X031199Y025162D01*
X031272Y025089D01*
X031419Y025089D01*
X031419Y025015D02*
X031419Y024868D01*
X031272Y025015D01*
X031236Y025015D01*
X031199Y024978D01*
X031199Y024905D01*
X031236Y024868D01*
X031309Y025089D02*
X031309Y025236D01*
X030419Y025199D02*
X030419Y025089D01*
X030199Y025089D01*
X030199Y025199D01*
X030236Y025236D01*
X030272Y025236D01*
X030309Y025199D01*
X030309Y025089D01*
X030272Y025015D02*
X030419Y024868D01*
X030419Y025015D01*
X030272Y025015D02*
X030236Y025015D01*
X030199Y024978D01*
X030199Y024905D01*
X030236Y024868D01*
X030309Y025199D02*
X030346Y025236D01*
X030383Y025236D01*
X030419Y025199D01*
X029419Y025199D02*
X029419Y025089D01*
X029199Y025089D01*
X029199Y025199D01*
X029236Y025236D01*
X029383Y025236D01*
X029419Y025199D01*
X029419Y025015D02*
X029199Y025015D01*
X029199Y024868D02*
X029419Y025015D01*
X029419Y024868D02*
X029199Y024868D01*
X029236Y024794D02*
X029199Y024757D01*
X029199Y024684D01*
X029236Y024647D01*
X029383Y024647D01*
X029419Y024684D01*
X029419Y024757D01*
X029383Y024794D01*
X029309Y024794D01*
X029309Y024720D01*
X028419Y024647D02*
X028199Y024647D01*
X028272Y024720D01*
X028199Y024794D01*
X028419Y024794D01*
X028383Y024868D02*
X028236Y024868D01*
X028199Y024905D01*
X028199Y024978D01*
X028236Y025015D01*
X028383Y025015D01*
X028419Y024978D01*
X028419Y024905D01*
X028383Y024868D01*
X028199Y025089D02*
X028199Y025236D01*
X028199Y025162D02*
X028419Y025162D01*
X028346Y024573D02*
X028199Y024573D01*
X028346Y024573D02*
X028419Y024499D01*
X028346Y024426D01*
X028199Y024426D01*
X027419Y024684D02*
X027419Y024757D01*
X027383Y024794D01*
X027309Y024794D01*
X027309Y024720D01*
X027236Y024647D02*
X027383Y024647D01*
X027419Y024684D01*
X027419Y024868D02*
X027199Y024868D01*
X027419Y025015D01*
X027199Y025015D01*
X027199Y025089D02*
X027199Y025199D01*
X027236Y025236D01*
X027383Y025236D01*
X027419Y025199D01*
X027419Y025089D01*
X027199Y025089D01*
X027236Y024794D02*
X027199Y024757D01*
X027199Y024684D01*
X027236Y024647D01*
X026419Y024720D02*
X026346Y024794D01*
X026199Y024794D01*
X026199Y024868D02*
X026199Y024978D01*
X026236Y025015D01*
X026383Y025015D01*
X026419Y024978D01*
X026419Y024868D01*
X026199Y024868D01*
X026199Y025089D02*
X026199Y025199D01*
X026236Y025236D01*
X026383Y025236D01*
X026419Y025199D01*
X026419Y025089D01*
X026199Y025089D01*
X026419Y024720D02*
X026346Y024647D01*
X026199Y024647D01*
X025419Y024868D02*
X025419Y025015D01*
X025419Y024941D02*
X025199Y024941D01*
X025272Y024868D01*
X025309Y025089D02*
X025309Y025199D01*
X025346Y025236D01*
X025383Y025236D01*
X025419Y025199D01*
X025419Y025089D01*
X025199Y025089D01*
X025199Y025199D01*
X025236Y025236D01*
X025272Y025236D01*
X025309Y025199D01*
X024419Y025236D02*
X024272Y025236D01*
X024199Y025162D01*
X024272Y025089D01*
X024419Y025089D01*
X024419Y025015D02*
X024419Y024868D01*
X024419Y024941D02*
X024199Y024941D01*
X024272Y024868D01*
X024309Y025089D02*
X024309Y025236D01*
X023419Y025236D02*
X023272Y025236D01*
X023199Y025162D01*
X023272Y025089D01*
X023419Y025089D01*
X023419Y025015D02*
X023419Y024868D01*
X023272Y025015D01*
X023236Y025015D01*
X023199Y024978D01*
X023199Y024905D01*
X023236Y024868D01*
X023309Y025089D02*
X023309Y025236D01*
X022419Y025199D02*
X022419Y025089D01*
X022199Y025089D01*
X022199Y025199D01*
X022236Y025236D01*
X022272Y025236D01*
X022309Y025199D01*
X022309Y025089D01*
X022272Y025015D02*
X022236Y025015D01*
X022199Y024978D01*
X022199Y024905D01*
X022236Y024868D01*
X022272Y025015D02*
X022419Y024868D01*
X022419Y025015D01*
X022419Y025199D02*
X022383Y025236D01*
X022346Y025236D01*
X022309Y025199D01*
X021419Y025199D02*
X021419Y025089D01*
X021199Y025089D01*
X021199Y025199D01*
X021236Y025236D01*
X021383Y025236D01*
X021419Y025199D01*
X021419Y025015D02*
X021199Y025015D01*
X021199Y024868D02*
X021419Y025015D01*
X021419Y024868D02*
X021199Y024868D01*
X021236Y024794D02*
X021199Y024757D01*
X021199Y024684D01*
X021236Y024647D01*
X021383Y024647D01*
X021419Y024684D01*
X021419Y024757D01*
X021383Y024794D01*
X021309Y024794D01*
X021309Y024720D01*
X020419Y024647D02*
X020199Y024647D01*
X020272Y024720D01*
X020199Y024794D01*
X020419Y024794D01*
X020383Y024868D02*
X020236Y024868D01*
X020199Y024905D01*
X020199Y024978D01*
X020236Y025015D01*
X020383Y025015D01*
X020419Y024978D01*
X020419Y024905D01*
X020383Y024868D01*
X020199Y025089D02*
X020199Y025236D01*
X020199Y025162D02*
X020419Y025162D01*
X020346Y024573D02*
X020199Y024573D01*
X020346Y024573D02*
X020419Y024499D01*
X020346Y024426D01*
X020199Y024426D01*
X019419Y024684D02*
X019419Y024757D01*
X019383Y024794D01*
X019309Y024794D01*
X019309Y024720D01*
X019236Y024647D02*
X019383Y024647D01*
X019419Y024684D01*
X019419Y024868D02*
X019199Y024868D01*
X019419Y025015D01*
X019199Y025015D01*
X019199Y025089D02*
X019199Y025199D01*
X019236Y025236D01*
X019383Y025236D01*
X019419Y025199D01*
X019419Y025089D01*
X019199Y025089D01*
X019236Y024794D02*
X019199Y024757D01*
X019199Y024684D01*
X019236Y024647D01*
X018419Y024720D02*
X018346Y024794D01*
X018199Y024794D01*
X018199Y024868D02*
X018199Y024978D01*
X018236Y025015D01*
X018383Y025015D01*
X018419Y024978D01*
X018419Y024868D01*
X018199Y024868D01*
X018199Y025089D02*
X018199Y025199D01*
X018236Y025236D01*
X018383Y025236D01*
X018419Y025199D01*
X018419Y025089D01*
X018199Y025089D01*
X018419Y024720D02*
X018346Y024647D01*
X018199Y024647D01*
X017419Y024868D02*
X017419Y025015D01*
X017419Y024941D02*
X017199Y024941D01*
X017272Y024868D01*
X017309Y025089D02*
X017309Y025199D01*
X017346Y025236D01*
X017383Y025236D01*
X017419Y025199D01*
X017419Y025089D01*
X017199Y025089D01*
X017199Y025199D01*
X017236Y025236D01*
X017272Y025236D01*
X017309Y025199D01*
X016419Y025236D02*
X016272Y025236D01*
X016199Y025162D01*
X016272Y025089D01*
X016419Y025089D01*
X016419Y025015D02*
X016419Y024868D01*
X016419Y024941D02*
X016199Y024941D01*
X016272Y024868D01*
X016309Y025089D02*
X016309Y025236D01*
X015419Y025236D02*
X015272Y025236D01*
X015199Y025162D01*
X015272Y025089D01*
X015419Y025089D01*
X015419Y025015D02*
X015419Y024868D01*
X015272Y025015D01*
X015236Y025015D01*
X015199Y024978D01*
X015199Y024905D01*
X015236Y024868D01*
X015309Y025089D02*
X015309Y025236D01*
X014419Y025199D02*
X014419Y025089D01*
X014199Y025089D01*
X014199Y025199D01*
X014236Y025236D01*
X014272Y025236D01*
X014309Y025199D01*
X014309Y025089D01*
X014272Y025015D02*
X014236Y025015D01*
X014199Y024978D01*
X014199Y024905D01*
X014236Y024868D01*
X014272Y025015D02*
X014419Y024868D01*
X014419Y025015D01*
X014419Y025199D02*
X014383Y025236D01*
X014346Y025236D01*
X014309Y025199D01*
X013419Y025199D02*
X013419Y025089D01*
X013199Y025089D01*
X013199Y025199D01*
X013236Y025236D01*
X013383Y025236D01*
X013419Y025199D01*
X013419Y025015D02*
X013199Y025015D01*
X013199Y024868D02*
X013419Y025015D01*
X013419Y024868D02*
X013199Y024868D01*
X013236Y024794D02*
X013199Y024757D01*
X013199Y024684D01*
X013236Y024647D01*
X013383Y024647D01*
X013419Y024684D01*
X013419Y024757D01*
X013383Y024794D01*
X013309Y024794D01*
X013309Y024720D01*
X012419Y024647D02*
X012199Y024647D01*
X012272Y024720D01*
X012199Y024794D01*
X012419Y024794D01*
X012383Y024868D02*
X012236Y024868D01*
X012199Y024905D01*
X012199Y024978D01*
X012236Y025015D01*
X012383Y025015D01*
X012419Y024978D01*
X012419Y024905D01*
X012383Y024868D01*
X012199Y025089D02*
X012199Y025236D01*
X012199Y025162D02*
X012419Y025162D01*
X012346Y024573D02*
X012199Y024573D01*
X012346Y024573D02*
X012419Y024499D01*
X012346Y024426D01*
X012199Y024426D01*
X011419Y024684D02*
X011419Y024757D01*
X011383Y024794D01*
X011309Y024794D01*
X011309Y024720D01*
X011236Y024647D02*
X011383Y024647D01*
X011419Y024684D01*
X011419Y024868D02*
X011199Y024868D01*
X011419Y025015D01*
X011199Y025015D01*
X011199Y025089D02*
X011199Y025199D01*
X011236Y025236D01*
X011383Y025236D01*
X011419Y025199D01*
X011419Y025089D01*
X011199Y025089D01*
X011236Y024794D02*
X011199Y024757D01*
X011199Y024684D01*
X011236Y024647D01*
X010419Y024720D02*
X010346Y024794D01*
X010199Y024794D01*
X010199Y024868D02*
X010199Y024978D01*
X010236Y025015D01*
X010383Y025015D01*
X010419Y024978D01*
X010419Y024868D01*
X010199Y024868D01*
X010199Y025089D02*
X010199Y025199D01*
X010236Y025236D01*
X010383Y025236D01*
X010419Y025199D01*
X010419Y025089D01*
X010199Y025089D01*
X010419Y024720D02*
X010346Y024647D01*
X010199Y024647D01*
X009419Y024868D02*
X009419Y025015D01*
X009419Y024941D02*
X009199Y024941D01*
X009272Y024868D01*
X009309Y025089D02*
X009309Y025199D01*
X009346Y025236D01*
X009383Y025236D01*
X009419Y025199D01*
X009419Y025089D01*
X009199Y025089D01*
X009199Y025199D01*
X009236Y025236D01*
X009272Y025236D01*
X009309Y025199D01*
X008419Y025236D02*
X008272Y025236D01*
X008199Y025162D01*
X008272Y025089D01*
X008419Y025089D01*
X008419Y025015D02*
X008419Y024868D01*
X008419Y024941D02*
X008199Y024941D01*
X008272Y024868D01*
X008309Y025089D02*
X008309Y025236D01*
X007419Y025236D02*
X007272Y025236D01*
X007199Y025162D01*
X007272Y025089D01*
X007419Y025089D01*
X007419Y025015D02*
X007419Y024868D01*
X007272Y025015D01*
X007236Y025015D01*
X007199Y024978D01*
X007199Y024905D01*
X007236Y024868D01*
X007309Y025089D02*
X007309Y025236D01*
X006419Y025199D02*
X006419Y025089D01*
X006199Y025089D01*
X006199Y025199D01*
X006236Y025236D01*
X006272Y025236D01*
X006309Y025199D01*
X006309Y025089D01*
X006272Y025015D02*
X006236Y025015D01*
X006199Y024978D01*
X006199Y024905D01*
X006236Y024868D01*
X006272Y025015D02*
X006419Y024868D01*
X006419Y025015D01*
X006419Y025199D02*
X006383Y025236D01*
X006346Y025236D01*
X006309Y025199D01*
X005419Y025199D02*
X005419Y025089D01*
X005199Y025089D01*
X005199Y025199D01*
X005236Y025236D01*
X005383Y025236D01*
X005419Y025199D01*
X005419Y025015D02*
X005199Y025015D01*
X005199Y024868D02*
X005419Y025015D01*
X005419Y024868D02*
X005199Y024868D01*
X005236Y024794D02*
X005199Y024757D01*
X005199Y024684D01*
X005236Y024647D01*
X005383Y024647D01*
X005419Y024684D01*
X005419Y024757D01*
X005383Y024794D01*
X005309Y024794D01*
X005309Y024720D01*
X004419Y024647D02*
X004199Y024647D01*
X004272Y024720D01*
X004199Y024794D01*
X004419Y024794D01*
X004383Y024868D02*
X004419Y024905D01*
X004419Y024978D01*
X004383Y025015D01*
X004236Y025015D01*
X004199Y024978D01*
X004199Y024905D01*
X004236Y024868D01*
X004383Y024868D01*
X004199Y025089D02*
X004199Y025236D01*
X004199Y025162D02*
X004419Y025162D01*
X004346Y024573D02*
X004199Y024573D01*
X004346Y024573D02*
X004419Y024499D01*
X004346Y024426D01*
X004199Y024426D01*
X003919Y022242D02*
X003919Y021800D01*
X003959Y021810D02*
X004179Y021810D01*
X004179Y021957D01*
X004179Y022031D02*
X003959Y022031D01*
X004179Y022178D01*
X003959Y022178D01*
X003959Y021957D02*
X003959Y021810D01*
X004069Y021810D02*
X004069Y021883D01*
X004959Y021810D02*
X005032Y021883D01*
X004959Y021957D01*
X005179Y021957D01*
X005143Y022031D02*
X005179Y022068D01*
X005179Y022141D01*
X005143Y022178D01*
X005106Y022178D01*
X005069Y022141D01*
X005069Y022068D01*
X005032Y022031D01*
X004996Y022031D01*
X004959Y022068D01*
X004959Y022141D01*
X004996Y022178D01*
X005032Y022252D02*
X004959Y022325D01*
X005179Y022325D01*
X005179Y022252D02*
X005179Y022399D01*
X005179Y021810D02*
X004959Y021810D01*
X005959Y021810D02*
X006032Y021883D01*
X005959Y021957D01*
X006179Y021957D01*
X006143Y022031D02*
X006179Y022068D01*
X006179Y022141D01*
X006143Y022178D01*
X006106Y022178D01*
X006069Y022141D01*
X006069Y022068D01*
X006032Y022031D01*
X005996Y022031D01*
X005959Y022068D01*
X005959Y022141D01*
X005996Y022178D01*
X005996Y022252D02*
X005959Y022289D01*
X005959Y022362D01*
X005996Y022399D01*
X006032Y022399D01*
X006179Y022252D01*
X006179Y022399D01*
X006179Y021810D02*
X005959Y021810D01*
X006959Y021810D02*
X007032Y021883D01*
X006959Y021957D01*
X007179Y021957D01*
X007143Y022031D02*
X007179Y022068D01*
X007179Y022141D01*
X007143Y022178D01*
X007106Y022178D01*
X007069Y022141D01*
X007069Y022068D01*
X007032Y022031D01*
X006996Y022031D01*
X006959Y022068D01*
X006959Y022141D01*
X006996Y022178D01*
X006996Y022252D02*
X006959Y022289D01*
X006959Y022362D01*
X006996Y022399D01*
X007032Y022399D01*
X007069Y022362D01*
X007106Y022399D01*
X007143Y022399D01*
X007179Y022362D01*
X007179Y022289D01*
X007143Y022252D01*
X007069Y022325D02*
X007069Y022362D01*
X007179Y021810D02*
X006959Y021810D01*
X007919Y021800D02*
X007919Y022463D01*
X007959Y022399D02*
X007959Y022252D01*
X007959Y022325D02*
X008179Y022325D01*
X008143Y022178D02*
X008179Y022141D01*
X008179Y022068D01*
X008143Y022031D01*
X008069Y022068D02*
X008069Y022141D01*
X008106Y022178D01*
X008143Y022178D01*
X008069Y022068D02*
X008032Y022031D01*
X007996Y022031D01*
X007959Y022068D01*
X007959Y022141D01*
X007996Y022178D01*
X007996Y021957D02*
X008069Y021957D01*
X008106Y021920D01*
X008106Y021810D01*
X008179Y021810D02*
X007959Y021810D01*
X007959Y021920D01*
X007996Y021957D01*
X008106Y021883D02*
X008179Y021957D01*
X008919Y021800D02*
X008919Y022463D01*
X008996Y022399D02*
X009069Y022399D01*
X009106Y022362D01*
X009106Y022252D01*
X009179Y022252D02*
X008959Y022252D01*
X008959Y022362D01*
X008996Y022399D01*
X009179Y022178D02*
X009179Y022031D01*
X008959Y022031D01*
X008996Y021957D02*
X008959Y021920D01*
X008959Y021847D01*
X008996Y021810D01*
X009032Y021810D01*
X009069Y021847D01*
X009069Y021920D01*
X009106Y021957D01*
X009143Y021957D01*
X009179Y021920D01*
X009179Y021847D01*
X009143Y021810D01*
X009959Y021847D02*
X009996Y021810D01*
X010032Y021810D01*
X010069Y021847D01*
X010069Y021920D01*
X010106Y021957D01*
X010143Y021957D01*
X010179Y021920D01*
X010179Y021847D01*
X010143Y021810D01*
X009959Y021847D02*
X009959Y021920D01*
X009996Y021957D01*
X009959Y022031D02*
X009959Y022178D01*
X009959Y022104D02*
X010179Y022104D01*
X010179Y022252D02*
X009959Y022252D01*
X009959Y022399D01*
X009959Y022473D02*
X009959Y022583D01*
X009996Y022620D01*
X010069Y022620D01*
X010106Y022583D01*
X010106Y022473D01*
X010179Y022473D02*
X009959Y022473D01*
X010069Y022325D02*
X010069Y022252D01*
X010179Y022252D02*
X010179Y022399D01*
X010959Y022288D02*
X010959Y022178D01*
X011179Y022178D01*
X011106Y022178D02*
X011106Y022288D01*
X011069Y022325D01*
X010996Y022325D01*
X010959Y022288D01*
X011106Y022252D02*
X011179Y022325D01*
X011179Y022104D02*
X011179Y022031D01*
X011179Y022068D02*
X010959Y022068D01*
X010959Y022104D02*
X010959Y022031D01*
X010996Y021957D02*
X010959Y021920D01*
X010959Y021810D01*
X011179Y021810D01*
X011179Y021920D01*
X011143Y021957D01*
X010996Y021957D01*
X011919Y021800D02*
X011919Y022242D01*
X011959Y022178D02*
X012179Y022178D01*
X011959Y022031D01*
X012179Y022031D01*
X012179Y021957D02*
X012179Y021810D01*
X011959Y021810D01*
X011959Y021957D01*
X012069Y021883D02*
X012069Y021810D01*
X012959Y021810D02*
X013032Y021883D01*
X012959Y021957D01*
X013179Y021957D01*
X013143Y022031D02*
X013179Y022068D01*
X013179Y022141D01*
X013143Y022178D01*
X013106Y022178D01*
X013069Y022141D01*
X013069Y022068D01*
X013032Y022031D01*
X012996Y022031D01*
X012959Y022068D01*
X012959Y022141D01*
X012996Y022178D01*
X013032Y022252D02*
X012959Y022325D01*
X013179Y022325D01*
X013179Y022252D02*
X013179Y022399D01*
X013179Y021810D02*
X012959Y021810D01*
X013959Y021810D02*
X014032Y021883D01*
X013959Y021957D01*
X014179Y021957D01*
X014143Y022031D02*
X014179Y022068D01*
X014179Y022141D01*
X014143Y022178D01*
X014106Y022178D01*
X014069Y022141D01*
X014069Y022068D01*
X014032Y022031D01*
X013996Y022031D01*
X013959Y022068D01*
X013959Y022141D01*
X013996Y022178D01*
X013996Y022252D02*
X013959Y022289D01*
X013959Y022362D01*
X013996Y022399D01*
X014032Y022399D01*
X014179Y022252D01*
X014179Y022399D01*
X014179Y021810D02*
X013959Y021810D01*
X014959Y021810D02*
X015032Y021883D01*
X014959Y021957D01*
X015179Y021957D01*
X015143Y022031D02*
X015179Y022068D01*
X015179Y022141D01*
X015143Y022178D01*
X015106Y022178D01*
X015069Y022141D01*
X015069Y022068D01*
X015032Y022031D01*
X014996Y022031D01*
X014959Y022068D01*
X014959Y022141D01*
X014996Y022178D01*
X014996Y022252D02*
X014959Y022289D01*
X014959Y022362D01*
X014996Y022399D01*
X015032Y022399D01*
X015069Y022362D01*
X015106Y022399D01*
X015143Y022399D01*
X015179Y022362D01*
X015179Y022289D01*
X015143Y022252D01*
X015069Y022325D02*
X015069Y022362D01*
X015179Y021810D02*
X014959Y021810D01*
X015919Y021800D02*
X015919Y022463D01*
X015959Y022399D02*
X015959Y022252D01*
X015959Y022325D02*
X016179Y022325D01*
X016143Y022178D02*
X016179Y022141D01*
X016179Y022068D01*
X016143Y022031D01*
X016069Y022068D02*
X016069Y022141D01*
X016106Y022178D01*
X016143Y022178D01*
X016069Y022068D02*
X016032Y022031D01*
X015996Y022031D01*
X015959Y022068D01*
X015959Y022141D01*
X015996Y022178D01*
X015996Y021957D02*
X016069Y021957D01*
X016106Y021920D01*
X016106Y021810D01*
X016179Y021810D02*
X015959Y021810D01*
X015959Y021920D01*
X015996Y021957D01*
X016106Y021883D02*
X016179Y021957D01*
X016919Y021800D02*
X016919Y022463D01*
X016996Y022399D02*
X017069Y022399D01*
X017106Y022362D01*
X017106Y022252D01*
X017179Y022252D02*
X016959Y022252D01*
X016959Y022362D01*
X016996Y022399D01*
X017179Y022178D02*
X017179Y022031D01*
X016959Y022031D01*
X016996Y021957D02*
X016959Y021920D01*
X016959Y021847D01*
X016996Y021810D01*
X017032Y021810D01*
X017069Y021847D01*
X017069Y021920D01*
X017106Y021957D01*
X017143Y021957D01*
X017179Y021920D01*
X017179Y021847D01*
X017143Y021810D01*
X017959Y021847D02*
X017996Y021810D01*
X018032Y021810D01*
X018069Y021847D01*
X018069Y021920D01*
X018106Y021957D01*
X018143Y021957D01*
X018179Y021920D01*
X018179Y021847D01*
X018143Y021810D01*
X017959Y021847D02*
X017959Y021920D01*
X017996Y021957D01*
X017959Y022031D02*
X017959Y022178D01*
X017959Y022104D02*
X018179Y022104D01*
X018179Y022252D02*
X018179Y022399D01*
X018179Y022473D02*
X017959Y022473D01*
X017959Y022583D01*
X017996Y022620D01*
X018069Y022620D01*
X018106Y022583D01*
X018106Y022473D01*
X018069Y022325D02*
X018069Y022252D01*
X017959Y022252D02*
X018179Y022252D01*
X017959Y022252D02*
X017959Y022399D01*
X018959Y022288D02*
X018959Y022178D01*
X019179Y022178D01*
X019106Y022178D02*
X019106Y022288D01*
X019069Y022325D01*
X018996Y022325D01*
X018959Y022288D01*
X019106Y022252D02*
X019179Y022325D01*
X019179Y022104D02*
X019179Y022031D01*
X019179Y022068D02*
X018959Y022068D01*
X018959Y022104D02*
X018959Y022031D01*
X018996Y021957D02*
X018959Y021920D01*
X018959Y021810D01*
X019179Y021810D01*
X019179Y021920D01*
X019143Y021957D01*
X018996Y021957D01*
X019919Y021800D02*
X019919Y022242D01*
X019959Y022178D02*
X020179Y022178D01*
X019959Y022031D01*
X020179Y022031D01*
X020179Y021957D02*
X020179Y021810D01*
X019959Y021810D01*
X019959Y021957D01*
X020069Y021883D02*
X020069Y021810D01*
X020959Y021810D02*
X021032Y021883D01*
X020959Y021957D01*
X021179Y021957D01*
X021143Y022031D02*
X021179Y022068D01*
X021179Y022141D01*
X021143Y022178D01*
X021106Y022178D01*
X021069Y022141D01*
X021069Y022068D01*
X021032Y022031D01*
X020996Y022031D01*
X020959Y022068D01*
X020959Y022141D01*
X020996Y022178D01*
X021032Y022252D02*
X020959Y022325D01*
X021179Y022325D01*
X021179Y022252D02*
X021179Y022399D01*
X021179Y021810D02*
X020959Y021810D01*
X021959Y021810D02*
X022032Y021883D01*
X021959Y021957D01*
X022179Y021957D01*
X022143Y022031D02*
X022179Y022068D01*
X022179Y022141D01*
X022143Y022178D01*
X022106Y022178D01*
X022069Y022141D01*
X022069Y022068D01*
X022032Y022031D01*
X021996Y022031D01*
X021959Y022068D01*
X021959Y022141D01*
X021996Y022178D01*
X021996Y022252D02*
X021959Y022289D01*
X021959Y022362D01*
X021996Y022399D01*
X022032Y022399D01*
X022179Y022252D01*
X022179Y022399D01*
X022179Y021810D02*
X021959Y021810D01*
X022959Y021810D02*
X023032Y021883D01*
X022959Y021957D01*
X023179Y021957D01*
X023143Y022031D02*
X023179Y022068D01*
X023179Y022141D01*
X023143Y022178D01*
X023106Y022178D01*
X023069Y022141D01*
X023069Y022068D01*
X023032Y022031D01*
X022996Y022031D01*
X022959Y022068D01*
X022959Y022141D01*
X022996Y022178D01*
X022996Y022252D02*
X022959Y022289D01*
X022959Y022362D01*
X022996Y022399D01*
X023032Y022399D01*
X023069Y022362D01*
X023106Y022399D01*
X023143Y022399D01*
X023179Y022362D01*
X023179Y022289D01*
X023143Y022252D01*
X023069Y022325D02*
X023069Y022362D01*
X023179Y021810D02*
X022959Y021810D01*
X023919Y021800D02*
X023919Y022463D01*
X023959Y022399D02*
X023959Y022252D01*
X023959Y022325D02*
X024179Y022325D01*
X024143Y022178D02*
X024179Y022141D01*
X024179Y022068D01*
X024143Y022031D01*
X024069Y022068D02*
X024069Y022141D01*
X024106Y022178D01*
X024143Y022178D01*
X024069Y022068D02*
X024032Y022031D01*
X023996Y022031D01*
X023959Y022068D01*
X023959Y022141D01*
X023996Y022178D01*
X023996Y021957D02*
X024069Y021957D01*
X024106Y021920D01*
X024106Y021810D01*
X024179Y021810D02*
X023959Y021810D01*
X023959Y021920D01*
X023996Y021957D01*
X024106Y021883D02*
X024179Y021957D01*
X024919Y021800D02*
X024919Y022463D01*
X024996Y022399D02*
X025069Y022399D01*
X025106Y022362D01*
X025106Y022252D01*
X025179Y022252D02*
X024959Y022252D01*
X024959Y022362D01*
X024996Y022399D01*
X025179Y022178D02*
X025179Y022031D01*
X024959Y022031D01*
X024996Y021957D02*
X024959Y021920D01*
X024959Y021847D01*
X024996Y021810D01*
X025032Y021810D01*
X025069Y021847D01*
X025069Y021920D01*
X025106Y021957D01*
X025143Y021957D01*
X025179Y021920D01*
X025179Y021847D01*
X025143Y021810D01*
X025959Y021847D02*
X025996Y021810D01*
X026032Y021810D01*
X026069Y021847D01*
X026069Y021920D01*
X026106Y021957D01*
X026143Y021957D01*
X026179Y021920D01*
X026179Y021847D01*
X026143Y021810D01*
X025959Y021847D02*
X025959Y021920D01*
X025996Y021957D01*
X025959Y022031D02*
X025959Y022178D01*
X025959Y022104D02*
X026179Y022104D01*
X026179Y022252D02*
X026179Y022399D01*
X026179Y022473D02*
X025959Y022473D01*
X025959Y022583D01*
X025996Y022620D01*
X026069Y022620D01*
X026106Y022583D01*
X026106Y022473D01*
X026069Y022325D02*
X026069Y022252D01*
X025959Y022252D02*
X026179Y022252D01*
X025959Y022252D02*
X025959Y022399D01*
X026959Y022288D02*
X026959Y022178D01*
X027179Y022178D01*
X027106Y022178D02*
X027106Y022288D01*
X027069Y022325D01*
X026996Y022325D01*
X026959Y022288D01*
X027106Y022252D02*
X027179Y022325D01*
X027179Y022104D02*
X027179Y022031D01*
X027179Y022068D02*
X026959Y022068D01*
X026959Y022104D02*
X026959Y022031D01*
X026996Y021957D02*
X026959Y021920D01*
X026959Y021810D01*
X027179Y021810D01*
X027179Y021920D01*
X027143Y021957D01*
X026996Y021957D01*
X027919Y021800D02*
X027919Y022242D01*
X027959Y022178D02*
X028179Y022178D01*
X027959Y022031D01*
X028179Y022031D01*
X028179Y021957D02*
X028179Y021810D01*
X027959Y021810D01*
X027959Y021957D01*
X028069Y021883D02*
X028069Y021810D01*
X028959Y021810D02*
X029032Y021883D01*
X028959Y021957D01*
X029179Y021957D01*
X029143Y022031D02*
X029179Y022068D01*
X029179Y022141D01*
X029143Y022178D01*
X029106Y022178D01*
X029069Y022141D01*
X029069Y022068D01*
X029032Y022031D01*
X028996Y022031D01*
X028959Y022068D01*
X028959Y022141D01*
X028996Y022178D01*
X029032Y022252D02*
X028959Y022325D01*
X029179Y022325D01*
X029179Y022252D02*
X029179Y022399D01*
X029179Y021810D02*
X028959Y021810D01*
X029959Y021810D02*
X030032Y021883D01*
X029959Y021957D01*
X030179Y021957D01*
X030143Y022031D02*
X030179Y022068D01*
X030179Y022141D01*
X030143Y022178D01*
X030106Y022178D01*
X030069Y022141D01*
X030069Y022068D01*
X030032Y022031D01*
X029996Y022031D01*
X029959Y022068D01*
X029959Y022141D01*
X029996Y022178D01*
X029996Y022252D02*
X029959Y022289D01*
X029959Y022362D01*
X029996Y022399D01*
X030032Y022399D01*
X030179Y022252D01*
X030179Y022399D01*
X030179Y021810D02*
X029959Y021810D01*
X030959Y021810D02*
X031032Y021883D01*
X030959Y021957D01*
X031179Y021957D01*
X031143Y022031D02*
X031179Y022068D01*
X031179Y022141D01*
X031143Y022178D01*
X031106Y022178D01*
X031069Y022141D01*
X031069Y022068D01*
X031032Y022031D01*
X030996Y022031D01*
X030959Y022068D01*
X030959Y022141D01*
X030996Y022178D01*
X030996Y022252D02*
X030959Y022289D01*
X030959Y022362D01*
X030996Y022399D01*
X031032Y022399D01*
X031069Y022362D01*
X031106Y022399D01*
X031143Y022399D01*
X031179Y022362D01*
X031179Y022289D01*
X031143Y022252D01*
X031069Y022325D02*
X031069Y022362D01*
X031179Y021810D02*
X030959Y021810D01*
X031919Y021800D02*
X031919Y022463D01*
X031959Y022399D02*
X031959Y022252D01*
X031959Y022325D02*
X032179Y022325D01*
X032143Y022178D02*
X032179Y022141D01*
X032179Y022068D01*
X032143Y022031D01*
X032069Y022068D02*
X032069Y022141D01*
X032106Y022178D01*
X032143Y022178D01*
X032069Y022068D02*
X032032Y022031D01*
X031996Y022031D01*
X031959Y022068D01*
X031959Y022141D01*
X031996Y022178D01*
X031996Y021957D02*
X032069Y021957D01*
X032106Y021920D01*
X032106Y021810D01*
X032179Y021810D02*
X031959Y021810D01*
X031959Y021920D01*
X031996Y021957D01*
X032106Y021883D02*
X032179Y021957D01*
X032919Y021800D02*
X032919Y022463D01*
X032996Y022399D02*
X033069Y022399D01*
X033106Y022362D01*
X033106Y022252D01*
X033179Y022252D02*
X032959Y022252D01*
X032959Y022362D01*
X032996Y022399D01*
X033179Y022178D02*
X033179Y022031D01*
X032959Y022031D01*
X032996Y021957D02*
X032959Y021920D01*
X032959Y021847D01*
X032996Y021810D01*
X033032Y021810D01*
X033069Y021847D01*
X033069Y021920D01*
X033106Y021957D01*
X033143Y021957D01*
X033179Y021920D01*
X033179Y021847D01*
X033143Y021810D01*
X033959Y021847D02*
X033996Y021810D01*
X034032Y021810D01*
X034069Y021847D01*
X034069Y021920D01*
X034106Y021957D01*
X034143Y021957D01*
X034179Y021920D01*
X034179Y021847D01*
X034143Y021810D01*
X033959Y021847D02*
X033959Y021920D01*
X033996Y021957D01*
X033959Y022031D02*
X033959Y022178D01*
X033959Y022104D02*
X034179Y022104D01*
X034179Y022252D02*
X034179Y022399D01*
X034179Y022473D02*
X033959Y022473D01*
X033959Y022583D01*
X033996Y022620D01*
X034069Y022620D01*
X034106Y022583D01*
X034106Y022473D01*
X034069Y022325D02*
X034069Y022252D01*
X033959Y022252D02*
X034179Y022252D01*
X033959Y022252D02*
X033959Y022399D01*
X034959Y022288D02*
X034959Y022178D01*
X035179Y022178D01*
X035106Y022178D02*
X035106Y022288D01*
X035069Y022325D01*
X034996Y022325D01*
X034959Y022288D01*
X035106Y022252D02*
X035179Y022325D01*
X035179Y022104D02*
X035179Y022031D01*
X035179Y022068D02*
X034959Y022068D01*
X034959Y022104D02*
X034959Y022031D01*
X034996Y021957D02*
X034959Y021920D01*
X034959Y021810D01*
X035179Y021810D01*
X035179Y021920D01*
X035143Y021957D01*
X034996Y021957D01*
X029997Y028250D02*
X030020Y028273D01*
X030020Y028367D01*
X029997Y028390D01*
X029927Y028390D01*
X029927Y028250D01*
X029997Y028250D01*
X029873Y028250D02*
X029780Y028250D01*
X029780Y028390D01*
X029873Y028390D01*
X029826Y028320D02*
X029780Y028320D01*
X029726Y028250D02*
X029632Y028250D01*
X029632Y028390D01*
X029578Y028343D02*
X029578Y028250D01*
X029578Y028320D02*
X029485Y028320D01*
X029485Y028343D02*
X029532Y028390D01*
X029578Y028343D01*
X029485Y028343D02*
X029485Y028250D01*
X026469Y027108D02*
X026469Y027015D01*
X026469Y027061D02*
X026329Y027061D01*
X026376Y027015D01*
X026469Y026961D02*
X026469Y026867D01*
X026469Y026914D02*
X026329Y026914D01*
X026376Y026867D01*
X026399Y026813D02*
X026423Y026790D01*
X026423Y026720D01*
X026469Y026720D02*
X026329Y026720D01*
X026329Y026790D01*
X026352Y026813D01*
X026399Y026813D01*
X026423Y026767D02*
X026469Y026813D01*
X021735Y028233D02*
X021735Y028327D01*
X021711Y028350D01*
X021641Y028350D01*
X021641Y028210D01*
X021711Y028210D01*
X021735Y028233D01*
X021587Y028210D02*
X021494Y028210D01*
X021494Y028350D01*
X021587Y028350D01*
X021541Y028280D02*
X021494Y028280D01*
X021440Y028210D02*
X021347Y028210D01*
X021347Y028350D01*
X021293Y028350D02*
X021293Y028327D01*
X021199Y028233D01*
X021199Y028210D01*
X021293Y028210D01*
X021293Y028350D02*
X021199Y028350D01*
X019100Y027512D02*
X019077Y027535D01*
X019030Y027535D01*
X019007Y027512D01*
X019007Y027488D01*
X019030Y027465D01*
X019100Y027465D01*
X019100Y027418D02*
X019100Y027512D01*
X019100Y027418D02*
X019077Y027395D01*
X019030Y027395D01*
X019007Y027418D01*
X018953Y027395D02*
X018906Y027442D01*
X018929Y027442D02*
X018859Y027442D01*
X018859Y027395D02*
X018859Y027535D01*
X018929Y027535D01*
X018953Y027512D01*
X018953Y027465D01*
X018929Y027442D01*
X011895Y027367D02*
X011872Y027390D01*
X011802Y027390D01*
X011802Y027250D01*
X011872Y027250D01*
X011895Y027273D01*
X011895Y027367D01*
X011748Y027390D02*
X011655Y027390D01*
X011655Y027250D01*
X011748Y027250D01*
X011701Y027320D02*
X011655Y027320D01*
X011601Y027250D02*
X011507Y027250D01*
X011507Y027390D01*
X011453Y027390D02*
X011453Y027367D01*
X011407Y027320D01*
X011407Y027250D01*
X011407Y027320D02*
X011360Y027367D01*
X011360Y027390D01*
X010594Y027085D02*
X010594Y027038D01*
X010571Y027015D01*
X010477Y027108D01*
X010571Y027108D01*
X010594Y027085D01*
X010571Y027015D02*
X010477Y027015D01*
X010454Y027038D01*
X010454Y027085D01*
X010477Y027108D01*
X010594Y026961D02*
X010594Y026867D01*
X010594Y026914D02*
X010454Y026914D01*
X010501Y026867D01*
X010524Y026813D02*
X010548Y026790D01*
X010548Y026720D01*
X010594Y026720D02*
X010454Y026720D01*
X010454Y026790D01*
X010477Y026813D01*
X010524Y026813D01*
X010548Y026767D02*
X010594Y026813D01*
X006600Y027918D02*
X006577Y027895D01*
X006530Y027895D01*
X006507Y027918D01*
X006507Y027942D01*
X006530Y027965D01*
X006577Y027965D01*
X006600Y027942D01*
X006600Y027918D01*
X006577Y027965D02*
X006600Y027988D01*
X006600Y028012D01*
X006577Y028035D01*
X006530Y028035D01*
X006507Y028012D01*
X006507Y027988D01*
X006530Y027965D01*
X006453Y027965D02*
X006429Y027942D01*
X006359Y027942D01*
X006406Y027942D02*
X006453Y027895D01*
X006453Y027965D02*
X006453Y028012D01*
X006429Y028035D01*
X006359Y028035D01*
X006359Y027895D01*
X005485Y027077D02*
X005461Y027100D01*
X005391Y027100D01*
X005391Y026960D01*
X005461Y026960D01*
X005485Y026983D01*
X005485Y027077D01*
X005337Y027100D02*
X005244Y027100D01*
X005244Y026960D01*
X005337Y026960D01*
X005291Y027030D02*
X005244Y027030D01*
X005190Y026960D02*
X005097Y026960D01*
X005097Y027100D01*
X005043Y027100D02*
X004949Y026960D01*
X005043Y026960D02*
X004949Y027100D01*
X019169Y009486D02*
X019169Y009339D01*
X019169Y009412D02*
X018949Y009412D01*
X019022Y009339D01*
X018949Y009191D02*
X019169Y009191D01*
X019169Y009118D02*
X019169Y009265D01*
X019022Y009118D02*
X018949Y009191D01*
X018986Y009044D02*
X018949Y009007D01*
X018949Y008934D01*
X018986Y008897D01*
X019133Y008897D01*
X019169Y008934D01*
X019169Y009007D01*
X019133Y009044D01*
X020449Y009007D02*
X020449Y008934D01*
X020486Y008897D01*
X020633Y008897D01*
X020669Y008934D01*
X020669Y009007D01*
X020633Y009044D01*
X020669Y009118D02*
X020669Y009265D01*
X020669Y009191D02*
X020449Y009191D01*
X020522Y009118D01*
X020486Y009044D02*
X020449Y009007D01*
X020486Y009339D02*
X020449Y009376D01*
X020449Y009449D01*
X020486Y009486D01*
X020522Y009486D01*
X020669Y009339D01*
X020669Y009486D01*
X027449Y009934D02*
X027486Y009897D01*
X027633Y009897D01*
X027669Y009934D01*
X027669Y010007D01*
X027633Y010044D01*
X027669Y010118D02*
X027669Y010265D01*
X027669Y010191D02*
X027449Y010191D01*
X027522Y010118D01*
X027486Y010044D02*
X027449Y010007D01*
X027449Y009934D01*
X027486Y010339D02*
X027449Y010376D01*
X027449Y010449D01*
X027486Y010486D01*
X027522Y010486D01*
X027559Y010449D01*
X027596Y010486D01*
X027633Y010486D01*
X027669Y010449D01*
X027669Y010376D01*
X027633Y010339D01*
X027559Y010412D02*
X027559Y010449D01*
X035584Y013347D02*
X035621Y013310D01*
X035768Y013310D01*
X035804Y013347D01*
X035804Y013420D01*
X035768Y013457D01*
X035804Y013531D02*
X035804Y013678D01*
X035804Y013604D02*
X035584Y013604D01*
X035657Y013531D01*
X035621Y013457D02*
X035584Y013420D01*
X035584Y013347D01*
X035694Y013752D02*
X035694Y013899D01*
X035584Y013862D02*
X035694Y013752D01*
X035804Y013862D02*
X035584Y013862D01*
X010304Y003112D02*
X010304Y003039D01*
X010268Y003002D01*
X010194Y003002D02*
X010157Y003075D01*
X010157Y003112D01*
X010194Y003149D01*
X010268Y003149D01*
X010304Y003112D01*
X010194Y003002D02*
X010084Y003002D01*
X010084Y003149D01*
X010084Y002854D02*
X010304Y002854D01*
X010304Y002781D02*
X010304Y002928D01*
X010157Y002781D02*
X010084Y002854D01*
X010121Y002707D02*
X010084Y002670D01*
X010084Y002597D01*
X010121Y002560D01*
X010268Y002560D01*
X010304Y002597D01*
X010304Y002670D01*
X010268Y002707D01*
D16*
X004989Y009050D02*
X004987Y009104D01*
X004982Y009158D01*
X004973Y009211D01*
X004960Y009264D01*
X004944Y009315D01*
X004924Y009365D01*
X004901Y009414D01*
X004875Y009462D01*
X004846Y009507D01*
X004813Y009550D01*
X004778Y009591D01*
X004740Y009630D01*
X004700Y009666D01*
X004657Y009699D01*
X004612Y009729D01*
X004565Y009756D01*
X003792Y009745D02*
X003744Y009715D01*
X003699Y009682D01*
X003656Y009646D01*
X003615Y009608D01*
X003578Y009566D01*
X003543Y009522D01*
X003512Y009476D01*
X003483Y009427D01*
X003459Y009377D01*
X003438Y009325D01*
X003420Y009271D01*
X003407Y009217D01*
X003397Y009162D01*
X003391Y009106D01*
X003389Y009050D01*
X003391Y008997D01*
X003396Y008943D01*
X003405Y008891D01*
X003417Y008839D01*
X003433Y008788D01*
X003452Y008738D01*
X003475Y008689D01*
X003501Y008642D01*
X003529Y008597D01*
X003561Y008554D01*
X003595Y008514D01*
X003633Y008475D01*
X003672Y008439D01*
X004701Y008435D02*
X004741Y008471D01*
X004779Y008510D01*
X004814Y008551D01*
X004846Y008594D01*
X004876Y008639D01*
X004902Y008686D01*
X004924Y008735D01*
X004944Y008786D01*
X004960Y008837D01*
X004973Y008889D01*
X004982Y008943D01*
X004987Y008996D01*
X004989Y009050D01*
X016764Y018325D02*
X017064Y018325D01*
X017364Y018325D01*
X017364Y018525D02*
X017064Y018525D01*
X016764Y018525D01*
X018589Y023250D02*
X018589Y023550D01*
X018589Y023850D01*
X018789Y023850D02*
X018789Y023550D01*
X018789Y023250D01*
X020439Y026750D02*
X020493Y026752D01*
X020547Y026757D01*
X020600Y026766D01*
X020653Y026779D01*
X020704Y026795D01*
X020754Y026815D01*
X020803Y026838D01*
X020851Y026864D01*
X020896Y026893D01*
X020939Y026926D01*
X020980Y026961D01*
X021019Y026999D01*
X021055Y027039D01*
X021088Y027082D01*
X021118Y027127D01*
X021145Y027174D01*
X021134Y027947D02*
X021104Y027995D01*
X021071Y028040D01*
X021035Y028083D01*
X020997Y028124D01*
X020955Y028161D01*
X020911Y028196D01*
X020865Y028227D01*
X020816Y028256D01*
X020766Y028280D01*
X020714Y028301D01*
X020660Y028319D01*
X020606Y028332D01*
X020551Y028342D01*
X020495Y028348D01*
X020439Y028350D01*
X020386Y028348D01*
X020332Y028343D01*
X020280Y028334D01*
X020228Y028322D01*
X020177Y028306D01*
X020127Y028287D01*
X020078Y028264D01*
X020031Y028238D01*
X019986Y028210D01*
X019943Y028178D01*
X019903Y028144D01*
X019864Y028106D01*
X019828Y028067D01*
X019824Y027038D02*
X019860Y026998D01*
X019899Y026960D01*
X019940Y026925D01*
X019983Y026893D01*
X020028Y026863D01*
X020075Y026837D01*
X020124Y026815D01*
X020175Y026795D01*
X020226Y026779D01*
X020278Y026766D01*
X020332Y026757D01*
X020385Y026752D01*
X020439Y026750D01*
X025589Y023850D02*
X025589Y023550D01*
X025589Y023250D01*
X025789Y023250D02*
X025789Y023550D01*
X025789Y023850D01*
X028814Y026750D02*
X028868Y026752D01*
X028922Y026757D01*
X028975Y026766D01*
X029028Y026779D01*
X029079Y026795D01*
X029129Y026815D01*
X029178Y026838D01*
X029226Y026864D01*
X029271Y026893D01*
X029314Y026926D01*
X029355Y026961D01*
X029394Y026999D01*
X029430Y027039D01*
X029463Y027082D01*
X029493Y027127D01*
X029520Y027174D01*
X029509Y027947D02*
X029479Y027995D01*
X029446Y028040D01*
X029410Y028083D01*
X029372Y028124D01*
X029330Y028161D01*
X029286Y028196D01*
X029240Y028227D01*
X029191Y028256D01*
X029141Y028280D01*
X029089Y028301D01*
X029035Y028319D01*
X028981Y028332D01*
X028926Y028342D01*
X028870Y028348D01*
X028814Y028350D01*
X028761Y028348D01*
X028707Y028343D01*
X028655Y028334D01*
X028603Y028322D01*
X028552Y028306D01*
X028502Y028287D01*
X028453Y028264D01*
X028406Y028238D01*
X028361Y028210D01*
X028318Y028178D01*
X028278Y028144D01*
X028239Y028106D01*
X028203Y028067D01*
X028199Y027038D02*
X028235Y026998D01*
X028274Y026960D01*
X028315Y026925D01*
X028358Y026893D01*
X028403Y026863D01*
X028450Y026837D01*
X028499Y026815D01*
X028550Y026795D01*
X028601Y026779D01*
X028653Y026766D01*
X028707Y026757D01*
X028760Y026752D01*
X028814Y026750D01*
X013384Y027947D02*
X013354Y027995D01*
X013321Y028040D01*
X013285Y028083D01*
X013247Y028124D01*
X013205Y028161D01*
X013161Y028196D01*
X013115Y028227D01*
X013066Y028256D01*
X013016Y028280D01*
X012964Y028301D01*
X012910Y028319D01*
X012856Y028332D01*
X012801Y028342D01*
X012745Y028348D01*
X012689Y028350D01*
X013395Y027174D02*
X013368Y027127D01*
X013338Y027082D01*
X013305Y027039D01*
X013269Y026999D01*
X013230Y026961D01*
X013189Y026926D01*
X013146Y026893D01*
X013101Y026864D01*
X013053Y026838D01*
X013004Y026815D01*
X012954Y026795D01*
X012903Y026779D01*
X012850Y026766D01*
X012797Y026757D01*
X012743Y026752D01*
X012689Y026750D01*
X012078Y028067D02*
X012114Y028106D01*
X012153Y028144D01*
X012193Y028178D01*
X012236Y028210D01*
X012281Y028238D01*
X012328Y028264D01*
X012377Y028287D01*
X012427Y028306D01*
X012478Y028322D01*
X012530Y028334D01*
X012582Y028343D01*
X012636Y028348D01*
X012689Y028350D01*
X012074Y027038D02*
X012110Y026998D01*
X012149Y026960D01*
X012190Y026925D01*
X012233Y026893D01*
X012278Y026863D01*
X012325Y026837D01*
X012374Y026815D01*
X012425Y026795D01*
X012476Y026779D01*
X012528Y026766D01*
X012582Y026757D01*
X012635Y026752D01*
X012689Y026750D01*
X007789Y024350D02*
X007789Y024050D01*
X007789Y023750D01*
X007589Y023750D02*
X007589Y024050D01*
X007589Y024350D01*
X004884Y027947D02*
X004854Y027995D01*
X004821Y028040D01*
X004785Y028083D01*
X004747Y028124D01*
X004705Y028161D01*
X004661Y028196D01*
X004615Y028227D01*
X004566Y028256D01*
X004516Y028280D01*
X004464Y028301D01*
X004410Y028319D01*
X004356Y028332D01*
X004301Y028342D01*
X004245Y028348D01*
X004189Y028350D01*
X004895Y027174D02*
X004868Y027127D01*
X004838Y027082D01*
X004805Y027039D01*
X004769Y026999D01*
X004730Y026961D01*
X004689Y026926D01*
X004646Y026893D01*
X004601Y026864D01*
X004553Y026838D01*
X004504Y026815D01*
X004454Y026795D01*
X004403Y026779D01*
X004350Y026766D01*
X004297Y026757D01*
X004243Y026752D01*
X004189Y026750D01*
X003578Y028067D02*
X003614Y028106D01*
X003653Y028144D01*
X003693Y028178D01*
X003736Y028210D01*
X003781Y028238D01*
X003828Y028264D01*
X003877Y028287D01*
X003927Y028306D01*
X003978Y028322D01*
X004030Y028334D01*
X004082Y028343D01*
X004136Y028348D01*
X004189Y028350D01*
X003574Y027038D02*
X003610Y026998D01*
X003649Y026960D01*
X003690Y026925D01*
X003733Y026893D01*
X003778Y026863D01*
X003825Y026837D01*
X003874Y026815D01*
X003925Y026795D01*
X003976Y026779D01*
X004028Y026766D01*
X004082Y026757D01*
X004135Y026752D01*
X004189Y026750D01*
D17*
X001441Y030050D02*
X001443Y030105D01*
X001449Y030159D01*
X001459Y030213D01*
X001473Y030265D01*
X001490Y030317D01*
X001512Y030367D01*
X001537Y030416D01*
X001565Y030463D01*
X001597Y030507D01*
X001632Y030549D01*
X001670Y030588D01*
X001711Y030625D01*
X001754Y030658D01*
X001799Y030688D01*
X001847Y030715D01*
X001896Y030738D01*
X001947Y030758D01*
X002000Y030774D01*
X002053Y030786D01*
X002107Y030794D01*
X002162Y030798D01*
X002216Y030798D01*
X002271Y030794D01*
X002325Y030786D01*
X002378Y030774D01*
X002431Y030758D01*
X002482Y030738D01*
X002531Y030715D01*
X002579Y030688D01*
X002624Y030658D01*
X002667Y030625D01*
X002708Y030588D01*
X002746Y030549D01*
X002781Y030507D01*
X002813Y030463D01*
X002841Y030416D01*
X002866Y030367D01*
X002888Y030317D01*
X002905Y030265D01*
X002919Y030213D01*
X002929Y030159D01*
X002935Y030105D01*
X002937Y030050D01*
X002935Y029995D01*
X002929Y029941D01*
X002919Y029887D01*
X002905Y029835D01*
X002888Y029783D01*
X002866Y029733D01*
X002841Y029684D01*
X002813Y029637D01*
X002781Y029593D01*
X002746Y029551D01*
X002708Y029512D01*
X002667Y029475D01*
X002624Y029442D01*
X002579Y029412D01*
X002531Y029385D01*
X002482Y029362D01*
X002431Y029342D01*
X002378Y029326D01*
X002325Y029314D01*
X002271Y029306D01*
X002216Y029302D01*
X002162Y029302D01*
X002107Y029306D01*
X002053Y029314D01*
X002000Y029326D01*
X001947Y029342D01*
X001896Y029362D01*
X001847Y029385D01*
X001799Y029412D01*
X001754Y029442D01*
X001711Y029475D01*
X001670Y029512D01*
X001632Y029551D01*
X001597Y029593D01*
X001565Y029637D01*
X001537Y029684D01*
X001512Y029733D01*
X001490Y029783D01*
X001473Y029835D01*
X001459Y029887D01*
X001449Y029941D01*
X001443Y029995D01*
X001441Y030050D01*
X000534Y014020D02*
X000140Y014020D01*
X000140Y009611D01*
X000534Y009611D01*
X000534Y014020D01*
X003093Y014020D01*
X003093Y009611D01*
X000534Y009611D01*
X000534Y009520D02*
X000534Y005111D01*
X000140Y005111D01*
X000140Y009520D01*
X000534Y009520D01*
X003093Y009520D01*
X003093Y005111D01*
X000534Y005111D01*
X001441Y002550D02*
X001443Y002605D01*
X001449Y002659D01*
X001459Y002713D01*
X001473Y002765D01*
X001490Y002817D01*
X001512Y002867D01*
X001537Y002916D01*
X001565Y002963D01*
X001597Y003007D01*
X001632Y003049D01*
X001670Y003088D01*
X001711Y003125D01*
X001754Y003158D01*
X001799Y003188D01*
X001847Y003215D01*
X001896Y003238D01*
X001947Y003258D01*
X002000Y003274D01*
X002053Y003286D01*
X002107Y003294D01*
X002162Y003298D01*
X002216Y003298D01*
X002271Y003294D01*
X002325Y003286D01*
X002378Y003274D01*
X002431Y003258D01*
X002482Y003238D01*
X002531Y003215D01*
X002579Y003188D01*
X002624Y003158D01*
X002667Y003125D01*
X002708Y003088D01*
X002746Y003049D01*
X002781Y003007D01*
X002813Y002963D01*
X002841Y002916D01*
X002866Y002867D01*
X002888Y002817D01*
X002905Y002765D01*
X002919Y002713D01*
X002929Y002659D01*
X002935Y002605D01*
X002937Y002550D01*
X002935Y002495D01*
X002929Y002441D01*
X002919Y002387D01*
X002905Y002335D01*
X002888Y002283D01*
X002866Y002233D01*
X002841Y002184D01*
X002813Y002137D01*
X002781Y002093D01*
X002746Y002051D01*
X002708Y002012D01*
X002667Y001975D01*
X002624Y001942D01*
X002579Y001912D01*
X002531Y001885D01*
X002482Y001862D01*
X002431Y001842D01*
X002378Y001826D01*
X002325Y001814D01*
X002271Y001806D01*
X002216Y001802D01*
X002162Y001802D01*
X002107Y001806D01*
X002053Y001814D01*
X002000Y001826D01*
X001947Y001842D01*
X001896Y001862D01*
X001847Y001885D01*
X001799Y001912D01*
X001754Y001942D01*
X001711Y001975D01*
X001670Y002012D01*
X001632Y002051D01*
X001597Y002093D01*
X001565Y002137D01*
X001537Y002184D01*
X001512Y002233D01*
X001490Y002283D01*
X001473Y002335D01*
X001459Y002387D01*
X001449Y002441D01*
X001443Y002495D01*
X001441Y002550D01*
X010564Y002550D02*
X011564Y002550D01*
X011564Y004550D01*
X010564Y004550D01*
X010564Y002550D01*
X010814Y003550D02*
X011314Y003550D01*
X017689Y007550D02*
X017689Y009550D01*
X018689Y009550D01*
X018689Y007550D01*
X017689Y007550D01*
X017939Y008550D02*
X018439Y008550D01*
X019439Y008550D02*
X019939Y008550D01*
X020189Y009550D02*
X019189Y009550D01*
X019189Y007550D01*
X020189Y007550D01*
X020189Y009550D01*
X026189Y008550D02*
X026189Y010550D01*
X027189Y010550D01*
X027189Y008550D01*
X026189Y008550D01*
X026439Y009550D02*
X026939Y009550D01*
X036064Y013300D02*
X037064Y013300D01*
X037064Y015300D01*
X036064Y015300D01*
X036064Y013300D01*
X036314Y014300D02*
X036814Y014300D01*
X036941Y002550D02*
X036943Y002605D01*
X036949Y002659D01*
X036959Y002713D01*
X036973Y002765D01*
X036990Y002817D01*
X037012Y002867D01*
X037037Y002916D01*
X037065Y002963D01*
X037097Y003007D01*
X037132Y003049D01*
X037170Y003088D01*
X037211Y003125D01*
X037254Y003158D01*
X037299Y003188D01*
X037347Y003215D01*
X037396Y003238D01*
X037447Y003258D01*
X037500Y003274D01*
X037553Y003286D01*
X037607Y003294D01*
X037662Y003298D01*
X037716Y003298D01*
X037771Y003294D01*
X037825Y003286D01*
X037878Y003274D01*
X037931Y003258D01*
X037982Y003238D01*
X038031Y003215D01*
X038079Y003188D01*
X038124Y003158D01*
X038167Y003125D01*
X038208Y003088D01*
X038246Y003049D01*
X038281Y003007D01*
X038313Y002963D01*
X038341Y002916D01*
X038366Y002867D01*
X038388Y002817D01*
X038405Y002765D01*
X038419Y002713D01*
X038429Y002659D01*
X038435Y002605D01*
X038437Y002550D01*
X038435Y002495D01*
X038429Y002441D01*
X038419Y002387D01*
X038405Y002335D01*
X038388Y002283D01*
X038366Y002233D01*
X038341Y002184D01*
X038313Y002137D01*
X038281Y002093D01*
X038246Y002051D01*
X038208Y002012D01*
X038167Y001975D01*
X038124Y001942D01*
X038079Y001912D01*
X038031Y001885D01*
X037982Y001862D01*
X037931Y001842D01*
X037878Y001826D01*
X037825Y001814D01*
X037771Y001806D01*
X037716Y001802D01*
X037662Y001802D01*
X037607Y001806D01*
X037553Y001814D01*
X037500Y001826D01*
X037447Y001842D01*
X037396Y001862D01*
X037347Y001885D01*
X037299Y001912D01*
X037254Y001942D01*
X037211Y001975D01*
X037170Y002012D01*
X037132Y002051D01*
X037097Y002093D01*
X037065Y002137D01*
X037037Y002184D01*
X037012Y002233D01*
X036990Y002283D01*
X036973Y002335D01*
X036959Y002387D01*
X036949Y002441D01*
X036943Y002495D01*
X036941Y002550D01*
X007889Y011650D02*
X007889Y012443D01*
X007539Y013250D02*
X005839Y013250D01*
X005489Y012455D02*
X005489Y011650D01*
X005839Y010850D02*
X007539Y010850D01*
X005989Y012050D02*
X005991Y012102D01*
X005997Y012154D01*
X006007Y012206D01*
X006020Y012256D01*
X006037Y012306D01*
X006058Y012354D01*
X006083Y012400D01*
X006111Y012444D01*
X006142Y012486D01*
X006176Y012526D01*
X006213Y012563D01*
X006253Y012597D01*
X006295Y012628D01*
X006339Y012656D01*
X006385Y012681D01*
X006433Y012702D01*
X006483Y012719D01*
X006533Y012732D01*
X006585Y012742D01*
X006637Y012748D01*
X006689Y012750D01*
X006741Y012748D01*
X006793Y012742D01*
X006845Y012732D01*
X006895Y012719D01*
X006945Y012702D01*
X006993Y012681D01*
X007039Y012656D01*
X007083Y012628D01*
X007125Y012597D01*
X007165Y012563D01*
X007202Y012526D01*
X007236Y012486D01*
X007267Y012444D01*
X007295Y012400D01*
X007320Y012354D01*
X007341Y012306D01*
X007358Y012256D01*
X007371Y012206D01*
X007381Y012154D01*
X007387Y012102D01*
X007389Y012050D01*
X007387Y011998D01*
X007381Y011946D01*
X007371Y011894D01*
X007358Y011844D01*
X007341Y011794D01*
X007320Y011746D01*
X007295Y011700D01*
X007267Y011656D01*
X007236Y011614D01*
X007202Y011574D01*
X007165Y011537D01*
X007125Y011503D01*
X007083Y011472D01*
X007039Y011444D01*
X006993Y011419D01*
X006945Y011398D01*
X006895Y011381D01*
X006845Y011368D01*
X006793Y011358D01*
X006741Y011352D01*
X006689Y011350D01*
X006637Y011352D01*
X006585Y011358D01*
X006533Y011368D01*
X006483Y011381D01*
X006433Y011398D01*
X006385Y011419D01*
X006339Y011444D01*
X006295Y011472D01*
X006253Y011503D01*
X006213Y011537D01*
X006176Y011574D01*
X006142Y011614D01*
X006111Y011656D01*
X006083Y011700D01*
X006058Y011746D01*
X006037Y011794D01*
X006020Y011844D01*
X006007Y011894D01*
X005997Y011946D01*
X005991Y011998D01*
X005989Y012050D01*
X036941Y030050D02*
X036943Y030105D01*
X036949Y030159D01*
X036959Y030213D01*
X036973Y030265D01*
X036990Y030317D01*
X037012Y030367D01*
X037037Y030416D01*
X037065Y030463D01*
X037097Y030507D01*
X037132Y030549D01*
X037170Y030588D01*
X037211Y030625D01*
X037254Y030658D01*
X037299Y030688D01*
X037347Y030715D01*
X037396Y030738D01*
X037447Y030758D01*
X037500Y030774D01*
X037553Y030786D01*
X037607Y030794D01*
X037662Y030798D01*
X037716Y030798D01*
X037771Y030794D01*
X037825Y030786D01*
X037878Y030774D01*
X037931Y030758D01*
X037982Y030738D01*
X038031Y030715D01*
X038079Y030688D01*
X038124Y030658D01*
X038167Y030625D01*
X038208Y030588D01*
X038246Y030549D01*
X038281Y030507D01*
X038313Y030463D01*
X038341Y030416D01*
X038366Y030367D01*
X038388Y030317D01*
X038405Y030265D01*
X038419Y030213D01*
X038429Y030159D01*
X038435Y030105D01*
X038437Y030050D01*
X038435Y029995D01*
X038429Y029941D01*
X038419Y029887D01*
X038405Y029835D01*
X038388Y029783D01*
X038366Y029733D01*
X038341Y029684D01*
X038313Y029637D01*
X038281Y029593D01*
X038246Y029551D01*
X038208Y029512D01*
X038167Y029475D01*
X038124Y029442D01*
X038079Y029412D01*
X038031Y029385D01*
X037982Y029362D01*
X037931Y029342D01*
X037878Y029326D01*
X037825Y029314D01*
X037771Y029306D01*
X037716Y029302D01*
X037662Y029302D01*
X037607Y029306D01*
X037553Y029314D01*
X037500Y029326D01*
X037447Y029342D01*
X037396Y029362D01*
X037347Y029385D01*
X037299Y029412D01*
X037254Y029442D01*
X037211Y029475D01*
X037170Y029512D01*
X037132Y029551D01*
X037097Y029593D01*
X037065Y029637D01*
X037037Y029684D01*
X037012Y029733D01*
X036990Y029783D01*
X036973Y029835D01*
X036959Y029887D01*
X036949Y029941D01*
X036943Y029995D01*
X036941Y030050D01*
D18*
X002594Y013233D02*
X002594Y013183D01*
X002569Y013158D01*
X002594Y013110D02*
X002594Y013010D01*
X002494Y013110D01*
X002469Y013110D01*
X002444Y013085D01*
X002444Y013035D01*
X002469Y013010D01*
X002469Y012963D02*
X002519Y012963D01*
X002544Y012938D01*
X002544Y012863D01*
X002594Y012863D02*
X002444Y012863D01*
X002444Y012938D01*
X002469Y012963D01*
X002444Y012816D02*
X002444Y012766D01*
X002444Y012791D02*
X002569Y012791D01*
X002594Y012766D01*
X002594Y012741D01*
X002569Y012716D01*
X002469Y013158D02*
X002444Y013183D01*
X002444Y013233D01*
X002469Y013258D01*
X002494Y013258D01*
X002519Y013233D01*
X002544Y013258D01*
X002569Y013258D01*
X002594Y013233D01*
X002519Y013233D02*
X002519Y013208D01*
X002519Y008758D02*
X002569Y008758D01*
X002594Y008733D01*
X002594Y008683D01*
X002569Y008658D01*
X002519Y008658D02*
X002494Y008708D01*
X002494Y008733D01*
X002519Y008758D01*
X002444Y008758D02*
X002444Y008658D01*
X002519Y008658D01*
X002519Y008610D02*
X002544Y008585D01*
X002544Y008510D01*
X002594Y008510D02*
X002444Y008510D01*
X002444Y008585D01*
X002469Y008610D01*
X002519Y008610D01*
X002444Y008463D02*
X002444Y008413D01*
X002444Y008438D02*
X002569Y008438D01*
X002594Y008413D01*
X002594Y008388D01*
X002569Y008363D01*
D19*
X007189Y001200D03*
D20*
X008914Y001450D03*
X005464Y001450D03*
D21*
X006689Y001450D03*
X007689Y001450D03*
D22*
X020839Y006350D02*
X020839Y008750D01*
X020841Y008807D01*
X020847Y008863D01*
X020856Y008919D01*
X020869Y008975D01*
X020886Y009029D01*
X020906Y009082D01*
X020930Y009133D01*
X020958Y009183D01*
X020988Y009231D01*
X021022Y009277D01*
X021059Y009320D01*
X021098Y009361D01*
X021140Y009399D01*
X021185Y009434D01*
X021232Y009466D01*
X021281Y009495D01*
X021331Y009521D01*
X021384Y009543D01*
X021437Y009562D01*
X021492Y009577D01*
X021548Y009588D01*
X021604Y009596D01*
X021661Y009600D01*
X021717Y009600D01*
X021774Y009596D01*
X021830Y009588D01*
X021886Y009577D01*
X021941Y009562D01*
X021994Y009543D01*
X022047Y009521D01*
X022097Y009495D01*
X022146Y009466D01*
X022193Y009434D01*
X022238Y009399D01*
X022280Y009361D01*
X022319Y009320D01*
X022356Y009277D01*
X022390Y009231D01*
X022420Y009183D01*
X022448Y009133D01*
X022472Y009082D01*
X022492Y009029D01*
X022509Y008975D01*
X022522Y008919D01*
X022531Y008863D01*
X022537Y008807D01*
X022539Y008750D01*
X022539Y006350D01*
X022537Y006293D01*
X022531Y006237D01*
X022522Y006181D01*
X022509Y006125D01*
X022492Y006071D01*
X022472Y006018D01*
X022448Y005967D01*
X022420Y005917D01*
X022390Y005869D01*
X022356Y005823D01*
X022319Y005780D01*
X022280Y005739D01*
X022238Y005701D01*
X022193Y005666D01*
X022146Y005634D01*
X022097Y005605D01*
X022047Y005579D01*
X021994Y005557D01*
X021941Y005538D01*
X021886Y005523D01*
X021830Y005512D01*
X021774Y005504D01*
X021717Y005500D01*
X021661Y005500D01*
X021604Y005504D01*
X021548Y005512D01*
X021492Y005523D01*
X021437Y005538D01*
X021384Y005557D01*
X021331Y005579D01*
X021281Y005605D01*
X021232Y005634D01*
X021185Y005666D01*
X021140Y005701D01*
X021098Y005739D01*
X021059Y005780D01*
X021022Y005823D01*
X020988Y005869D01*
X020958Y005917D01*
X020930Y005967D01*
X020906Y006018D01*
X020886Y006071D01*
X020869Y006125D01*
X020856Y006181D01*
X020847Y006237D01*
X020841Y006293D01*
X020839Y006350D01*
D23*
X024169Y004234D02*
X024227Y004234D01*
X024461Y004001D01*
X024519Y004001D01*
X024519Y003875D02*
X024402Y003758D01*
X024402Y003817D02*
X024402Y003642D01*
X024519Y003642D02*
X024169Y003642D01*
X024169Y003817D01*
X024227Y003875D01*
X024344Y003875D01*
X024402Y003817D01*
X024169Y004001D02*
X024169Y004234D01*
X034109Y006280D02*
X034109Y006455D01*
X034167Y006513D01*
X034284Y006513D01*
X034342Y006455D01*
X034342Y006280D01*
X034342Y006397D02*
X034459Y006513D01*
X034284Y006639D02*
X034284Y006872D01*
X034109Y006814D02*
X034284Y006639D01*
X034459Y006814D02*
X034109Y006814D01*
X034109Y006280D02*
X034459Y006280D01*
X033084Y013280D02*
X032734Y013280D01*
X032734Y013455D01*
X032792Y013513D01*
X032909Y013513D01*
X032967Y013455D01*
X032967Y013280D01*
X032967Y013397D02*
X033084Y013513D01*
X033026Y013639D02*
X033084Y013697D01*
X033084Y013814D01*
X033026Y013872D01*
X032967Y013872D01*
X032909Y013814D01*
X032909Y013756D01*
X032909Y013814D02*
X032851Y013872D01*
X032792Y013872D01*
X032734Y013814D01*
X032734Y013697D01*
X032792Y013639D01*
X014012Y008822D02*
X014012Y008763D01*
X013778Y008530D01*
X014012Y008530D01*
X014012Y008822D02*
X013953Y008880D01*
X013837Y008880D01*
X013778Y008822D01*
X013653Y008822D02*
X013653Y008705D01*
X013594Y008647D01*
X013419Y008647D01*
X013536Y008647D02*
X013653Y008530D01*
X013419Y008530D02*
X013419Y008880D01*
X013594Y008880D01*
X013653Y008822D01*
X011019Y008176D02*
X011019Y008059D01*
X010961Y008001D01*
X010844Y008001D01*
X010844Y008176D01*
X010902Y008234D01*
X010961Y008234D01*
X011019Y008176D01*
X010844Y008001D02*
X010727Y008118D01*
X010669Y008234D01*
X010727Y007875D02*
X010844Y007875D01*
X010902Y007817D01*
X010902Y007642D01*
X010902Y007758D02*
X011019Y007875D01*
X011019Y007642D02*
X010669Y007642D01*
X010669Y007817D01*
X010727Y007875D01*
D24*
X004689Y007100D02*
X004689Y007000D01*
X018689Y027375D02*
X018689Y027475D01*
X011064Y027500D02*
X011064Y027600D01*
X006489Y028300D02*
X006389Y028300D01*
X026939Y027600D02*
X026939Y027500D01*
D25*
X025659Y030050D03*
X021719Y030050D03*
X017659Y030050D03*
X013719Y030050D03*
X009659Y030050D03*
X005719Y030050D03*
X029719Y030050D03*
X033659Y030050D03*
M02*
