G75*
G70*
%OFA0B0*%
%FSLAX24Y24*%
%IPPOS*%
%LPD*%
%AMOC8*
5,1,8,0,0,1.08239X$1,22.5*
%
%ADD10C,0.0000*%
%ADD11C,0.0480*%
%ADD12C,0.0560*%
%ADD13C,0.0560*%
%ADD14OC8,0.0600*%
%ADD15OC8,0.0480*%
%ADD16OC8,0.0630*%
%ADD17C,0.0630*%
%ADD18C,0.0480*%
%ADD19C,0.0740*%
%ADD20C,0.2300*%
%ADD21OC8,0.0540*%
%ADD22C,0.0780*%
%ADD23C,0.0600*%
%ADD24R,0.0740X0.0740*%
%ADD25C,0.0780*%
%ADD26C,0.0540*%
%ADD27C,0.0160*%
%ADD28C,0.0270*%
%ADD29C,0.0400*%
%ADD30C,0.0500*%
D10*
X000280Y000250D02*
X000280Y031746D01*
X039650Y031746D01*
X039650Y000250D01*
X000280Y000250D01*
D11*
X010030Y008760D02*
X010030Y009240D01*
X011030Y009240D02*
X011030Y008760D01*
X012030Y008760D02*
X012030Y009240D01*
X013030Y009240D02*
X013030Y008760D01*
X014030Y008760D02*
X014030Y009240D01*
X015030Y009240D02*
X015030Y008760D01*
X016030Y008760D02*
X016030Y009240D01*
X017030Y009240D02*
X017030Y008760D01*
X018030Y008760D02*
X018030Y009240D01*
X019030Y009240D02*
X019030Y008760D01*
X020030Y008760D02*
X020030Y009240D01*
X021030Y009240D02*
X021030Y008760D01*
X022030Y008760D02*
X022030Y009240D01*
X023030Y009240D02*
X023030Y008760D01*
X023030Y011760D02*
X023030Y012240D01*
X022030Y012240D02*
X022030Y011760D01*
X021030Y011760D02*
X021030Y012240D01*
X020030Y012240D02*
X020030Y011760D01*
X019030Y011760D02*
X019030Y012240D01*
X018030Y012240D02*
X018030Y011760D01*
X017030Y011760D02*
X017030Y012240D01*
X016030Y012240D02*
X016030Y011760D01*
X015030Y011760D02*
X015030Y012240D01*
X014030Y012240D02*
X014030Y011760D01*
X013030Y011760D02*
X013030Y012240D01*
X012030Y012240D02*
X012030Y011760D01*
X011030Y011760D02*
X011030Y012240D01*
X010030Y012240D02*
X010030Y011760D01*
X033032Y012050D02*
X033032Y012530D01*
X034032Y012530D02*
X034032Y012050D01*
X035032Y012050D02*
X035032Y012530D01*
X036032Y012530D02*
X036032Y012050D01*
X036032Y010498D02*
X036032Y010018D01*
X035032Y010018D02*
X035032Y010498D01*
X034032Y010498D02*
X034032Y010018D01*
X033032Y010018D02*
X033032Y010498D01*
X033032Y007018D02*
X033032Y006538D01*
X034032Y006538D02*
X034032Y007018D01*
X035032Y007018D02*
X035032Y006538D01*
X036032Y006538D02*
X036032Y007018D01*
X036032Y015530D02*
X036032Y016010D01*
X035032Y016010D02*
X035032Y015530D01*
X034032Y015530D02*
X034032Y016010D01*
X033032Y016010D02*
X033032Y015530D01*
D12*
X032857Y019797D03*
X033857Y019797D03*
X034857Y019797D03*
X035857Y019797D03*
X031857Y019797D03*
X030857Y019797D03*
X029857Y019797D03*
X028857Y019797D03*
X027590Y019797D03*
X026590Y019797D03*
X025590Y019797D03*
X024590Y019797D03*
X023590Y019797D03*
X022590Y019797D03*
X021590Y019797D03*
X020590Y019797D03*
X019322Y019797D03*
X018322Y019797D03*
X017322Y019797D03*
X016322Y019797D03*
X015322Y019797D03*
X014322Y019797D03*
X013322Y019797D03*
X012322Y019797D03*
X011054Y019797D03*
X010054Y019797D03*
X009054Y019797D03*
X008054Y019797D03*
X007054Y019797D03*
X006054Y019797D03*
X005054Y019797D03*
X004054Y019797D03*
D13*
X004054Y024517D02*
X004054Y025077D01*
X005054Y025077D02*
X005054Y024517D01*
X006054Y024517D02*
X006054Y025077D01*
X007054Y025077D02*
X007054Y024517D01*
X008054Y024517D02*
X008054Y025077D01*
X009054Y025077D02*
X009054Y024517D01*
X010054Y024517D02*
X010054Y025077D01*
X011054Y025077D02*
X011054Y024517D01*
X012322Y024517D02*
X012322Y025077D01*
X013322Y025077D02*
X013322Y024517D01*
X014322Y024517D02*
X014322Y025077D01*
X015322Y025077D02*
X015322Y024517D01*
X016322Y024517D02*
X016322Y025077D01*
X017322Y025077D02*
X017322Y024517D01*
X018322Y024517D02*
X018322Y025077D01*
X019322Y025077D02*
X019322Y024517D01*
X020590Y024517D02*
X020590Y025077D01*
X021590Y025077D02*
X021590Y024517D01*
X022590Y024517D02*
X022590Y025077D01*
X023590Y025077D02*
X023590Y024517D01*
X024590Y024517D02*
X024590Y025077D01*
X025590Y025077D02*
X025590Y024517D01*
X026590Y024517D02*
X026590Y025077D01*
X027590Y025077D02*
X027590Y024517D01*
X028857Y024517D02*
X028857Y025077D01*
X029857Y025077D02*
X029857Y024517D01*
X030857Y024517D02*
X030857Y025077D01*
X031857Y025077D02*
X031857Y024517D01*
X032857Y024517D02*
X032857Y025077D01*
X033857Y025077D02*
X033857Y024517D01*
X034857Y024517D02*
X034857Y025077D01*
X035857Y025077D02*
X035857Y024517D01*
D14*
X030995Y018073D03*
X029995Y018073D03*
X028995Y018073D03*
X028995Y017073D03*
X029995Y017073D03*
X030995Y017073D03*
X027468Y015125D03*
X026468Y015125D03*
X026468Y014125D03*
X027468Y014125D03*
X025468Y014125D03*
X025468Y015125D03*
X022727Y017073D03*
X021727Y017073D03*
X020727Y017073D03*
X020727Y018073D03*
X021727Y018073D03*
X022727Y018073D03*
X027530Y011625D03*
X027530Y010625D03*
X028530Y010625D03*
X029530Y010625D03*
X029530Y011625D03*
X028530Y011625D03*
X023030Y005625D03*
X022030Y005625D03*
X022030Y004625D03*
X023030Y004625D03*
X023030Y003625D03*
X022030Y003625D03*
X014460Y017073D03*
X014460Y018073D03*
X013460Y018073D03*
X012460Y018073D03*
X012460Y017073D03*
X013460Y017073D03*
X006192Y017073D03*
X005192Y017073D03*
X005192Y018073D03*
X006192Y018073D03*
X004192Y018073D03*
X004192Y017073D03*
D15*
X007751Y016573D03*
X007751Y017573D03*
X013030Y013250D03*
X014030Y013250D03*
X015030Y013250D03*
X016030Y013250D03*
X018030Y013188D03*
X019030Y013188D03*
X019030Y014563D03*
X018030Y014563D03*
X016019Y016573D03*
X016019Y017573D03*
X024286Y017573D03*
X024286Y016573D03*
X032554Y016573D03*
X032554Y017573D03*
X034032Y011274D03*
X035032Y011274D03*
X034957Y005475D03*
X034957Y004475D03*
X032989Y004475D03*
X032989Y005475D03*
X031020Y005475D03*
X031020Y004475D03*
X005155Y002000D03*
X004155Y002000D03*
X010194Y026038D03*
X011194Y026038D03*
X018462Y026038D03*
X019462Y026038D03*
X026730Y026038D03*
X027730Y026038D03*
X034998Y026038D03*
X035998Y026038D03*
D16*
X029011Y027719D03*
X020743Y027719D03*
X012475Y027719D03*
X004208Y027719D03*
X007530Y011750D03*
X007530Y007750D03*
D17*
X007530Y008750D03*
X007530Y010750D03*
X004208Y026719D03*
X012475Y026719D03*
X020743Y026719D03*
X029011Y026719D03*
D18*
X015480Y014750D03*
X013580Y014750D03*
D19*
X016030Y018625D03*
X019030Y018625D03*
X020812Y014765D03*
X020812Y012985D03*
X023372Y012985D03*
X024530Y012000D03*
X025530Y012000D03*
X025530Y009000D03*
X024530Y009000D03*
X027280Y005500D03*
X028405Y005500D03*
X029530Y005500D03*
X030841Y007018D03*
X031973Y007018D03*
X031973Y010018D03*
X030841Y010018D03*
X030841Y012530D03*
X031973Y012530D03*
X031973Y015530D03*
X030841Y015530D03*
X032593Y018625D03*
X035593Y018625D03*
X027280Y018625D03*
X024280Y018625D03*
X023372Y014765D03*
X010780Y018625D03*
X007780Y018625D03*
X005280Y010750D03*
X005280Y009750D03*
X004780Y006750D03*
X004780Y003750D03*
X027280Y002500D03*
X028405Y002500D03*
X029530Y002500D03*
D20*
X038075Y001825D03*
X038075Y030171D03*
X001855Y030171D03*
X001855Y001825D03*
D21*
X008280Y003125D03*
X009280Y003125D03*
X010280Y003125D03*
X011280Y003125D03*
X012280Y003125D03*
X013280Y003125D03*
X014280Y003125D03*
X015280Y003125D03*
X015280Y004125D03*
X014280Y004125D03*
X013280Y004125D03*
X012280Y004125D03*
X011280Y004125D03*
X010280Y004125D03*
X009280Y004125D03*
X008280Y004125D03*
D22*
X001920Y004760D02*
X001140Y004760D01*
X001140Y006740D02*
X001920Y006740D01*
X001920Y008760D02*
X001140Y008760D01*
X001140Y010740D02*
X001920Y010740D01*
X001920Y012760D02*
X001140Y012760D01*
X001140Y014740D02*
X001920Y014740D01*
X004594Y029781D02*
X004594Y030561D01*
X006574Y030561D02*
X006574Y029781D01*
X008534Y029781D02*
X008534Y030561D01*
X010514Y030561D02*
X010514Y029781D01*
X012862Y029781D02*
X012862Y030561D01*
X014842Y030561D02*
X014842Y029781D01*
X016802Y029781D02*
X016802Y030561D01*
X018782Y030561D02*
X018782Y029781D01*
X021130Y029781D02*
X021130Y030561D01*
X023110Y030561D02*
X023110Y029781D01*
X025070Y029781D02*
X025070Y030561D01*
X027050Y030561D02*
X027050Y029781D01*
X029397Y029781D02*
X029397Y030561D01*
X031377Y030561D02*
X031377Y029781D01*
X033337Y029781D02*
X033337Y030561D01*
X035317Y030561D02*
X035317Y029781D01*
X038015Y019303D02*
X038795Y019303D01*
X038795Y017323D02*
X038015Y017323D01*
D23*
X037980Y015000D02*
X038580Y015000D01*
X038580Y014000D02*
X037980Y014000D01*
X037980Y013000D02*
X038580Y013000D01*
X038580Y012000D02*
X037980Y012000D01*
X037980Y009250D02*
X038580Y009250D01*
X038580Y008250D02*
X037980Y008250D01*
X037980Y007250D02*
X038580Y007250D01*
X038580Y006250D02*
X037980Y006250D01*
X037980Y005250D02*
X038580Y005250D01*
X038580Y004250D02*
X037980Y004250D01*
X035257Y003219D02*
X034657Y003219D01*
X033289Y003219D02*
X032689Y003219D01*
X031320Y003219D02*
X030720Y003219D01*
X030720Y002219D02*
X031320Y002219D01*
X031320Y001219D02*
X030720Y001219D01*
X032689Y001219D02*
X033289Y001219D01*
X033289Y002219D02*
X032689Y002219D01*
X034657Y002219D02*
X035257Y002219D01*
X035257Y001219D02*
X034657Y001219D01*
D24*
X005280Y008750D03*
D25*
X018030Y005563D03*
X018030Y001563D03*
D26*
X037218Y010355D02*
X037218Y010895D01*
X038218Y010895D02*
X038218Y010355D01*
D27*
X037280Y010750D02*
X037218Y010625D01*
X037280Y010750D02*
X037280Y009500D01*
X037320Y009460D01*
X037068Y009458D01*
X036032Y009458D01*
X036032Y010018D01*
X036032Y011058D01*
X035808Y011058D01*
X035592Y011274D01*
X035032Y011274D01*
X034032Y011274D02*
X034032Y010018D01*
X035715Y008334D01*
X036916Y008334D01*
X038250Y007250D01*
X038280Y007250D01*
X038280Y006250D02*
X038250Y006250D01*
X036500Y007750D01*
X035701Y007750D01*
X033491Y009961D01*
X033491Y010638D01*
X031973Y012156D01*
X031973Y012530D01*
X033123Y013068D02*
X034055Y014000D01*
X038280Y014000D01*
X038280Y015000D02*
X037500Y015000D01*
X036903Y014403D01*
X031828Y014403D01*
X029530Y012105D01*
X029530Y011625D01*
X028530Y011625D02*
X028530Y011750D01*
X028030Y012250D01*
X026780Y012250D01*
X025780Y011250D01*
X022280Y011250D01*
X022030Y011500D01*
X022030Y012000D01*
X023030Y012000D02*
X023030Y012660D01*
X023048Y012660D01*
X023372Y012985D01*
X023030Y012660D02*
X022705Y012985D01*
X020812Y012985D01*
X020624Y013601D02*
X019683Y012660D01*
X018030Y012660D01*
X018030Y012000D01*
X017030Y012000D02*
X017030Y011500D01*
X018030Y010500D01*
X023280Y010500D01*
X024530Y009250D01*
X024530Y009000D01*
X023030Y007500D01*
X022482Y008049D01*
X016322Y008049D01*
X016030Y008340D01*
X016030Y008670D01*
X016030Y009000D01*
X016030Y008670D02*
X015700Y008340D01*
X015030Y008340D01*
X015030Y009000D01*
X013996Y007374D02*
X013030Y008340D01*
X013030Y009000D01*
X012030Y009000D02*
X012030Y004986D01*
X019855Y004986D01*
X019995Y005125D01*
X022249Y005125D01*
X022550Y004824D01*
X022550Y004625D01*
X023030Y004625D01*
X023510Y004625D01*
X025635Y002500D01*
X027280Y002500D01*
X028507Y003728D01*
X033513Y003728D01*
X033815Y003425D01*
X033815Y003321D01*
X034437Y002699D01*
X034957Y002699D01*
X034957Y002219D01*
X032989Y002219D02*
X032989Y002699D01*
X030118Y002699D01*
X029765Y003052D01*
X028957Y003052D01*
X028405Y002500D01*
X028968Y001938D02*
X019709Y001938D01*
X018040Y003607D01*
X013072Y003607D01*
X012730Y003265D01*
X012730Y003125D01*
X012280Y003125D01*
X012405Y002250D02*
X009030Y002250D01*
X008280Y003000D01*
X008280Y003125D01*
X008811Y003931D02*
X009167Y003575D01*
X009280Y003575D01*
X009280Y003125D01*
X009821Y002946D02*
X009821Y007131D01*
X011030Y008340D01*
X011030Y009000D01*
X011530Y009339D02*
X011876Y009686D01*
X023005Y009686D01*
X023030Y009660D01*
X023030Y009000D01*
X023455Y008562D02*
X023233Y008340D01*
X022030Y008340D01*
X022030Y009000D01*
X023119Y009950D02*
X023455Y009614D01*
X023455Y008562D01*
X023030Y007500D02*
X023030Y005625D01*
X022030Y005625D02*
X021550Y005625D01*
X019801Y007374D01*
X013996Y007374D01*
X011530Y006943D02*
X011530Y009339D01*
X011139Y009950D02*
X023119Y009950D01*
X023655Y010875D02*
X024530Y010000D01*
X028030Y010000D01*
X028530Y010500D01*
X028530Y010625D01*
X028311Y011125D02*
X028010Y011426D01*
X028010Y011625D01*
X027530Y011625D01*
X028311Y011125D02*
X030866Y011125D01*
X031973Y010018D01*
X032540Y009457D02*
X032540Y010831D01*
X030841Y012530D01*
X029108Y012933D02*
X030868Y014693D01*
X036462Y014693D01*
X038210Y016440D01*
X038218Y016440D01*
X038405Y017323D01*
X035857Y019797D02*
X033147Y017087D01*
X032429Y017087D01*
X031623Y016281D01*
X030781Y016281D01*
X029126Y014625D01*
X027249Y014625D01*
X026948Y014324D01*
X026948Y014125D01*
X026468Y014125D01*
X025968Y013945D02*
X025624Y013601D01*
X020624Y013601D01*
X020610Y014563D02*
X019030Y014563D01*
X018342Y015250D01*
X017280Y015250D01*
X017030Y015250D01*
X016780Y015500D01*
X014530Y015500D01*
X014358Y016133D02*
X011030Y012805D01*
X011030Y012000D01*
X010030Y012000D02*
X010030Y011340D01*
X008811Y010121D01*
X008811Y003931D01*
X009280Y004125D02*
X009280Y007057D01*
X010530Y008307D01*
X010530Y009341D01*
X011139Y009950D01*
X012030Y012000D02*
X012030Y012660D01*
X014041Y012660D01*
X014455Y013074D01*
X014455Y013277D01*
X015104Y013926D01*
X024789Y013926D01*
X024987Y014125D01*
X025468Y014125D01*
X025968Y013945D02*
X025968Y017313D01*
X027280Y018625D01*
X027590Y019797D02*
X024865Y017073D01*
X023907Y017073D01*
X022967Y016133D01*
X014358Y016133D01*
X014460Y017073D02*
X013460Y017073D01*
X012460Y017073D01*
X006192Y017073D01*
X005692Y016868D02*
X009899Y012660D01*
X010030Y012660D01*
X010030Y012000D01*
X007530Y010750D02*
X005280Y010750D01*
X010280Y005693D02*
X011530Y006943D01*
X010280Y005693D02*
X010280Y004125D01*
X010730Y004223D02*
X011492Y004986D01*
X012030Y004986D01*
X012162Y004650D02*
X011730Y004218D01*
X011730Y004125D01*
X011280Y004125D01*
X010730Y004223D02*
X010730Y003913D01*
X010393Y003575D01*
X010280Y003575D01*
X010280Y003125D01*
X009821Y002946D02*
X010107Y002660D01*
X010478Y002660D01*
X010830Y003013D01*
X010830Y003125D01*
X011280Y003125D01*
X012405Y002250D02*
X013280Y003125D01*
X014280Y003125D01*
X015280Y004125D02*
X015730Y004125D01*
X015940Y004335D01*
X016719Y004335D01*
X012162Y004650D02*
X021525Y004650D01*
X021550Y004625D01*
X022030Y004625D01*
X025530Y004250D02*
X025530Y009000D01*
X025101Y009571D02*
X024530Y009000D01*
X025101Y009571D02*
X026217Y009571D01*
X026331Y009457D01*
X032540Y009457D01*
X032540Y008930D01*
X034032Y007438D01*
X034032Y007018D01*
X033961Y006050D02*
X027830Y006050D01*
X027280Y005500D01*
X028405Y005500D02*
X028955Y004950D01*
X032044Y004950D01*
X032569Y005475D01*
X032989Y005475D01*
X033961Y006050D02*
X034537Y005475D01*
X034957Y005475D01*
X031020Y005475D02*
X029556Y005475D01*
X029530Y005500D01*
X029530Y002500D02*
X029811Y002219D01*
X031020Y002219D01*
X031020Y001219D02*
X032989Y001219D01*
X029530Y002500D02*
X028968Y001938D01*
X037320Y009460D02*
X037610Y009250D01*
X038280Y009250D01*
X034887Y014965D02*
X031406Y014965D01*
X030841Y015530D01*
X030495Y016891D02*
X029346Y015741D01*
X027365Y015741D01*
X026948Y015324D01*
X026948Y015125D01*
X026468Y015125D01*
X024280Y015500D02*
X023545Y014765D01*
X023372Y014765D01*
X024280Y015500D02*
X024280Y016567D01*
X024286Y016573D01*
X022727Y017073D02*
X021727Y017073D01*
X020727Y017073D01*
X014460Y017073D01*
X012530Y015500D02*
X011457Y016573D01*
X007751Y016573D01*
X005692Y016868D02*
X005692Y019011D01*
X005589Y019114D01*
X005589Y020257D01*
X011862Y020257D01*
X012322Y019797D01*
X012782Y020258D01*
X020129Y020258D01*
X020590Y019797D01*
X021050Y020258D01*
X028397Y020258D01*
X028857Y019797D01*
X029995Y018553D02*
X030857Y019415D01*
X030857Y019797D01*
X031567Y019331D02*
X030495Y018259D01*
X030495Y016891D01*
X029995Y018073D02*
X029995Y018553D01*
X031567Y019331D02*
X034391Y019331D01*
X034857Y019797D01*
X033857Y019797D02*
X032857Y019797D01*
X033032Y015530D02*
X034032Y015530D01*
X035032Y015530D02*
X035032Y015110D01*
X034887Y014965D01*
X029108Y012933D02*
X025462Y012933D01*
X024530Y012000D01*
X023655Y010875D02*
X021405Y010875D01*
X021030Y011250D01*
X021030Y012000D01*
X020610Y014563D02*
X020812Y014765D01*
X017030Y015250D02*
X015968Y014313D01*
X016322Y019797D02*
X017322Y019797D01*
X018322Y024797D02*
X018322Y025897D01*
X018462Y026038D01*
X019780Y027356D01*
X019780Y031000D01*
X019280Y031500D01*
X011030Y031500D01*
X011530Y031000D01*
X011530Y027373D01*
X010194Y026038D01*
X010054Y025897D01*
X010054Y024797D01*
X005589Y020257D02*
X004514Y020257D01*
X004054Y019797D01*
X003280Y022250D02*
X003280Y028500D01*
X003530Y028750D01*
X003530Y030750D01*
X004280Y031500D01*
X011030Y031500D01*
X019280Y031500D02*
X027530Y031500D01*
X028030Y031000D01*
X028030Y027338D01*
X026730Y026038D01*
X026590Y025897D01*
X026590Y024797D01*
X025590Y019797D02*
X024590Y019797D01*
X034857Y024797D02*
X034857Y025897D01*
X034998Y026038D01*
X036280Y027320D01*
X036280Y031000D01*
X035780Y031500D01*
X027530Y031500D01*
X009054Y019797D02*
X008054Y019797D01*
D28*
X003280Y022250D03*
X012530Y015500D03*
X014530Y015500D03*
X015968Y014313D03*
X017280Y015250D03*
X016719Y004335D03*
X025530Y004250D03*
X033123Y013068D03*
D29*
X033857Y024797D02*
X033857Y027611D01*
X035317Y029071D01*
X035317Y030171D01*
X031857Y028591D02*
X031377Y029071D01*
X031377Y030171D01*
X031857Y028591D02*
X031857Y024797D01*
X027050Y029071D02*
X025590Y027611D01*
X025590Y024797D01*
X023590Y024797D02*
X023590Y028591D01*
X023110Y029071D01*
X023110Y030171D01*
X027050Y030171D02*
X027050Y029071D01*
X018782Y029071D02*
X017322Y027611D01*
X017322Y024797D01*
X015322Y024797D02*
X015322Y028591D01*
X014842Y029071D01*
X014842Y030171D01*
X018782Y030171D02*
X018782Y029071D01*
X010514Y029071D02*
X009054Y027611D01*
X009054Y024797D01*
X007054Y024797D02*
X007054Y028591D01*
X006574Y029071D01*
X006574Y030171D01*
X010514Y030171D02*
X010514Y029071D01*
X002630Y010740D02*
X001530Y010740D01*
X002630Y010740D02*
X002630Y010710D01*
X004590Y008750D01*
X005280Y008750D01*
X007530Y008750D01*
X004590Y008750D02*
X002630Y006790D01*
X002630Y006740D01*
X001530Y006740D01*
D30*
X001530Y014740D02*
X001530Y019500D01*
X003030Y021000D01*
X004030Y022000D01*
X004030Y024773D01*
X004054Y024797D01*
X004030Y024822D01*
X004030Y026500D01*
X004208Y026678D01*
X004208Y026719D01*
X003030Y021000D02*
X011280Y021000D01*
X012280Y022000D01*
X012280Y024756D01*
X012322Y024797D01*
X012280Y024839D01*
X012280Y026500D01*
X012475Y026696D01*
X012475Y026719D01*
X011280Y021000D02*
X019530Y021000D01*
X020530Y022000D01*
X020530Y024738D01*
X020590Y024797D01*
X020530Y024857D01*
X020530Y026500D01*
X020743Y026713D01*
X020743Y026719D01*
X019530Y021000D02*
X027780Y021000D01*
X028780Y022000D01*
X028780Y024720D01*
X028857Y024797D01*
X028780Y024875D01*
X028780Y026500D01*
X028999Y026719D01*
X029011Y026719D01*
M02*
